<?xml version="1.0" encoding="utf-8"?>
<!-- Generator: Adobe Illustrator 19.1.0, SVG Export Plug-In . SVG Version: 6.00 Build 0)  -->
<svg version="1.1" id="Layer_1" xmlns="http://www.w3.org/2000/svg" xmlns:xlink="http://www.w3.org/1999/xlink" x="0px" y="0px"
	 viewBox="-236 195.9 138 402.1" style="enable-background:new -236 195.9 138 402.1;" xml:space="preserve">
<style type="text/css">
	.st0{fill:none;stroke:#000000;stroke-linecap:round;stroke-linejoin:round;stroke-miterlimit:10;}
</style>
<g id="_x30_3">
	<line class="st0" x1="-116.3" y1="301.5" x2="-109" y2="301.5"/>
	<circle cx="-142.8" cy="267" r="0.4"/>
	<circle cx="-142.8" cy="261.9" r="0.4"/>
	<circle cx="-142.8" cy="256.8" r="0.4"/>
	<circle cx="-142.8" cy="251.7" r="0.4"/>
	<circle cx="-142.8" cy="246.6" r="0.4"/>
	<circle cx="-142.8" cy="241.6" r="0.4"/>
	<circle cx="-142.8" cy="236.5" r="0.4"/>
	<circle cx="-142.8" cy="231.4" r="0.4"/>
	<circle cx="-142.8" cy="226.3" r="0.4"/>
	<circle cx="-142.8" cy="221.2" r="0.4"/>
	<circle cx="-142.8" cy="216.1" r="0.4"/>
	<circle cx="-147.9" cy="267" r="0.4"/>
	<circle cx="-147.9" cy="261.9" r="0.4"/>
	<circle cx="-147.9" cy="256.8" r="0.4"/>
	<circle cx="-147.9" cy="251.7" r="0.4"/>
	<circle cx="-147.9" cy="246.6" r="0.4"/>
	<circle cx="-147.9" cy="241.6" r="0.4"/>
	<circle cx="-147.9" cy="236.5" r="0.4"/>
	<circle cx="-147.9" cy="231.4" r="0.4"/>
	<circle cx="-147.9" cy="226.3" r="0.4"/>
	<circle cx="-147.9" cy="221.2" r="0.4"/>
	<circle cx="-147.9" cy="216.1" r="0.4"/>
	<circle cx="-127.5" cy="533.6" r="0.4"/>
	<circle cx="-132.6" cy="533.6" r="0.4"/>
	<circle cx="-137.7" cy="533.6" r="0.4"/>
	<circle cx="-142.8" cy="533.6" r="0.4"/>
	<circle cx="-147.9" cy="533.6" r="0.4"/>
	<circle cx="-153" cy="533.6" r="0.4"/>
	<circle cx="-127.5" cy="528.6" r="0.4"/>
	<circle cx="-132.6" cy="528.6" r="0.4"/>
	<circle cx="-137.7" cy="528.6" r="0.4"/>
	<circle cx="-142.8" cy="528.6" r="0.4"/>
	<circle cx="-147.9" cy="528.6" r="0.4"/>
	<circle cx="-153" cy="528.6" r="0.4"/>
	<circle cx="-127.5" cy="523.5" r="0.4"/>
	<circle cx="-132.6" cy="523.5" r="0.4"/>
	<circle cx="-137.7" cy="523.5" r="0.4"/>
	<circle cx="-142.8" cy="523.5" r="0.4"/>
	<circle cx="-147.9" cy="523.5" r="0.4"/>
	<circle cx="-153" cy="523.5" r="0.4"/>
	<circle cx="-127.5" cy="518.4" r="0.4"/>
	<circle cx="-132.6" cy="518.4" r="0.4"/>
	<circle cx="-137.7" cy="518.4" r="0.4"/>
	<circle cx="-142.8" cy="518.4" r="0.4"/>
	<circle cx="-147.9" cy="518.4" r="0.4"/>
	<circle cx="-153" cy="518.4" r="0.4"/>
	<circle cx="-137.7" cy="554.2" r="0.4"/>
	<circle cx="-142.8" cy="554.2" r="0.4"/>
	<circle cx="-147.9" cy="554.2" r="0.4"/>
	<circle cx="-153" cy="554.2" r="0.4"/>
	<circle cx="-158" cy="554.2" r="0.4"/>
	<circle cx="-163.1" cy="554.2" r="0.4"/>
	<circle cx="-168.2" cy="554.2" r="0.4"/>
	<circle cx="-173.3" cy="554.2" r="0.4"/>
	<circle cx="-178.4" cy="554.2" r="0.4"/>
	<circle cx="-183.5" cy="554.2" r="0.4"/>
	<circle cx="-127.5" cy="549.1" r="0.4"/>
	<circle cx="-132.6" cy="549.1" r="0.4"/>
	<circle cx="-137.7" cy="549.1" r="0.4"/>
	<circle cx="-142.8" cy="549.1" r="0.4"/>
	<circle cx="-147.9" cy="549.1" r="0.4"/>
	<circle cx="-153" cy="549.1" r="0.4"/>
	<circle cx="-127.5" cy="544" r="0.4"/>
	<circle cx="-132.6" cy="544" r="0.4"/>
	<circle cx="-137.7" cy="544" r="0.4"/>
	<circle cx="-142.8" cy="544" r="0.4"/>
	<circle cx="-147.9" cy="544" r="0.4"/>
	<circle cx="-153" cy="544" r="0.4"/>
	<circle cx="-127.5" cy="539" r="0.4"/>
	<circle cx="-132.6" cy="539" r="0.4"/>
	<circle cx="-137.7" cy="539" r="0.4"/>
	<circle cx="-142.8" cy="539" r="0.4"/>
	<circle cx="-147.9" cy="539" r="0.4"/>
	<circle cx="-153" cy="539" r="0.4"/>
	<circle cx="-137.7" cy="574.8" r="0.4"/>
	<circle cx="-142.8" cy="574.8" r="0.4"/>
	<circle cx="-147.9" cy="574.8" r="0.4"/>
	<circle cx="-153" cy="574.8" r="0.4"/>
	<circle cx="-158" cy="574.8" r="0.4"/>
	<circle cx="-163.1" cy="574.8" r="0.4"/>
	<circle cx="-168.2" cy="574.8" r="0.4"/>
	<circle cx="-173.3" cy="574.8" r="0.4"/>
	<circle cx="-178.4" cy="574.8" r="0.4"/>
	<circle cx="-183.5" cy="574.8" r="0.4"/>
	<circle cx="-137.7" cy="569.7" r="0.4"/>
	<circle cx="-142.8" cy="569.7" r="0.4"/>
	<circle cx="-147.9" cy="569.7" r="0.4"/>
	<circle cx="-153" cy="569.7" r="0.4"/>
	<circle cx="-158" cy="569.7" r="0.4"/>
	<circle cx="-163.1" cy="569.7" r="0.4"/>
	<circle cx="-168.2" cy="569.7" r="0.4"/>
	<circle cx="-173.3" cy="569.7" r="0.4"/>
	<circle cx="-178.4" cy="569.7" r="0.4"/>
	<circle cx="-183.5" cy="569.7" r="0.4"/>
	<circle cx="-137.7" cy="564.6" r="0.4"/>
	<circle cx="-142.8" cy="564.6" r="0.4"/>
	<circle cx="-147.9" cy="564.6" r="0.4"/>
	<circle cx="-153" cy="564.6" r="0.4"/>
	<circle cx="-158" cy="564.6" r="0.4"/>
	<circle cx="-163.1" cy="564.6" r="0.4"/>
	<circle cx="-168.2" cy="564.6" r="0.4"/>
	<circle cx="-173.3" cy="564.6" r="0.4"/>
	<circle cx="-178.4" cy="564.6" r="0.4"/>
	<circle cx="-183.5" cy="564.6" r="0.4"/>
	<circle cx="-137.7" cy="559.5" r="0.4"/>
	<circle cx="-142.8" cy="559.5" r="0.4"/>
	<circle cx="-147.9" cy="559.5" r="0.4"/>
	<circle cx="-153" cy="559.5" r="0.4"/>
	<circle cx="-158" cy="559.5" r="0.4"/>
	<circle cx="-163.1" cy="559.5" r="0.4"/>
	<circle cx="-168.2" cy="559.5" r="0.4"/>
	<circle cx="-173.3" cy="559.5" r="0.4"/>
	<circle cx="-178.4" cy="559.5" r="0.4"/>
	<circle cx="-183.5" cy="559.5" r="0.4"/>
	<circle cx="-137.7" cy="590.3" r="0.4"/>
	<circle cx="-142.8" cy="590.3" r="0.4"/>
	<circle cx="-147.9" cy="590.3" r="0.4"/>
	<circle cx="-153" cy="590.3" r="0.4"/>
	<circle cx="-158" cy="590.3" r="0.4"/>
	<circle cx="-163.1" cy="590.3" r="0.4"/>
	<circle cx="-137.7" cy="585.2" r="0.4"/>
	<circle cx="-142.8" cy="585.2" r="0.4"/>
	<circle cx="-147.9" cy="585.2" r="0.4"/>
	<circle cx="-153" cy="585.2" r="0.4"/>
	<circle cx="-158" cy="585.2" r="0.4"/>
	<circle cx="-163.1" cy="585.2" r="0.4"/>
	<circle cx="-137.7" cy="580.1" r="0.4"/>
	<circle cx="-142.8" cy="580.1" r="0.4"/>
	<circle cx="-147.9" cy="580.1" r="0.4"/>
	<circle cx="-153" cy="580.1" r="0.4"/>
	<circle cx="-158" cy="580.1" r="0.4"/>
	<circle cx="-163.1" cy="580.1" r="0.4"/>
	<circle cx="-127.5" cy="513.3" r="0.4"/>
	<circle cx="-132.6" cy="513.3" r="0.4"/>
	<circle cx="-137.7" cy="513.3" r="0.4"/>
	<circle cx="-142.8" cy="513.3" r="0.4"/>
	<circle cx="-147.9" cy="513.3" r="0.4"/>
	<circle cx="-153" cy="513.3" r="0.4"/>
	<circle cx="-127.5" cy="508.2" r="0.4"/>
	<circle cx="-132.6" cy="508.2" r="0.4"/>
	<circle cx="-137.7" cy="508.2" r="0.4"/>
	<circle cx="-142.8" cy="508.2" r="0.4"/>
	<circle cx="-147.9" cy="508.2" r="0.4"/>
	<circle cx="-153" cy="508.2" r="0.4"/>
	<circle cx="-127.5" cy="503.1" r="0.4"/>
	<circle cx="-132.6" cy="503.1" r="0.4"/>
	<circle cx="-137.7" cy="503.1" r="0.4"/>
	<circle cx="-142.8" cy="503.1" r="0.4"/>
	<circle cx="-147.9" cy="503.1" r="0.4"/>
	<circle cx="-153" cy="503.1" r="0.4"/>
	<circle cx="-127.5" cy="498" r="0.4"/>
	<circle cx="-132.6" cy="498" r="0.4"/>
	<circle cx="-137.7" cy="498" r="0.4"/>
	<circle cx="-142.8" cy="498" r="0.4"/>
	<circle cx="-147.9" cy="498" r="0.4"/>
	<circle cx="-153" cy="498" r="0.4"/>
	<circle cx="-127.5" cy="492.9" r="0.4"/>
	<circle cx="-132.6" cy="492.9" r="0.4"/>
	<circle cx="-137.7" cy="492.9" r="0.4"/>
	<circle cx="-142.8" cy="492.9" r="0.4"/>
	<circle cx="-147.9" cy="492.9" r="0.4"/>
	<circle cx="-153" cy="492.9" r="0.4"/>
	<circle cx="-127.5" cy="487.8" r="0.4"/>
	<circle cx="-132.6" cy="487.8" r="0.4"/>
	<circle cx="-137.7" cy="487.8" r="0.4"/>
	<circle cx="-142.8" cy="487.8" r="0.4"/>
	<circle cx="-147.9" cy="487.8" r="0.4"/>
	<circle cx="-153" cy="487.8" r="0.4"/>
	<circle cx="-127.5" cy="482.7" r="0.4"/>
	<circle cx="-132.6" cy="482.7" r="0.4"/>
	<circle cx="-137.7" cy="482.7" r="0.4"/>
	<circle cx="-142.8" cy="482.7" r="0.4"/>
	<circle cx="-147.9" cy="482.7" r="0.4"/>
	<circle cx="-153" cy="482.7" r="0.4"/>
	<circle cx="-127.5" cy="477.7" r="0.4"/>
	<circle cx="-132.6" cy="477.7" r="0.4"/>
	<circle cx="-137.7" cy="477.7" r="0.4"/>
	<circle cx="-142.8" cy="477.7" r="0.4"/>
	<circle cx="-147.9" cy="477.7" r="0.4"/>
	<circle cx="-153" cy="477.7" r="0.4"/>
	<circle cx="-127.5" cy="472.6" r="0.4"/>
	<circle cx="-132.6" cy="472.6" r="0.4"/>
	<circle cx="-137.7" cy="472.6" r="0.4"/>
	<circle cx="-142.8" cy="472.6" r="0.4"/>
	<circle cx="-147.9" cy="472.6" r="0.4"/>
	<circle cx="-153" cy="472.6" r="0.4"/>
	<circle cx="-127.5" cy="467.5" r="0.4"/>
	<circle cx="-132.6" cy="467.5" r="0.4"/>
	<circle cx="-137.7" cy="467.5" r="0.4"/>
	<circle cx="-142.8" cy="467.5" r="0.4"/>
	<circle cx="-147.9" cy="467.5" r="0.4"/>
	<circle cx="-153" cy="467.5" r="0.4"/>
	<circle cx="-127.5" cy="462.4" r="0.4"/>
	<circle cx="-132.6" cy="462.4" r="0.4"/>
	<circle cx="-137.7" cy="462.4" r="0.4"/>
	<circle cx="-142.8" cy="462.4" r="0.4"/>
	<circle cx="-147.9" cy="462.4" r="0.4"/>
	<circle cx="-153" cy="462.4" r="0.4"/>
	<circle cx="-127.5" cy="457.3" r="0.4"/>
	<circle cx="-132.6" cy="457.3" r="0.4"/>
	<circle cx="-137.7" cy="457.3" r="0.4"/>
	<circle cx="-142.8" cy="457.3" r="0.4"/>
	<circle cx="-147.9" cy="457.3" r="0.4"/>
	<circle cx="-153" cy="457.3" r="0.4"/>
	<circle cx="-127.5" cy="452.2" r="0.4"/>
	<circle cx="-132.6" cy="452.2" r="0.4"/>
	<circle cx="-137.7" cy="452.2" r="0.4"/>
	<circle cx="-142.8" cy="452.2" r="0.4"/>
	<circle cx="-147.9" cy="452.2" r="0.4"/>
	<circle cx="-153" cy="452.2" r="0.4"/>
	<circle cx="-127.5" cy="447.1" r="0.4"/>
	<circle cx="-132.6" cy="447.1" r="0.4"/>
	<circle cx="-137.7" cy="447.1" r="0.4"/>
	<circle cx="-142.8" cy="447.1" r="0.4"/>
	<circle cx="-147.9" cy="447.1" r="0.4"/>
	<circle cx="-153" cy="447.1" r="0.4"/>
	<circle cx="-127.5" cy="442" r="0.4"/>
	<circle cx="-132.6" cy="442" r="0.4"/>
	<circle cx="-137.7" cy="442" r="0.4"/>
	<circle cx="-142.8" cy="442" r="0.4"/>
	<circle cx="-147.9" cy="442" r="0.4"/>
	<circle cx="-153" cy="442" r="0.4"/>
	<circle cx="-127.5" cy="436.9" r="0.4"/>
	<circle cx="-132.6" cy="436.9" r="0.4"/>
	<circle cx="-137.7" cy="436.9" r="0.4"/>
	<circle cx="-142.8" cy="436.9" r="0.4"/>
	<circle cx="-147.9" cy="436.9" r="0.4"/>
	<circle cx="-153" cy="436.9" r="0.4"/>
	<circle cx="-127.5" cy="431.8" r="0.4"/>
	<circle cx="-132.6" cy="431.8" r="0.4"/>
	<circle cx="-137.7" cy="431.8" r="0.4"/>
	<circle cx="-142.8" cy="431.8" r="0.4"/>
	<circle cx="-147.9" cy="431.8" r="0.4"/>
	<circle cx="-153" cy="431.8" r="0.4"/>
	<circle cx="-127.5" cy="426.8" r="0.4"/>
	<circle cx="-132.6" cy="426.8" r="0.4"/>
	<circle cx="-137.7" cy="426.8" r="0.4"/>
	<circle cx="-142.8" cy="426.8" r="0.4"/>
	<circle cx="-147.9" cy="426.8" r="0.4"/>
	<circle cx="-153" cy="426.8" r="0.4"/>
	<circle cx="-127.5" cy="421.7" r="0.4"/>
	<circle cx="-132.6" cy="421.7" r="0.4"/>
	<circle cx="-137.7" cy="421.7" r="0.4"/>
	<circle cx="-142.8" cy="421.7" r="0.4"/>
	<circle cx="-147.9" cy="421.7" r="0.4"/>
	<circle cx="-153" cy="421.7" r="0.4"/>
	<circle cx="-127.5" cy="416.6" r="0.4"/>
	<circle cx="-132.6" cy="416.6" r="0.4"/>
	<circle cx="-137.7" cy="416.6" r="0.4"/>
	<circle cx="-142.8" cy="416.6" r="0.4"/>
	<circle cx="-147.9" cy="416.6" r="0.4"/>
	<circle cx="-153" cy="416.6" r="0.4"/>
	<circle cx="-127.5" cy="411.5" r="0.4"/>
	<circle cx="-132.6" cy="411.5" r="0.4"/>
	<circle cx="-127.5" cy="406.4" r="0.4"/>
	<circle cx="-132.6" cy="406.4" r="0.4"/>
	<circle cx="-127.5" cy="401.3" r="0.4"/>
	<circle cx="-132.6" cy="401.3" r="0.4"/>
	<circle cx="-127.5" cy="396.2" r="0.4"/>
	<circle cx="-132.6" cy="396.2" r="0.4"/>
	<circle cx="-127.5" cy="391.1" r="0.4"/>
	<circle cx="-132.6" cy="391.1" r="0.4"/>
	<circle cx="-127.5" cy="386" r="0.4"/>
	<circle cx="-132.6" cy="386" r="0.4"/>
	<circle cx="-127.5" cy="381" r="0.4"/>
	<circle cx="-132.6" cy="381" r="0.4"/>
	<circle cx="-127.5" cy="375.9" r="0.4"/>
	<circle cx="-132.6" cy="375.9" r="0.4"/>
	<circle cx="-137.7" cy="375.9" r="0.4"/>
	<circle cx="-142.8" cy="375.9" r="0.4"/>
	<circle cx="-127.5" cy="370.8" r="0.4"/>
	<circle cx="-132.6" cy="370.8" r="0.4"/>
	<circle cx="-137.7" cy="370.8" r="0.4"/>
	<circle cx="-142.8" cy="370.8" r="0.4"/>
	<circle cx="-127.5" cy="365.7" r="0.4"/>
	<circle cx="-132.6" cy="365.7" r="0.4"/>
	<circle cx="-137.7" cy="365.7" r="0.4"/>
	<circle cx="-142.8" cy="365.7" r="0.4"/>
	<circle cx="-127.5" cy="360.6" r="0.4"/>
	<circle cx="-132.6" cy="360.6" r="0.4"/>
	<circle cx="-137.7" cy="360.6" r="0.4"/>
	<circle cx="-142.8" cy="360.6" r="0.4"/>
	<circle cx="-127.5" cy="355.5" r="0.4"/>
	<circle cx="-132.6" cy="355.5" r="0.4"/>
	<circle cx="-137.7" cy="355.5" r="0.4"/>
	<circle cx="-142.8" cy="355.5" r="0.4"/>
	<circle cx="-127.5" cy="350.4" r="0.4"/>
	<circle cx="-132.6" cy="350.4" r="0.4"/>
	<circle cx="-137.7" cy="350.4" r="0.4"/>
	<circle cx="-142.8" cy="350.4" r="0.4"/>
	<circle cx="-127.5" cy="345.3" r="0.4"/>
	<circle cx="-132.6" cy="345.3" r="0.4"/>
	<circle cx="-137.7" cy="345.3" r="0.4"/>
	<circle cx="-142.8" cy="345.3" r="0.4"/>
	<circle cx="-127.5" cy="340.2" r="0.4"/>
	<circle cx="-132.6" cy="340.2" r="0.4"/>
	<circle cx="-137.7" cy="340.2" r="0.4"/>
	<circle cx="-142.8" cy="340.2" r="0.4"/>
	<circle cx="-127.5" cy="335.1" r="0.4"/>
	<circle cx="-132.6" cy="335.1" r="0.4"/>
	<circle cx="-137.7" cy="335.1" r="0.4"/>
	<circle cx="-142.8" cy="335.1" r="0.4"/>
	<circle cx="-127.5" cy="330.1" r="0.4"/>
	<circle cx="-132.6" cy="330.1" r="0.4"/>
	<circle cx="-137.7" cy="330.1" r="0.4"/>
	<circle cx="-142.8" cy="330.1" r="0.4"/>
	<circle cx="-127.5" cy="325" r="0.4"/>
	<circle cx="-132.6" cy="325" r="0.4"/>
	<circle cx="-137.7" cy="325" r="0.4"/>
	<circle cx="-142.8" cy="325" r="0.4"/>
	<circle cx="-127.5" cy="319.9" r="0.4"/>
	<circle cx="-132.6" cy="319.9" r="0.4"/>
	<circle cx="-137.7" cy="319.9" r="0.4"/>
	<circle cx="-142.8" cy="319.9" r="0.4"/>
	<circle cx="-127.5" cy="314.8" r="0.4"/>
	<circle cx="-132.6" cy="314.8" r="0.4"/>
	<circle cx="-137.7" cy="314.8" r="0.4"/>
	<circle cx="-142.8" cy="314.8" r="0.4"/>
	<circle cx="-214.1" cy="513.3" r="0.4"/>
	<circle cx="-214.1" cy="508.2" r="0.4"/>
	<circle cx="-214.1" cy="462.4" r="0.4"/>
	<circle cx="-214.1" cy="457.3" r="0.4"/>
	<circle cx="-214.1" cy="452.2" r="0.4"/>
	<circle cx="-214.1" cy="447.1" r="0.4"/>
	<circle cx="-214.1" cy="442" r="0.4"/>
	<circle cx="-214.1" cy="436.9" r="0.4"/>
	<circle cx="-214.1" cy="431.8" r="0.4"/>
	<circle cx="-214.1" cy="426.8" r="0.4"/>
	<circle cx="-214.1" cy="421.7" r="0.4"/>
	<circle cx="-214.1" cy="416.6" r="0.4"/>
	<circle cx="-214.1" cy="411.5" r="0.4"/>
	<circle cx="-214.1" cy="406.4" r="0.4"/>
	<circle cx="-214.1" cy="401.3" r="0.4"/>
	<circle cx="-219.2" cy="462.4" r="0.4"/>
	<circle cx="-219.2" cy="457.3" r="0.4"/>
	<circle cx="-219.2" cy="452.2" r="0.4"/>
	<circle cx="-219.2" cy="447.1" r="0.4"/>
	<circle cx="-219.2" cy="442" r="0.4"/>
	<circle cx="-219.2" cy="436.9" r="0.4"/>
	<circle cx="-219.2" cy="431.8" r="0.4"/>
	<circle cx="-219.2" cy="426.8" r="0.4"/>
	<circle cx="-219.2" cy="421.7" r="0.4"/>
	<circle cx="-219.2" cy="416.6" r="0.4"/>
	<circle cx="-219.2" cy="411.5" r="0.4"/>
	<circle cx="-219.2" cy="406.4" r="0.4"/>
	<circle cx="-219.2" cy="401.3" r="0.4"/>
	<circle cx="-224.3" cy="462.4" r="0.4"/>
	<circle cx="-224.3" cy="457.3" r="0.4"/>
	<circle cx="-224.3" cy="452.2" r="0.4"/>
	<circle cx="-224.3" cy="447.1" r="0.4"/>
	<circle cx="-224.3" cy="442" r="0.4"/>
	<circle cx="-224.3" cy="436.9" r="0.4"/>
	<circle cx="-224.3" cy="431.8" r="0.4"/>
	<circle cx="-224.3" cy="426.8" r="0.4"/>
	<circle cx="-224.3" cy="421.7" r="0.4"/>
	<circle cx="-224.3" cy="416.6" r="0.4"/>
	<circle cx="-224.3" cy="411.5" r="0.4"/>
	<circle cx="-224.3" cy="406.4" r="0.4"/>
	<circle cx="-224.3" cy="401.3" r="0.4"/>
	<circle cx="-202.2" cy="216" r="0.6"/>
</g>
</svg>
