<?xml version="1.0" encoding="utf-8"?>
<!-- Generator: Adobe Illustrator 19.1.0, SVG Export Plug-In . SVG Version: 6.00 Build 0)  -->
<svg version="1.1" id="Layer_1" xmlns="http://www.w3.org/2000/svg" xmlns:xlink="http://www.w3.org/1999/xlink" x="0px" y="0px"
	 viewBox="-252 217.7 106.7 359.3" style="enable-background:new -252 217.7 106.7 359.3;" xml:space="preserve">
<g id="_x30_5">
	<g>
		<circle cx="-153.6" cy="568.1" r="0.6"/>
		<circle cx="-161.9" cy="568.1" r="0.6"/>
		<circle cx="-170.2" cy="568.1" r="0.6"/>
		<circle cx="-178.5" cy="568.1" r="0.6"/>
		<circle cx="-186.8" cy="568.1" r="0.6"/>
		<circle cx="-195.1" cy="568.1" r="0.6"/>
		<circle cx="-203.4" cy="568.1" r="0.6"/>
		<circle cx="-211.7" cy="568.1" r="0.6"/>
		<circle cx="-220" cy="568.1" r="0.6"/>
		<circle cx="-228.3" cy="568.1" r="0.6"/>
		<circle cx="-153.6" cy="559.8" r="0.6"/>
		<circle cx="-161.9" cy="559.8" r="0.6"/>
		<circle cx="-170.2" cy="559.8" r="0.6"/>
		<circle cx="-178.5" cy="559.8" r="0.6"/>
		<circle cx="-186.8" cy="559.8" r="0.6"/>
		<circle cx="-195.1" cy="559.8" r="0.6"/>
		<circle cx="-203.4" cy="559.8" r="0.6"/>
		<circle cx="-211.7" cy="559.8" r="0.6"/>
		<circle cx="-220" cy="559.8" r="0.6"/>
		<circle cx="-228.3" cy="559.8" r="0.6"/>
		<circle cx="-153.6" cy="551.5" r="0.6"/>
		<circle cx="-161.9" cy="551.5" r="0.6"/>
		<circle cx="-170.2" cy="551.5" r="0.6"/>
		<circle cx="-178.5" cy="551.5" r="0.6"/>
		<circle cx="-186.8" cy="551.5" r="0.6"/>
		<circle cx="-195.1" cy="551.5" r="0.6"/>
		<circle cx="-203.4" cy="551.5" r="0.6"/>
		<circle cx="-211.7" cy="551.5" r="0.6"/>
		<circle cx="-220" cy="551.5" r="0.6"/>
		<circle cx="-228.3" cy="551.5" r="0.6"/>
		<circle cx="-153.6" cy="543.2" r="0.6"/>
		<circle cx="-161.9" cy="543.2" r="0.6"/>
		<circle cx="-170.2" cy="543.2" r="0.6"/>
		<circle cx="-178.5" cy="543.2" r="0.6"/>
		<circle cx="-186.8" cy="543.2" r="0.6"/>
		<circle cx="-195.1" cy="543.2" r="0.6"/>
		<circle cx="-203.4" cy="543.2" r="0.6"/>
		<circle cx="-211.7" cy="543.2" r="0.6"/>
		<circle cx="-220" cy="543.2" r="0.6"/>
		<circle cx="-228.3" cy="543.2" r="0.6"/>
		<circle cx="-153.6" cy="534.9" r="0.6"/>
		<circle cx="-161.9" cy="534.9" r="0.6"/>
		<circle cx="-170.2" cy="534.9" r="0.6"/>
		<circle cx="-178.5" cy="534.9" r="0.6"/>
		<circle cx="-186.8" cy="534.9" r="0.6"/>
		<circle cx="-195.1" cy="534.9" r="0.6"/>
		<circle cx="-203.4" cy="534.9" r="0.6"/>
		<circle cx="-211.7" cy="534.9" r="0.6"/>
		<circle cx="-220" cy="534.9" r="0.6"/>
		<circle cx="-228.3" cy="534.9" r="0.6"/>
		<circle cx="-153.6" cy="526.6" r="0.6"/>
		<circle cx="-161.9" cy="526.6" r="0.6"/>
		<circle cx="-170.2" cy="526.6" r="0.6"/>
		<circle cx="-178.5" cy="526.6" r="0.6"/>
		<circle cx="-186.8" cy="526.6" r="0.6"/>
		<circle cx="-195.1" cy="526.6" r="0.6"/>
		<circle cx="-203.4" cy="526.6" r="0.6"/>
		<circle cx="-211.7" cy="526.6" r="0.6"/>
		<circle cx="-220" cy="526.6" r="0.6"/>
		<circle cx="-228.3" cy="526.6" r="0.6"/>
		<circle cx="-153.6" cy="518.3" r="0.6"/>
		<circle cx="-161.9" cy="518.3" r="0.6"/>
		<circle cx="-170.2" cy="518.3" r="0.6"/>
		<circle cx="-178.5" cy="518.3" r="0.6"/>
		<circle cx="-186.8" cy="518.3" r="0.6"/>
		<circle cx="-195.1" cy="518.3" r="0.6"/>
		<circle cx="-203.4" cy="518.3" r="0.6"/>
		<circle cx="-211.7" cy="518.3" r="0.6"/>
		<circle cx="-220" cy="518.3" r="0.6"/>
		<circle cx="-228.3" cy="518.3" r="0.6"/>
		<circle cx="-153.6" cy="509.9" r="0.6"/>
		<circle cx="-161.9" cy="509.9" r="0.6"/>
		<circle cx="-170.2" cy="509.9" r="0.6"/>
		<circle cx="-178.5" cy="509.9" r="0.6"/>
		<circle cx="-186.8" cy="509.9" r="0.6"/>
		<circle cx="-195.1" cy="509.9" r="0.6"/>
		<circle cx="-203.4" cy="509.9" r="0.6"/>
		<circle cx="-211.7" cy="509.9" r="0.6"/>
		<circle cx="-220" cy="509.9" r="0.6"/>
		<circle cx="-228.3" cy="509.9" r="0.6"/>
		<circle cx="-153.6" cy="501.6" r="0.6"/>
		<circle cx="-161.9" cy="501.6" r="0.6"/>
		<circle cx="-170.2" cy="501.6" r="0.6"/>
		<circle cx="-178.5" cy="501.6" r="0.6"/>
		<circle cx="-186.8" cy="501.6" r="0.6"/>
		<circle cx="-195.1" cy="501.6" r="0.6"/>
		<circle cx="-203.4" cy="501.6" r="0.6"/>
		<circle cx="-211.7" cy="501.6" r="0.6"/>
		<circle cx="-220" cy="501.6" r="0.6"/>
		<circle cx="-228.3" cy="501.6" r="0.6"/>
		<circle cx="-153.6" cy="493.3" r="0.6"/>
		<circle cx="-161.9" cy="493.3" r="0.6"/>
		<circle cx="-170.2" cy="493.3" r="0.6"/>
		<circle cx="-178.5" cy="493.3" r="0.6"/>
		<circle cx="-186.8" cy="493.3" r="0.6"/>
		<circle cx="-195.1" cy="493.3" r="0.6"/>
		<circle cx="-203.4" cy="493.3" r="0.6"/>
		<circle cx="-211.7" cy="493.3" r="0.6"/>
		<circle cx="-220" cy="493.3" r="0.6"/>
		<circle cx="-228.3" cy="493.3" r="0.6"/>
		<circle cx="-153.6" cy="485" r="0.6"/>
		<circle cx="-161.9" cy="485" r="0.6"/>
		<circle cx="-170.2" cy="485" r="0.6"/>
		<circle cx="-178.5" cy="485" r="0.6"/>
		<circle cx="-186.8" cy="485" r="0.6"/>
		<circle cx="-195.1" cy="485" r="0.6"/>
		<circle cx="-203.4" cy="485" r="0.6"/>
		<circle cx="-211.7" cy="485" r="0.6"/>
		<circle cx="-220" cy="485" r="0.6"/>
		<circle cx="-228.3" cy="485" r="0.6"/>
		<circle cx="-153.6" cy="476.7" r="0.6"/>
		<circle cx="-161.9" cy="476.7" r="0.6"/>
		<circle cx="-170.2" cy="476.7" r="0.6"/>
		<circle cx="-178.5" cy="476.7" r="0.6"/>
		<circle cx="-186.8" cy="476.7" r="0.6"/>
		<circle cx="-195.1" cy="476.7" r="0.6"/>
		<circle cx="-203.4" cy="476.7" r="0.6"/>
		<circle cx="-211.7" cy="476.7" r="0.6"/>
		<circle cx="-220" cy="476.7" r="0.6"/>
		<circle cx="-228.3" cy="476.7" r="0.6"/>
		<circle cx="-153.6" cy="468.4" r="0.6"/>
		<circle cx="-161.9" cy="468.4" r="0.6"/>
		<circle cx="-170.2" cy="468.4" r="0.6"/>
		<circle cx="-178.5" cy="468.4" r="0.6"/>
		<circle cx="-186.8" cy="468.4" r="0.6"/>
		<circle cx="-195.1" cy="468.4" r="0.6"/>
		<circle cx="-203.4" cy="468.4" r="0.6"/>
		<circle cx="-211.7" cy="468.4" r="0.6"/>
		<circle cx="-220" cy="468.4" r="0.6"/>
		<circle cx="-228.3" cy="468.4" r="0.6"/>
		<circle cx="-153.6" cy="460.1" r="0.6"/>
		<circle cx="-161.9" cy="460.1" r="0.6"/>
		<circle cx="-170.2" cy="460.1" r="0.6"/>
		<circle cx="-178.5" cy="460.1" r="0.6"/>
		<circle cx="-186.8" cy="460.1" r="0.6"/>
		<circle cx="-195.1" cy="460.1" r="0.6"/>
		<circle cx="-203.4" cy="460.1" r="0.6"/>
		<circle cx="-211.7" cy="460.1" r="0.6"/>
		<circle cx="-220" cy="460.1" r="0.6"/>
		<circle cx="-228.3" cy="460.1" r="0.6"/>
		<circle cx="-153.6" cy="451.8" r="0.6"/>
		<circle cx="-161.9" cy="451.8" r="0.6"/>
		<circle cx="-170.2" cy="451.8" r="0.6"/>
		<circle cx="-178.5" cy="451.8" r="0.6"/>
		<circle cx="-186.8" cy="451.8" r="0.6"/>
		<circle cx="-195.1" cy="451.8" r="0.6"/>
		<circle cx="-203.4" cy="451.8" r="0.6"/>
		<circle cx="-211.7" cy="451.8" r="0.6"/>
		<circle cx="-220" cy="451.8" r="0.6"/>
		<circle cx="-228.3" cy="451.8" r="0.6"/>
		<circle cx="-153.6" cy="443.5" r="0.6"/>
		<circle cx="-161.9" cy="443.5" r="0.6"/>
		<circle cx="-170.2" cy="443.5" r="0.6"/>
		<circle cx="-178.5" cy="443.5" r="0.6"/>
		<circle cx="-186.8" cy="443.5" r="0.6"/>
		<circle cx="-195.1" cy="443.5" r="0.6"/>
		<circle cx="-203.4" cy="443.5" r="0.6"/>
		<circle cx="-211.7" cy="443.5" r="0.6"/>
		<circle cx="-220" cy="443.5" r="0.6"/>
		<circle cx="-228.3" cy="443.5" r="0.6"/>
		<circle cx="-153.6" cy="435.2" r="0.6"/>
		<circle cx="-161.9" cy="435.2" r="0.6"/>
		<circle cx="-170.2" cy="435.2" r="0.6"/>
		<circle cx="-178.5" cy="435.2" r="0.6"/>
		<circle cx="-186.8" cy="435.2" r="0.6"/>
		<circle cx="-195.1" cy="435.2" r="0.6"/>
		<circle cx="-203.4" cy="435.2" r="0.6"/>
		<circle cx="-211.7" cy="435.2" r="0.6"/>
		<circle cx="-220" cy="435.2" r="0.6"/>
		<circle cx="-228.3" cy="435.2" r="0.6"/>
		<circle cx="-153.6" cy="426.8" r="0.6"/>
		<circle cx="-161.9" cy="426.8" r="0.6"/>
		<circle cx="-170.2" cy="426.8" r="0.6"/>
		<circle cx="-178.5" cy="426.8" r="0.6"/>
		<circle cx="-186.8" cy="426.8" r="0.6"/>
		<circle cx="-195.1" cy="426.8" r="0.6"/>
		<circle cx="-203.4" cy="426.8" r="0.6"/>
		<circle cx="-211.7" cy="426.8" r="0.6"/>
		<circle cx="-220" cy="426.8" r="0.6"/>
		<circle cx="-228.3" cy="426.8" r="0.6"/>
		<circle cx="-153.6" cy="418.5" r="0.6"/>
		<circle cx="-161.9" cy="418.5" r="0.6"/>
		<circle cx="-170.2" cy="418.5" r="0.6"/>
		<circle cx="-178.5" cy="418.5" r="0.6"/>
		<circle cx="-186.8" cy="418.5" r="0.6"/>
		<circle cx="-195.1" cy="418.5" r="0.6"/>
		<circle cx="-203.4" cy="418.5" r="0.6"/>
		<circle cx="-211.7" cy="418.5" r="0.6"/>
		<circle cx="-220" cy="418.5" r="0.6"/>
		<circle cx="-228.3" cy="418.5" r="0.6"/>
		<circle cx="-153.6" cy="410.2" r="0.6"/>
		<circle cx="-161.9" cy="410.2" r="0.6"/>
		<circle cx="-170.2" cy="410.2" r="0.6"/>
		<circle cx="-178.5" cy="410.2" r="0.6"/>
		<circle cx="-186.8" cy="410.2" r="0.6"/>
		<circle cx="-195.1" cy="410.2" r="0.6"/>
		<circle cx="-203.4" cy="410.2" r="0.6"/>
		<circle cx="-211.7" cy="410.2" r="0.6"/>
		<circle cx="-220" cy="410.2" r="0.6"/>
		<circle cx="-228.3" cy="410.2" r="0.6"/>
		<circle cx="-153.6" cy="401.9" r="0.6"/>
		<circle cx="-161.9" cy="401.9" r="0.6"/>
		<circle cx="-170.2" cy="401.9" r="0.6"/>
		<circle cx="-178.5" cy="401.9" r="0.6"/>
		<circle cx="-186.8" cy="401.9" r="0.6"/>
		<circle cx="-195.1" cy="401.9" r="0.6"/>
		<circle cx="-203.4" cy="401.9" r="0.6"/>
		<circle cx="-211.7" cy="401.9" r="0.6"/>
		<circle cx="-220" cy="401.9" r="0.6"/>
		<circle cx="-228.3" cy="401.9" r="0.6"/>
		<circle cx="-153.6" cy="393.6" r="0.6"/>
		<circle cx="-161.9" cy="393.6" r="0.6"/>
		<circle cx="-170.2" cy="393.6" r="0.6"/>
		<circle cx="-178.5" cy="393.6" r="0.6"/>
		<circle cx="-186.8" cy="393.6" r="0.6"/>
		<circle cx="-195.1" cy="393.6" r="0.6"/>
		<circle cx="-203.4" cy="393.6" r="0.6"/>
		<circle cx="-211.7" cy="393.6" r="0.6"/>
		<circle cx="-220" cy="393.6" r="0.6"/>
		<circle cx="-228.3" cy="393.6" r="0.6"/>
		<circle cx="-236.6" cy="393.6" r="0.6"/>
		<circle cx="-244.9" cy="393.6" r="0.6"/>
		<circle cx="-153.6" cy="385.3" r="0.6"/>
		<circle cx="-161.9" cy="385.3" r="0.6"/>
		<circle cx="-170.2" cy="385.3" r="0.6"/>
		<circle cx="-178.5" cy="385.3" r="0.6"/>
		<circle cx="-186.8" cy="385.3" r="0.6"/>
		<circle cx="-195.1" cy="385.3" r="0.6"/>
		<circle cx="-203.4" cy="385.3" r="0.6"/>
		<circle cx="-211.7" cy="385.3" r="0.6"/>
		<circle cx="-220" cy="385.3" r="0.6"/>
		<circle cx="-228.3" cy="385.3" r="0.6"/>
		<circle cx="-236.6" cy="385.3" r="0.6"/>
		<circle cx="-244.9" cy="385.3" r="0.6"/>
		<circle cx="-153.6" cy="377" r="0.6"/>
		<circle cx="-161.9" cy="377" r="0.6"/>
		<circle cx="-170.2" cy="377" r="0.6"/>
		<circle cx="-178.5" cy="377" r="0.6"/>
		<circle cx="-186.8" cy="377" r="0.6"/>
		<circle cx="-195.1" cy="377" r="0.6"/>
		<circle cx="-203.4" cy="377" r="0.6"/>
		<circle cx="-211.7" cy="377" r="0.6"/>
		<circle cx="-220" cy="377" r="0.6"/>
		<circle cx="-228.3" cy="377" r="0.6"/>
		<circle cx="-236.6" cy="377" r="0.6"/>
		<circle cx="-244.9" cy="377" r="0.6"/>
		<circle cx="-153.6" cy="368.7" r="0.6"/>
		<circle cx="-161.9" cy="368.7" r="0.6"/>
		<circle cx="-170.2" cy="368.7" r="0.6"/>
		<circle cx="-178.5" cy="368.7" r="0.6"/>
		<circle cx="-186.8" cy="368.7" r="0.6"/>
		<circle cx="-195.1" cy="368.7" r="0.6"/>
		<circle cx="-203.4" cy="368.7" r="0.6"/>
		<circle cx="-211.7" cy="368.7" r="0.6"/>
		<circle cx="-220" cy="368.7" r="0.6"/>
		<circle cx="-228.3" cy="368.7" r="0.6"/>
		<circle cx="-236.6" cy="368.7" r="0.6"/>
		<circle cx="-244.9" cy="368.7" r="0.6"/>
		<circle cx="-153.6" cy="360.4" r="0.6"/>
		<circle cx="-161.9" cy="360.4" r="0.6"/>
		<circle cx="-170.2" cy="360.4" r="0.6"/>
		<circle cx="-178.5" cy="360.4" r="0.6"/>
		<circle cx="-186.8" cy="360.4" r="0.6"/>
		<circle cx="-195.1" cy="360.4" r="0.6"/>
		<circle cx="-203.4" cy="360.4" r="0.6"/>
		<circle cx="-211.7" cy="360.4" r="0.6"/>
		<circle cx="-220" cy="360.4" r="0.6"/>
		<circle cx="-228.3" cy="360.4" r="0.6"/>
		<circle cx="-236.6" cy="360.4" r="0.6"/>
		<circle cx="-244.9" cy="360.4" r="0.6"/>
		<circle cx="-153.6" cy="352.1" r="0.6"/>
		<circle cx="-161.9" cy="352.1" r="0.6"/>
		<circle cx="-170.2" cy="352.1" r="0.6"/>
		<circle cx="-178.5" cy="352.1" r="0.6"/>
		<circle cx="-186.8" cy="352.1" r="0.6"/>
		<circle cx="-195.1" cy="352.1" r="0.6"/>
		<circle cx="-203.4" cy="352.1" r="0.6"/>
		<circle cx="-211.7" cy="352.1" r="0.6"/>
		<circle cx="-220" cy="352.1" r="0.6"/>
		<circle cx="-228.3" cy="352.1" r="0.6"/>
		<circle cx="-153.6" cy="343.7" r="0.6"/>
		<circle cx="-161.9" cy="343.7" r="0.6"/>
		<circle cx="-170.2" cy="343.7" r="0.6"/>
		<circle cx="-178.5" cy="343.7" r="0.6"/>
		<circle cx="-186.8" cy="343.7" r="0.6"/>
		<circle cx="-195.1" cy="343.7" r="0.6"/>
		<circle cx="-203.4" cy="343.7" r="0.6"/>
		<circle cx="-211.7" cy="343.7" r="0.6"/>
		<circle cx="-220" cy="343.7" r="0.6"/>
		<circle cx="-228.3" cy="343.7" r="0.6"/>
		<circle cx="-153.6" cy="335.4" r="0.6"/>
		<circle cx="-161.9" cy="335.4" r="0.6"/>
		<circle cx="-170.2" cy="335.4" r="0.6"/>
		<circle cx="-178.5" cy="335.4" r="0.6"/>
		<circle cx="-186.8" cy="335.4" r="0.6"/>
		<circle cx="-195.1" cy="335.4" r="0.6"/>
		<circle cx="-203.4" cy="335.4" r="0.6"/>
		<circle cx="-211.7" cy="335.4" r="0.6"/>
		<circle cx="-220" cy="335.4" r="0.6"/>
		<circle cx="-228.3" cy="335.4" r="0.6"/>
		<circle cx="-153.6" cy="327.1" r="0.6"/>
		<circle cx="-161.9" cy="327.1" r="0.6"/>
		<circle cx="-170.2" cy="327.1" r="0.6"/>
		<circle cx="-178.5" cy="327.1" r="0.6"/>
		<circle cx="-186.8" cy="327.1" r="0.6"/>
		<circle cx="-195.1" cy="327.1" r="0.6"/>
		<circle cx="-203.4" cy="327.1" r="0.6"/>
		<circle cx="-211.7" cy="327.1" r="0.6"/>
		<circle cx="-220" cy="327.1" r="0.6"/>
		<circle cx="-228.3" cy="327.1" r="0.6"/>
		<circle cx="-153.6" cy="318.8" r="0.6"/>
		<circle cx="-161.9" cy="318.8" r="0.6"/>
		<circle cx="-170.2" cy="318.8" r="0.6"/>
		<circle cx="-178.5" cy="318.8" r="0.6"/>
		<circle cx="-186.8" cy="318.8" r="0.6"/>
		<circle cx="-195.1" cy="318.8" r="0.6"/>
		<circle cx="-203.4" cy="318.8" r="0.6"/>
		<circle cx="-211.7" cy="318.8" r="0.6"/>
		<circle cx="-220" cy="318.8" r="0.6"/>
		<circle cx="-228.3" cy="318.8" r="0.6"/>
		<circle cx="-153.6" cy="310.5" r="0.6"/>
		<circle cx="-161.9" cy="310.5" r="0.6"/>
		<circle cx="-170.2" cy="310.5" r="0.6"/>
		<circle cx="-178.5" cy="310.5" r="0.6"/>
		<circle cx="-186.8" cy="310.5" r="0.6"/>
		<circle cx="-195.1" cy="310.5" r="0.6"/>
		<circle cx="-203.4" cy="310.5" r="0.6"/>
		<circle cx="-211.7" cy="310.5" r="0.6"/>
		<circle cx="-220" cy="310.5" r="0.6"/>
		<circle cx="-228.3" cy="310.5" r="0.6"/>
		<circle cx="-153.6" cy="302.2" r="0.6"/>
		<circle cx="-161.9" cy="302.2" r="0.6"/>
		<circle cx="-170.2" cy="302.2" r="0.6"/>
		<circle cx="-178.5" cy="302.2" r="0.6"/>
		<circle cx="-186.8" cy="302.2" r="0.6"/>
		<circle cx="-195.1" cy="302.2" r="0.6"/>
		<circle cx="-203.4" cy="302.2" r="0.6"/>
		<circle cx="-211.7" cy="302.2" r="0.6"/>
		<circle cx="-220" cy="302.2" r="0.6"/>
		<circle cx="-228.3" cy="302.2" r="0.6"/>
		<circle cx="-153.6" cy="293.9" r="0.6"/>
		<circle cx="-161.9" cy="293.9" r="0.6"/>
		<circle cx="-170.2" cy="293.9" r="0.6"/>
		<circle cx="-178.5" cy="293.9" r="0.6"/>
		<circle cx="-186.8" cy="293.9" r="0.6"/>
		<circle cx="-195.1" cy="293.9" r="0.6"/>
		<circle cx="-203.4" cy="293.9" r="0.6"/>
		<circle cx="-211.7" cy="293.9" r="0.6"/>
		<circle cx="-220" cy="293.9" r="0.6"/>
		<circle cx="-228.3" cy="293.9" r="0.6"/>
		<circle cx="-153.6" cy="285.6" r="0.6"/>
		<circle cx="-161.9" cy="285.6" r="0.6"/>
		<circle cx="-170.2" cy="285.6" r="0.6"/>
		<circle cx="-178.5" cy="285.6" r="0.6"/>
		<circle cx="-186.8" cy="285.6" r="0.6"/>
		<circle cx="-195.1" cy="285.6" r="0.6"/>
		<circle cx="-203.4" cy="285.6" r="0.6"/>
		<circle cx="-211.7" cy="285.6" r="0.6"/>
		<circle cx="-220" cy="285.6" r="0.6"/>
		<circle cx="-228.3" cy="285.6" r="0.6"/>
		<circle cx="-153.6" cy="277.3" r="0.6"/>
		<circle cx="-161.9" cy="277.3" r="0.6"/>
		<circle cx="-170.2" cy="277.3" r="0.6"/>
		<circle cx="-178.5" cy="277.3" r="0.6"/>
		<circle cx="-186.8" cy="277.3" r="0.6"/>
		<circle cx="-195.1" cy="277.3" r="0.6"/>
		<circle cx="-203.4" cy="277.3" r="0.6"/>
		<circle cx="-211.7" cy="277.3" r="0.6"/>
		<circle cx="-220" cy="277.3" r="0.6"/>
		<circle cx="-228.3" cy="277.3" r="0.6"/>
		<circle cx="-153.6" cy="268.9" r="0.6"/>
		<circle cx="-161.9" cy="268.9" r="0.6"/>
		<circle cx="-170.2" cy="268.9" r="0.6"/>
		<circle cx="-178.5" cy="268.9" r="0.6"/>
		<circle cx="-186.8" cy="268.9" r="0.6"/>
		<circle cx="-195.1" cy="268.9" r="0.6"/>
		<circle cx="-203.4" cy="268.9" r="0.6"/>
		<circle cx="-211.7" cy="268.9" r="0.6"/>
		<circle cx="-220" cy="268.9" r="0.6"/>
		<circle cx="-228.3" cy="268.9" r="0.6"/>
		<circle cx="-153.6" cy="260.6" r="0.6"/>
		<circle cx="-161.9" cy="260.6" r="0.6"/>
		<circle cx="-170.2" cy="260.6" r="0.6"/>
		<circle cx="-178.5" cy="260.6" r="0.6"/>
		<circle cx="-186.8" cy="260.6" r="0.6"/>
		<circle cx="-195.1" cy="260.6" r="0.6"/>
		<circle cx="-203.4" cy="260.6" r="0.6"/>
		<circle cx="-211.7" cy="260.6" r="0.6"/>
		<circle cx="-220" cy="260.6" r="0.6"/>
		<circle cx="-228.3" cy="260.6" r="0.6"/>
		<circle cx="-153.6" cy="252.3" r="0.6"/>
		<circle cx="-161.9" cy="252.3" r="0.6"/>
		<circle cx="-170.2" cy="252.3" r="0.6"/>
		<circle cx="-178.5" cy="252.3" r="0.6"/>
		<circle cx="-186.8" cy="252.3" r="0.6"/>
		<circle cx="-195.1" cy="252.3" r="0.6"/>
		<circle cx="-203.4" cy="252.3" r="0.6"/>
		<circle cx="-211.7" cy="252.3" r="0.6"/>
		<circle cx="-220" cy="252.3" r="0.6"/>
		<circle cx="-228.3" cy="252.3" r="0.6"/>
		<circle cx="-153.6" cy="244" r="0.6"/>
		<circle cx="-161.9" cy="244" r="0.6"/>
		<circle cx="-170.2" cy="244" r="0.6"/>
		<circle cx="-178.5" cy="244" r="0.6"/>
		<circle cx="-186.8" cy="244" r="0.6"/>
		<circle cx="-195.1" cy="244" r="0.6"/>
		<circle cx="-203.4" cy="244" r="0.6"/>
		<circle cx="-211.7" cy="244" r="0.6"/>
		<circle cx="-220" cy="244" r="0.6"/>
		<circle cx="-228.3" cy="244" r="0.6"/>
		<circle cx="-153.6" cy="235.7" r="0.6"/>
		<circle cx="-161.9" cy="235.7" r="0.6"/>
		<circle cx="-170.2" cy="235.7" r="0.6"/>
		<circle cx="-178.5" cy="235.7" r="0.6"/>
		<circle cx="-186.8" cy="235.7" r="0.6"/>
		<circle cx="-195.1" cy="235.7" r="0.6"/>
		<circle cx="-203.4" cy="235.7" r="0.6"/>
		<circle cx="-211.7" cy="235.7" r="0.6"/>
		<circle cx="-220" cy="235.7" r="0.6"/>
		<circle cx="-228.3" cy="235.7" r="0.6"/>
	</g>
</g>
</svg>
