<?xml version="1.0" encoding="utf-8"?>
<!-- Generator: Adobe Illustrator 19.1.0, SVG Export Plug-In . SVG Version: 6.00 Build 0)  -->
<svg version="1.1" id="Layer_1" xmlns="http://www.w3.org/2000/svg" xmlns:xlink="http://www.w3.org/1999/xlink" x="0px" y="0px"
	 viewBox="-112 304 386 185" style="enable-background:new -112 304 386 185;" xml:space="preserve">
<style type="text/css">
	.st0{fill:none;stroke:#000000;stroke-width:0.35;stroke-miterlimit:10;}
</style>
<g id="_x30_7">
	<line class="st0" x1="260" y1="307.7" x2="187.9" y2="379.8"/>
	<line class="st0" x1="190.9" y1="464.7" x2="183.5" y2="464.7"/>
	<line class="st0" x1="190.9" y1="466.9" x2="183.5" y2="466.9"/>
	<line class="st0" x1="190.9" y1="469.1" x2="183.5" y2="469.1"/>
	<line class="st0" x1="190.9" y1="471.3" x2="183.5" y2="471.3"/>
	<line class="st0" x1="190.9" y1="473.5" x2="183.5" y2="473.5"/>
	<g>
		<circle cx="-34.8" cy="453.9" r="0.4"/>
		<circle cx="-34.8" cy="448.8" r="0.4"/>
		<circle cx="-34.8" cy="443.7" r="0.4"/>
		<circle cx="-34.8" cy="438.7" r="0.4"/>
		<circle cx="-34.8" cy="433.6" r="0.4"/>
		<circle cx="-34.8" cy="428.5" r="0.4"/>
		<circle cx="-34.8" cy="423.4" r="0.4"/>
		<circle cx="-34.8" cy="418.3" r="0.4"/>
		<circle cx="-34.8" cy="413.2" r="0.4"/>
		<circle cx="-34.8" cy="408.1" r="0.4"/>
		<circle cx="-34.8" cy="403" r="0.4"/>
		<circle cx="-34.8" cy="398" r="0.4"/>
		<circle cx="-34.8" cy="392.9" r="0.4"/>
		<circle cx="-34.8" cy="387.8" r="0.4"/>
		<circle cx="-29.7" cy="453.9" r="0.4"/>
		<circle cx="-29.7" cy="448.8" r="0.4"/>
		<circle cx="-29.7" cy="443.7" r="0.4"/>
		<circle cx="-29.7" cy="438.7" r="0.4"/>
		<circle cx="-29.7" cy="433.6" r="0.4"/>
		<circle cx="-29.7" cy="428.5" r="0.4"/>
		<circle cx="-29.7" cy="423.4" r="0.4"/>
		<circle cx="-29.7" cy="418.3" r="0.4"/>
		<circle cx="-29.7" cy="413.2" r="0.4"/>
		<circle cx="-29.7" cy="408.1" r="0.4"/>
		<circle cx="-29.7" cy="403" r="0.4"/>
		<circle cx="-29.7" cy="398" r="0.4"/>
		<circle cx="-29.7" cy="392.9" r="0.4"/>
		<circle cx="-29.7" cy="387.8" r="0.4"/>
		<circle cx="-24.6" cy="453.9" r="0.4"/>
		<circle cx="-24.6" cy="448.8" r="0.4"/>
		<circle cx="-24.6" cy="443.7" r="0.4"/>
		<circle cx="-24.6" cy="438.7" r="0.4"/>
		<circle cx="-24.6" cy="433.6" r="0.4"/>
		<circle cx="-24.6" cy="428.5" r="0.4"/>
		<circle cx="-24.6" cy="423.4" r="0.4"/>
		<circle cx="-24.6" cy="418.3" r="0.4"/>
		<circle cx="-24.6" cy="413.2" r="0.4"/>
		<circle cx="-24.6" cy="408.1" r="0.4"/>
		<circle cx="-24.6" cy="403" r="0.4"/>
		<circle cx="-24.6" cy="398" r="0.4"/>
		<circle cx="-24.6" cy="392.9" r="0.4"/>
		<circle cx="-24.6" cy="387.8" r="0.4"/>
		<circle cx="-19.5" cy="453.9" r="0.4"/>
		<circle cx="-19.5" cy="448.8" r="0.4"/>
		<circle cx="-19.5" cy="443.7" r="0.4"/>
		<circle cx="-19.5" cy="438.7" r="0.4"/>
		<circle cx="-19.5" cy="433.6" r="0.4"/>
		<circle cx="-19.5" cy="428.5" r="0.4"/>
		<circle cx="-19.5" cy="423.4" r="0.4"/>
		<circle cx="-19.5" cy="418.3" r="0.4"/>
		<circle cx="-19.5" cy="413.2" r="0.4"/>
		<circle cx="-19.5" cy="408.1" r="0.4"/>
		<circle cx="-19.5" cy="403" r="0.4"/>
		<circle cx="-19.5" cy="398" r="0.4"/>
		<circle cx="-19.5" cy="392.9" r="0.4"/>
		<circle cx="-19.5" cy="387.8" r="0.4"/>
		<circle cx="-55.4" cy="453.9" r="0.4"/>
		<circle cx="-55.4" cy="448.8" r="0.4"/>
		<circle cx="-55.4" cy="443.7" r="0.4"/>
		<circle cx="-55.4" cy="438.7" r="0.4"/>
		<circle cx="-55.4" cy="433.6" r="0.4"/>
		<circle cx="-55.4" cy="428.5" r="0.4"/>
		<circle cx="-55.4" cy="423.4" r="0.4"/>
		<circle cx="-55.4" cy="418.3" r="0.4"/>
		<circle cx="-55.4" cy="413.2" r="0.4"/>
		<circle cx="-55.4" cy="408.1" r="0.4"/>
		<circle cx="-55.4" cy="403" r="0.4"/>
		<circle cx="-55.4" cy="398" r="0.4"/>
		<circle cx="-55.4" cy="392.9" r="0.4"/>
		<circle cx="-55.4" cy="387.8" r="0.4"/>
		<circle cx="-50.3" cy="453.9" r="0.4"/>
		<circle cx="-50.3" cy="448.8" r="0.4"/>
		<circle cx="-50.3" cy="443.7" r="0.4"/>
		<circle cx="-50.3" cy="438.7" r="0.4"/>
		<circle cx="-50.3" cy="433.6" r="0.4"/>
		<circle cx="-50.3" cy="428.5" r="0.4"/>
		<circle cx="-50.3" cy="423.4" r="0.4"/>
		<circle cx="-50.3" cy="418.3" r="0.4"/>
		<circle cx="-50.3" cy="413.2" r="0.4"/>
		<circle cx="-50.3" cy="408.1" r="0.4"/>
		<circle cx="-50.3" cy="403" r="0.4"/>
		<circle cx="-50.3" cy="398" r="0.4"/>
		<circle cx="-50.3" cy="392.9" r="0.4"/>
		<circle cx="-50.3" cy="387.8" r="0.4"/>
		<circle cx="-45.2" cy="453.9" r="0.4"/>
		<circle cx="-45.2" cy="448.8" r="0.4"/>
		<circle cx="-45.2" cy="443.7" r="0.4"/>
		<circle cx="-45.2" cy="438.7" r="0.4"/>
		<circle cx="-45.2" cy="433.6" r="0.4"/>
		<circle cx="-45.2" cy="428.5" r="0.4"/>
		<circle cx="-45.2" cy="423.4" r="0.4"/>
		<circle cx="-45.2" cy="418.3" r="0.4"/>
		<circle cx="-45.2" cy="413.2" r="0.4"/>
		<circle cx="-45.2" cy="408.1" r="0.4"/>
		<circle cx="-45.2" cy="403" r="0.4"/>
		<circle cx="-45.2" cy="398" r="0.4"/>
		<circle cx="-45.2" cy="392.9" r="0.4"/>
		<circle cx="-45.2" cy="387.8" r="0.4"/>
		<circle cx="-40.1" cy="453.9" r="0.4"/>
		<circle cx="-40.1" cy="448.8" r="0.4"/>
		<circle cx="-40.1" cy="443.7" r="0.4"/>
		<circle cx="-40.1" cy="438.7" r="0.4"/>
		<circle cx="-40.1" cy="433.6" r="0.4"/>
		<circle cx="-40.1" cy="428.5" r="0.4"/>
		<circle cx="-40.1" cy="423.4" r="0.4"/>
		<circle cx="-40.1" cy="418.3" r="0.4"/>
		<circle cx="-40.1" cy="413.2" r="0.4"/>
		<circle cx="-40.1" cy="408.1" r="0.4"/>
		<circle cx="-40.1" cy="403" r="0.4"/>
		<circle cx="-40.1" cy="398" r="0.4"/>
		<circle cx="-40.1" cy="392.9" r="0.4"/>
		<circle cx="-40.1" cy="387.8" r="0.4"/>
		<circle cx="-75.9" cy="453.9" r="0.4"/>
		<circle cx="-75.9" cy="448.8" r="0.4"/>
		<circle cx="-75.9" cy="443.7" r="0.4"/>
		<circle cx="-75.9" cy="438.7" r="0.4"/>
		<circle cx="-75.9" cy="433.6" r="0.4"/>
		<circle cx="-75.9" cy="428.5" r="0.4"/>
		<circle cx="-75.9" cy="423.4" r="0.4"/>
		<circle cx="-75.9" cy="418.3" r="0.4"/>
		<circle cx="-75.9" cy="413.2" r="0.4"/>
		<circle cx="-75.9" cy="408.1" r="0.4"/>
		<circle cx="-75.9" cy="403" r="0.4"/>
		<circle cx="-75.9" cy="398" r="0.4"/>
		<circle cx="-70.8" cy="453.9" r="0.4"/>
		<circle cx="-70.8" cy="448.8" r="0.4"/>
		<circle cx="-70.8" cy="443.7" r="0.4"/>
		<circle cx="-70.8" cy="438.7" r="0.4"/>
		<circle cx="-70.8" cy="433.6" r="0.4"/>
		<circle cx="-70.8" cy="428.5" r="0.4"/>
		<circle cx="-70.8" cy="423.4" r="0.4"/>
		<circle cx="-70.8" cy="418.3" r="0.4"/>
		<circle cx="-70.8" cy="413.2" r="0.4"/>
		<circle cx="-70.8" cy="408.1" r="0.4"/>
		<circle cx="-70.8" cy="403" r="0.4"/>
		<circle cx="-70.8" cy="398" r="0.4"/>
		<circle cx="-65.8" cy="453.9" r="0.4"/>
		<circle cx="-65.8" cy="448.8" r="0.4"/>
		<circle cx="-65.8" cy="443.7" r="0.4"/>
		<circle cx="-65.8" cy="438.7" r="0.4"/>
		<circle cx="-65.8" cy="433.6" r="0.4"/>
		<circle cx="-65.8" cy="428.5" r="0.4"/>
		<circle cx="-65.8" cy="423.4" r="0.4"/>
		<circle cx="-65.8" cy="418.3" r="0.4"/>
		<circle cx="-65.8" cy="413.2" r="0.4"/>
		<circle cx="-65.8" cy="408.1" r="0.4"/>
		<circle cx="-65.8" cy="403" r="0.4"/>
		<circle cx="-65.8" cy="398" r="0.4"/>
		<circle cx="-60.7" cy="453.9" r="0.4"/>
		<circle cx="-60.7" cy="448.8" r="0.4"/>
		<circle cx="-60.7" cy="443.7" r="0.4"/>
		<circle cx="-60.7" cy="438.7" r="0.4"/>
		<circle cx="-60.7" cy="433.6" r="0.4"/>
		<circle cx="-60.7" cy="428.5" r="0.4"/>
		<circle cx="-60.7" cy="423.4" r="0.4"/>
		<circle cx="-60.7" cy="418.3" r="0.4"/>
		<circle cx="-60.7" cy="413.2" r="0.4"/>
		<circle cx="-60.7" cy="408.1" r="0.4"/>
		<circle cx="-60.7" cy="403" r="0.4"/>
		<circle cx="-60.7" cy="398" r="0.4"/>
		<circle cx="-91.4" cy="453.9" r="0.4"/>
		<circle cx="-91.4" cy="448.8" r="0.4"/>
		<circle cx="-91.4" cy="443.7" r="0.4"/>
		<circle cx="-91.4" cy="438.7" r="0.4"/>
		<circle cx="-91.4" cy="433.6" r="0.4"/>
		<circle cx="-91.4" cy="428.5" r="0.4"/>
		<circle cx="-91.4" cy="423.4" r="0.4"/>
		<circle cx="-91.4" cy="418.3" r="0.4"/>
		<circle cx="-86.3" cy="453.9" r="0.4"/>
		<circle cx="-86.3" cy="448.8" r="0.4"/>
		<circle cx="-86.3" cy="443.7" r="0.4"/>
		<circle cx="-86.3" cy="438.7" r="0.4"/>
		<circle cx="-86.3" cy="433.6" r="0.4"/>
		<circle cx="-86.3" cy="428.5" r="0.4"/>
		<circle cx="-86.3" cy="423.4" r="0.4"/>
		<circle cx="-86.3" cy="418.3" r="0.4"/>
		<circle cx="-81.2" cy="453.9" r="0.4"/>
		<circle cx="-81.2" cy="448.8" r="0.4"/>
		<circle cx="-81.2" cy="443.7" r="0.4"/>
		<circle cx="-81.2" cy="438.7" r="0.4"/>
		<circle cx="-81.2" cy="433.6" r="0.4"/>
		<circle cx="-81.2" cy="428.5" r="0.4"/>
		<circle cx="-81.2" cy="423.4" r="0.4"/>
		<circle cx="-81.2" cy="418.3" r="0.4"/>
		<circle cx="-14.4" cy="453.9" r="0.4"/>
		<circle cx="-14.4" cy="448.8" r="0.4"/>
		<circle cx="-14.4" cy="443.7" r="0.4"/>
		<circle cx="-14.4" cy="438.7" r="0.4"/>
		<circle cx="-14.4" cy="433.6" r="0.4"/>
		<circle cx="-14.4" cy="428.5" r="0.4"/>
		<circle cx="-14.4" cy="423.4" r="0.4"/>
		<circle cx="-14.4" cy="418.3" r="0.4"/>
		<circle cx="-14.4" cy="413.2" r="0.4"/>
		<circle cx="-14.4" cy="408.1" r="0.4"/>
		<circle cx="-14.4" cy="403" r="0.4"/>
		<circle cx="-14.4" cy="398" r="0.4"/>
		<circle cx="-14.4" cy="392.9" r="0.4"/>
		<circle cx="-14.4" cy="387.8" r="0.4"/>
		<circle cx="-9.3" cy="453.9" r="0.4"/>
		<circle cx="-9.3" cy="448.8" r="0.4"/>
		<circle cx="-9.3" cy="443.7" r="0.4"/>
		<circle cx="-9.3" cy="438.7" r="0.4"/>
		<circle cx="-9.3" cy="433.6" r="0.4"/>
		<circle cx="-9.3" cy="428.5" r="0.4"/>
		<circle cx="-9.3" cy="423.4" r="0.4"/>
		<circle cx="-9.3" cy="418.3" r="0.4"/>
		<circle cx="-9.3" cy="413.2" r="0.4"/>
		<circle cx="-9.3" cy="408.1" r="0.4"/>
		<circle cx="-9.3" cy="403" r="0.4"/>
		<circle cx="-9.3" cy="398" r="0.4"/>
		<circle cx="-9.3" cy="392.9" r="0.4"/>
		<circle cx="-9.3" cy="387.8" r="0.4"/>
		<circle cx="-4.2" cy="453.9" r="0.4"/>
		<circle cx="-4.2" cy="448.8" r="0.4"/>
		<circle cx="-4.2" cy="443.7" r="0.4"/>
		<circle cx="-4.2" cy="438.7" r="0.4"/>
		<circle cx="-4.2" cy="433.6" r="0.4"/>
		<circle cx="-4.2" cy="428.5" r="0.4"/>
		<circle cx="-4.2" cy="423.4" r="0.4"/>
		<circle cx="-4.2" cy="418.3" r="0.4"/>
		<circle cx="-4.2" cy="413.2" r="0.4"/>
		<circle cx="-4.2" cy="408.1" r="0.4"/>
		<circle cx="-4.2" cy="403" r="0.4"/>
		<circle cx="-4.2" cy="398" r="0.4"/>
		<circle cx="-4.2" cy="392.9" r="0.4"/>
		<circle cx="-4.2" cy="387.8" r="0.4"/>
		<circle cx="0.8" cy="453.9" r="0.4"/>
		<circle cx="0.8" cy="448.8" r="0.4"/>
		<circle cx="0.8" cy="443.7" r="0.4"/>
		<circle cx="0.8" cy="438.7" r="0.4"/>
		<circle cx="0.8" cy="433.6" r="0.4"/>
		<circle cx="0.8" cy="428.5" r="0.4"/>
		<circle cx="0.8" cy="423.4" r="0.4"/>
		<circle cx="0.8" cy="418.3" r="0.4"/>
		<circle cx="0.8" cy="413.2" r="0.4"/>
		<circle cx="0.8" cy="408.1" r="0.4"/>
		<circle cx="0.8" cy="403" r="0.4"/>
		<circle cx="0.8" cy="398" r="0.4"/>
		<circle cx="0.8" cy="392.9" r="0.4"/>
		<circle cx="0.8" cy="387.8" r="0.4"/>
		<circle cx="5.9" cy="453.9" r="0.4"/>
		<circle cx="5.9" cy="448.8" r="0.4"/>
		<circle cx="5.9" cy="443.7" r="0.4"/>
		<circle cx="5.9" cy="438.7" r="0.4"/>
		<circle cx="5.9" cy="433.6" r="0.4"/>
		<circle cx="5.9" cy="428.5" r="0.4"/>
		<circle cx="5.9" cy="423.4" r="0.4"/>
		<circle cx="5.9" cy="418.3" r="0.4"/>
		<circle cx="5.9" cy="413.2" r="0.4"/>
		<circle cx="5.9" cy="408.1" r="0.4"/>
		<circle cx="5.9" cy="403" r="0.4"/>
		<circle cx="5.9" cy="398" r="0.4"/>
		<circle cx="5.9" cy="392.9" r="0.4"/>
		<circle cx="5.9" cy="387.8" r="0.4"/>
		<circle cx="11" cy="453.9" r="0.4"/>
		<circle cx="11" cy="448.8" r="0.4"/>
		<circle cx="11" cy="443.7" r="0.4"/>
		<circle cx="11" cy="438.7" r="0.4"/>
		<circle cx="11" cy="433.6" r="0.4"/>
		<circle cx="11" cy="428.5" r="0.4"/>
		<circle cx="11" cy="423.4" r="0.4"/>
		<circle cx="11" cy="418.3" r="0.4"/>
		<circle cx="11" cy="413.2" r="0.4"/>
		<circle cx="11" cy="408.1" r="0.4"/>
		<circle cx="11" cy="403" r="0.4"/>
		<circle cx="11" cy="398" r="0.4"/>
		<circle cx="11" cy="392.9" r="0.4"/>
		<circle cx="11" cy="387.8" r="0.4"/>
		<circle cx="16.1" cy="453.9" r="0.4"/>
		<circle cx="16.1" cy="448.8" r="0.4"/>
		<circle cx="16.1" cy="443.7" r="0.4"/>
		<circle cx="16.1" cy="438.7" r="0.4"/>
		<circle cx="16.1" cy="433.6" r="0.4"/>
		<circle cx="16.1" cy="428.5" r="0.4"/>
		<circle cx="16.1" cy="423.4" r="0.4"/>
		<circle cx="16.1" cy="418.3" r="0.4"/>
		<circle cx="16.1" cy="413.2" r="0.4"/>
		<circle cx="16.1" cy="408.1" r="0.4"/>
		<circle cx="16.1" cy="403" r="0.4"/>
		<circle cx="16.1" cy="398" r="0.4"/>
		<circle cx="16.1" cy="392.9" r="0.4"/>
		<circle cx="16.1" cy="387.8" r="0.4"/>
		<circle cx="21.2" cy="453.9" r="0.4"/>
		<circle cx="21.2" cy="448.8" r="0.4"/>
		<circle cx="21.2" cy="443.7" r="0.4"/>
		<circle cx="21.2" cy="438.7" r="0.4"/>
		<circle cx="21.2" cy="433.6" r="0.4"/>
		<circle cx="21.2" cy="428.5" r="0.4"/>
		<circle cx="21.2" cy="423.4" r="0.4"/>
		<circle cx="21.2" cy="418.3" r="0.4"/>
		<circle cx="21.2" cy="413.2" r="0.4"/>
		<circle cx="21.2" cy="408.1" r="0.4"/>
		<circle cx="21.2" cy="403" r="0.4"/>
		<circle cx="21.2" cy="398" r="0.4"/>
		<circle cx="21.2" cy="392.9" r="0.4"/>
		<circle cx="21.2" cy="387.8" r="0.4"/>
		<circle cx="26.3" cy="453.9" r="0.4"/>
		<circle cx="26.3" cy="448.8" r="0.4"/>
		<circle cx="26.3" cy="443.7" r="0.4"/>
		<circle cx="26.3" cy="438.7" r="0.4"/>
		<circle cx="26.3" cy="433.6" r="0.4"/>
		<circle cx="26.3" cy="428.5" r="0.4"/>
		<circle cx="26.3" cy="423.4" r="0.4"/>
		<circle cx="26.3" cy="418.3" r="0.4"/>
		<circle cx="26.3" cy="413.2" r="0.4"/>
		<circle cx="26.3" cy="408.1" r="0.4"/>
		<circle cx="26.3" cy="403" r="0.4"/>
		<circle cx="26.3" cy="398" r="0.4"/>
		<circle cx="26.3" cy="392.9" r="0.4"/>
		<circle cx="26.3" cy="387.8" r="0.4"/>
		<circle cx="31.4" cy="453.9" r="0.4"/>
		<circle cx="31.4" cy="448.8" r="0.4"/>
		<circle cx="31.4" cy="443.7" r="0.4"/>
		<circle cx="31.4" cy="438.7" r="0.4"/>
		<circle cx="31.4" cy="433.6" r="0.4"/>
		<circle cx="31.4" cy="428.5" r="0.4"/>
		<circle cx="31.4" cy="423.4" r="0.4"/>
		<circle cx="31.4" cy="418.3" r="0.4"/>
		<circle cx="31.4" cy="413.2" r="0.4"/>
		<circle cx="31.4" cy="408.1" r="0.4"/>
		<circle cx="31.4" cy="403" r="0.4"/>
		<circle cx="31.4" cy="398" r="0.4"/>
		<circle cx="31.4" cy="392.9" r="0.4"/>
		<circle cx="31.4" cy="387.8" r="0.4"/>
		<circle cx="36.5" cy="453.9" r="0.4"/>
		<circle cx="36.5" cy="448.8" r="0.4"/>
		<circle cx="36.5" cy="443.7" r="0.4"/>
		<circle cx="36.5" cy="438.7" r="0.4"/>
		<circle cx="36.5" cy="433.6" r="0.4"/>
		<circle cx="36.5" cy="428.5" r="0.4"/>
		<circle cx="36.5" cy="423.4" r="0.4"/>
		<circle cx="36.5" cy="418.3" r="0.4"/>
		<circle cx="36.5" cy="413.2" r="0.4"/>
		<circle cx="36.5" cy="408.1" r="0.4"/>
		<circle cx="36.5" cy="403" r="0.4"/>
		<circle cx="36.5" cy="398" r="0.4"/>
		<circle cx="36.5" cy="392.9" r="0.4"/>
		<circle cx="36.5" cy="387.8" r="0.4"/>
		<circle cx="41.6" cy="453.9" r="0.4"/>
		<circle cx="41.6" cy="448.8" r="0.4"/>
		<circle cx="41.6" cy="443.7" r="0.4"/>
		<circle cx="41.6" cy="438.7" r="0.4"/>
		<circle cx="41.6" cy="433.6" r="0.4"/>
		<circle cx="41.6" cy="428.5" r="0.4"/>
		<circle cx="41.6" cy="423.4" r="0.4"/>
		<circle cx="41.6" cy="418.3" r="0.4"/>
		<circle cx="41.6" cy="413.2" r="0.4"/>
		<circle cx="41.6" cy="408.1" r="0.4"/>
		<circle cx="41.6" cy="403" r="0.4"/>
		<circle cx="41.6" cy="398" r="0.4"/>
		<circle cx="41.6" cy="392.9" r="0.4"/>
		<circle cx="41.6" cy="387.8" r="0.4"/>
		<circle cx="46.7" cy="453.9" r="0.4"/>
		<circle cx="46.7" cy="448.8" r="0.4"/>
		<circle cx="46.7" cy="443.7" r="0.4"/>
		<circle cx="46.7" cy="438.7" r="0.4"/>
		<circle cx="46.7" cy="433.6" r="0.4"/>
		<circle cx="46.7" cy="428.5" r="0.4"/>
		<circle cx="46.7" cy="423.4" r="0.4"/>
		<circle cx="46.7" cy="418.3" r="0.4"/>
		<circle cx="46.7" cy="413.2" r="0.4"/>
		<circle cx="46.7" cy="408.1" r="0.4"/>
		<circle cx="46.7" cy="403" r="0.4"/>
		<circle cx="46.7" cy="398" r="0.4"/>
		<circle cx="46.7" cy="392.9" r="0.4"/>
		<circle cx="46.7" cy="387.8" r="0.4"/>
		<circle cx="51.7" cy="453.9" r="0.4"/>
		<circle cx="51.7" cy="448.8" r="0.4"/>
		<circle cx="51.7" cy="443.7" r="0.4"/>
		<circle cx="51.7" cy="438.7" r="0.4"/>
		<circle cx="51.7" cy="433.6" r="0.4"/>
		<circle cx="51.7" cy="428.5" r="0.4"/>
		<circle cx="51.7" cy="423.4" r="0.4"/>
		<circle cx="51.7" cy="418.3" r="0.4"/>
		<circle cx="51.7" cy="413.2" r="0.4"/>
		<circle cx="51.7" cy="408.1" r="0.4"/>
		<circle cx="51.7" cy="403" r="0.4"/>
		<circle cx="51.7" cy="398" r="0.4"/>
		<circle cx="51.7" cy="392.9" r="0.4"/>
		<circle cx="51.7" cy="387.8" r="0.4"/>
		<circle cx="56.8" cy="453.9" r="0.4"/>
		<circle cx="56.8" cy="448.8" r="0.4"/>
		<circle cx="56.8" cy="443.7" r="0.4"/>
		<circle cx="56.8" cy="438.7" r="0.4"/>
		<circle cx="56.8" cy="433.6" r="0.4"/>
		<circle cx="56.8" cy="428.5" r="0.4"/>
		<circle cx="56.8" cy="423.4" r="0.4"/>
		<circle cx="56.8" cy="418.3" r="0.4"/>
		<circle cx="56.8" cy="413.2" r="0.4"/>
		<circle cx="56.8" cy="408.1" r="0.4"/>
		<circle cx="56.8" cy="403" r="0.4"/>
		<circle cx="56.8" cy="398" r="0.4"/>
		<circle cx="56.8" cy="392.9" r="0.4"/>
		<circle cx="56.8" cy="387.8" r="0.4"/>
		<circle cx="61.9" cy="453.9" r="0.4"/>
		<circle cx="61.9" cy="448.8" r="0.4"/>
		<circle cx="61.9" cy="443.7" r="0.4"/>
		<circle cx="61.9" cy="438.7" r="0.4"/>
		<circle cx="61.9" cy="433.6" r="0.4"/>
		<circle cx="61.9" cy="428.5" r="0.4"/>
		<circle cx="61.9" cy="423.4" r="0.4"/>
		<circle cx="61.9" cy="418.3" r="0.4"/>
		<circle cx="61.9" cy="413.2" r="0.4"/>
		<circle cx="61.9" cy="408.1" r="0.4"/>
		<circle cx="61.9" cy="403" r="0.4"/>
		<circle cx="61.9" cy="398" r="0.4"/>
		<circle cx="61.9" cy="392.9" r="0.4"/>
		<circle cx="61.9" cy="387.8" r="0.4"/>
		<circle cx="67" cy="453.9" r="0.4"/>
		<circle cx="67" cy="448.8" r="0.4"/>
		<circle cx="67" cy="443.7" r="0.4"/>
		<circle cx="67" cy="438.7" r="0.4"/>
		<circle cx="67" cy="433.6" r="0.4"/>
		<circle cx="67" cy="428.5" r="0.4"/>
		<circle cx="67" cy="423.4" r="0.4"/>
		<circle cx="67" cy="418.3" r="0.4"/>
		<circle cx="67" cy="413.2" r="0.4"/>
		<circle cx="67" cy="408.1" r="0.4"/>
		<circle cx="67" cy="403" r="0.4"/>
		<circle cx="67" cy="398" r="0.4"/>
		<circle cx="67" cy="392.9" r="0.4"/>
		<circle cx="67" cy="387.8" r="0.4"/>
		<circle cx="72.1" cy="453.9" r="0.4"/>
		<circle cx="72.1" cy="448.8" r="0.4"/>
		<circle cx="72.1" cy="443.7" r="0.4"/>
		<circle cx="72.1" cy="438.7" r="0.4"/>
		<circle cx="72.1" cy="433.6" r="0.4"/>
		<circle cx="72.1" cy="428.5" r="0.4"/>
		<circle cx="72.1" cy="423.4" r="0.4"/>
		<circle cx="72.1" cy="418.3" r="0.4"/>
		<circle cx="72.1" cy="413.2" r="0.4"/>
		<circle cx="72.1" cy="408.1" r="0.4"/>
		<circle cx="72.1" cy="403" r="0.4"/>
		<circle cx="72.1" cy="398" r="0.4"/>
		<circle cx="72.1" cy="392.9" r="0.4"/>
		<circle cx="72.1" cy="387.8" r="0.4"/>
		<circle cx="77.2" cy="453.9" r="0.4"/>
		<circle cx="77.2" cy="448.8" r="0.4"/>
		<circle cx="77.2" cy="443.7" r="0.4"/>
		<circle cx="77.2" cy="438.7" r="0.4"/>
		<circle cx="77.2" cy="433.6" r="0.4"/>
		<circle cx="77.2" cy="428.5" r="0.4"/>
		<circle cx="77.2" cy="423.4" r="0.4"/>
		<circle cx="77.2" cy="418.3" r="0.4"/>
		<circle cx="77.2" cy="413.2" r="0.4"/>
		<circle cx="77.2" cy="408.1" r="0.4"/>
		<circle cx="77.2" cy="403" r="0.4"/>
		<circle cx="77.2" cy="398" r="0.4"/>
		<circle cx="77.2" cy="392.9" r="0.4"/>
		<circle cx="77.2" cy="387.8" r="0.4"/>
		<circle cx="82.3" cy="453.9" r="0.4"/>
		<circle cx="82.3" cy="448.8" r="0.4"/>
		<circle cx="82.3" cy="443.7" r="0.4"/>
		<circle cx="82.3" cy="438.7" r="0.4"/>
		<circle cx="82.3" cy="433.6" r="0.4"/>
		<circle cx="82.3" cy="428.5" r="0.4"/>
		<circle cx="82.3" cy="423.4" r="0.4"/>
		<circle cx="82.3" cy="418.3" r="0.4"/>
		<circle cx="82.3" cy="413.2" r="0.4"/>
		<circle cx="82.3" cy="408.1" r="0.4"/>
		<circle cx="82.3" cy="403" r="0.4"/>
		<circle cx="82.3" cy="398" r="0.4"/>
		<circle cx="82.3" cy="392.9" r="0.4"/>
		<circle cx="82.3" cy="387.8" r="0.4"/>
		<circle cx="87.4" cy="453.9" r="0.4"/>
		<circle cx="87.4" cy="448.8" r="0.4"/>
		<circle cx="87.4" cy="443.7" r="0.4"/>
		<circle cx="87.4" cy="438.7" r="0.4"/>
		<circle cx="87.4" cy="433.6" r="0.4"/>
		<circle cx="87.4" cy="428.5" r="0.4"/>
		<circle cx="87.4" cy="423.4" r="0.4"/>
		<circle cx="87.4" cy="418.3" r="0.4"/>
		<circle cx="87.4" cy="413.2" r="0.4"/>
		<circle cx="87.4" cy="408.1" r="0.4"/>
		<circle cx="87.4" cy="403" r="0.4"/>
		<circle cx="87.4" cy="398" r="0.4"/>
		<circle cx="87.4" cy="392.9" r="0.4"/>
		<circle cx="87.4" cy="387.8" r="0.4"/>
		<circle cx="92.5" cy="453.9" r="0.4"/>
		<circle cx="92.5" cy="448.8" r="0.4"/>
		<circle cx="92.5" cy="443.7" r="0.4"/>
		<circle cx="92.5" cy="438.7" r="0.4"/>
		<circle cx="92.5" cy="433.6" r="0.4"/>
		<circle cx="92.5" cy="428.5" r="0.4"/>
		<circle cx="92.5" cy="423.4" r="0.4"/>
		<circle cx="92.5" cy="418.3" r="0.4"/>
		<circle cx="92.5" cy="413.2" r="0.4"/>
		<circle cx="92.5" cy="408.1" r="0.4"/>
		<circle cx="92.5" cy="403" r="0.4"/>
		<circle cx="92.5" cy="398" r="0.4"/>
		<circle cx="92.5" cy="392.9" r="0.4"/>
		<circle cx="92.5" cy="387.8" r="0.4"/>
		<circle cx="97.6" cy="453.9" r="0.4"/>
		<circle cx="97.6" cy="448.8" r="0.4"/>
		<circle cx="97.6" cy="443.7" r="0.4"/>
		<circle cx="97.6" cy="438.7" r="0.4"/>
		<circle cx="97.6" cy="433.6" r="0.4"/>
		<circle cx="97.6" cy="428.5" r="0.4"/>
		<circle cx="97.6" cy="423.4" r="0.4"/>
		<circle cx="97.6" cy="418.3" r="0.4"/>
		<circle cx="97.6" cy="413.2" r="0.4"/>
		<circle cx="97.6" cy="408.1" r="0.4"/>
		<circle cx="97.6" cy="403" r="0.4"/>
		<circle cx="97.6" cy="398" r="0.4"/>
		<circle cx="97.6" cy="392.9" r="0.4"/>
		<circle cx="97.6" cy="387.8" r="0.4"/>
		<circle cx="102.6" cy="453.9" r="0.4"/>
		<circle cx="102.6" cy="448.8" r="0.4"/>
		<circle cx="102.6" cy="443.7" r="0.4"/>
		<circle cx="102.6" cy="438.7" r="0.4"/>
		<circle cx="102.6" cy="433.6" r="0.4"/>
		<circle cx="102.6" cy="428.5" r="0.4"/>
		<circle cx="102.6" cy="423.4" r="0.4"/>
		<circle cx="102.6" cy="418.3" r="0.4"/>
		<circle cx="102.6" cy="413.2" r="0.4"/>
		<circle cx="102.6" cy="408.1" r="0.4"/>
		<circle cx="102.6" cy="403" r="0.4"/>
		<circle cx="102.6" cy="398" r="0.4"/>
		<circle cx="102.6" cy="392.9" r="0.4"/>
		<circle cx="102.6" cy="387.8" r="0.4"/>
		<circle cx="107.7" cy="453.9" r="0.4"/>
		<circle cx="107.7" cy="448.8" r="0.4"/>
		<circle cx="107.7" cy="443.7" r="0.4"/>
		<circle cx="107.7" cy="438.7" r="0.4"/>
		<circle cx="107.7" cy="433.6" r="0.4"/>
		<circle cx="107.7" cy="428.5" r="0.4"/>
		<circle cx="107.7" cy="423.4" r="0.4"/>
		<circle cx="107.7" cy="418.3" r="0.4"/>
		<circle cx="107.7" cy="413.2" r="0.4"/>
		<circle cx="107.7" cy="408.1" r="0.4"/>
		<circle cx="107.7" cy="403" r="0.4"/>
		<circle cx="107.7" cy="398" r="0.4"/>
		<circle cx="107.7" cy="392.9" r="0.4"/>
		<circle cx="107.7" cy="387.8" r="0.4"/>
		<circle cx="112.8" cy="453.9" r="0.4"/>
		<circle cx="112.8" cy="448.8" r="0.4"/>
		<circle cx="112.8" cy="443.7" r="0.4"/>
		<circle cx="112.8" cy="438.7" r="0.4"/>
		<circle cx="112.8" cy="433.6" r="0.4"/>
		<circle cx="112.8" cy="428.5" r="0.4"/>
		<circle cx="112.8" cy="423.4" r="0.4"/>
		<circle cx="112.8" cy="418.3" r="0.4"/>
		<circle cx="112.8" cy="413.2" r="0.4"/>
		<circle cx="112.8" cy="408.1" r="0.4"/>
		<circle cx="112.8" cy="403" r="0.4"/>
		<circle cx="112.8" cy="398" r="0.4"/>
		<circle cx="112.8" cy="392.9" r="0.4"/>
		<circle cx="112.8" cy="387.8" r="0.4"/>
		<circle cx="117.9" cy="453.9" r="0.4"/>
		<circle cx="117.9" cy="448.8" r="0.4"/>
		<circle cx="117.9" cy="443.7" r="0.4"/>
		<circle cx="117.9" cy="438.7" r="0.4"/>
		<circle cx="117.9" cy="433.6" r="0.4"/>
		<circle cx="117.9" cy="428.5" r="0.4"/>
		<circle cx="117.9" cy="423.4" r="0.4"/>
		<circle cx="117.9" cy="418.3" r="0.4"/>
		<circle cx="117.9" cy="413.2" r="0.4"/>
		<circle cx="117.9" cy="408.1" r="0.4"/>
		<circle cx="117.9" cy="403" r="0.4"/>
		<circle cx="117.9" cy="398" r="0.4"/>
		<circle cx="117.9" cy="392.9" r="0.4"/>
		<circle cx="117.9" cy="387.8" r="0.4"/>
		<circle cx="123" cy="453.9" r="0.4"/>
		<circle cx="123" cy="448.8" r="0.4"/>
		<circle cx="123" cy="443.7" r="0.4"/>
		<circle cx="123" cy="438.7" r="0.4"/>
		<circle cx="123" cy="433.6" r="0.4"/>
		<circle cx="123" cy="428.5" r="0.4"/>
		<circle cx="123" cy="423.4" r="0.4"/>
		<circle cx="123" cy="418.3" r="0.4"/>
		<circle cx="123" cy="413.2" r="0.4"/>
		<circle cx="123" cy="408.1" r="0.4"/>
		<circle cx="123" cy="403" r="0.4"/>
		<circle cx="123" cy="398" r="0.4"/>
		<circle cx="123" cy="392.9" r="0.4"/>
		<circle cx="123" cy="387.8" r="0.4"/>
		<circle cx="128.1" cy="453.9" r="0.4"/>
		<circle cx="128.1" cy="448.8" r="0.4"/>
		<circle cx="128.1" cy="443.7" r="0.4"/>
		<circle cx="128.1" cy="438.7" r="0.4"/>
		<circle cx="128.1" cy="433.6" r="0.4"/>
		<circle cx="128.1" cy="428.5" r="0.4"/>
		<circle cx="128.1" cy="423.4" r="0.4"/>
		<circle cx="128.1" cy="418.3" r="0.4"/>
		<circle cx="128.1" cy="413.2" r="0.4"/>
		<circle cx="128.1" cy="408.1" r="0.4"/>
		<circle cx="128.1" cy="403" r="0.4"/>
		<circle cx="128.1" cy="398" r="0.4"/>
		<circle cx="128.1" cy="392.9" r="0.4"/>
		<circle cx="128.1" cy="387.8" r="0.4"/>
		<circle cx="133.2" cy="453.9" r="0.4"/>
		<circle cx="133.2" cy="448.8" r="0.4"/>
		<circle cx="133.2" cy="443.7" r="0.4"/>
		<circle cx="133.2" cy="438.7" r="0.4"/>
		<circle cx="133.2" cy="433.6" r="0.4"/>
		<circle cx="133.2" cy="428.5" r="0.4"/>
		<circle cx="133.2" cy="423.4" r="0.4"/>
		<circle cx="133.2" cy="418.3" r="0.4"/>
		<circle cx="133.2" cy="413.2" r="0.4"/>
		<circle cx="133.2" cy="408.1" r="0.4"/>
		<circle cx="133.2" cy="403" r="0.4"/>
		<circle cx="133.2" cy="398" r="0.4"/>
		<circle cx="133.2" cy="392.9" r="0.4"/>
		<circle cx="133.2" cy="387.8" r="0.4"/>
		<circle cx="138.3" cy="453.9" r="0.4"/>
		<circle cx="138.3" cy="448.8" r="0.4"/>
		<circle cx="138.3" cy="443.7" r="0.4"/>
		<circle cx="138.3" cy="438.7" r="0.4"/>
		<circle cx="138.3" cy="433.6" r="0.4"/>
		<circle cx="138.3" cy="428.5" r="0.4"/>
		<circle cx="138.3" cy="423.4" r="0.4"/>
		<circle cx="138.3" cy="418.3" r="0.4"/>
		<circle cx="138.3" cy="413.2" r="0.4"/>
		<circle cx="138.3" cy="408.1" r="0.4"/>
		<circle cx="138.3" cy="403" r="0.4"/>
		<circle cx="138.3" cy="398" r="0.4"/>
		<circle cx="138.3" cy="392.9" r="0.4"/>
		<circle cx="138.3" cy="387.8" r="0.4"/>
		<circle cx="143.4" cy="453.9" r="0.4"/>
		<circle cx="143.4" cy="448.8" r="0.4"/>
		<circle cx="143.4" cy="443.7" r="0.4"/>
		<circle cx="143.4" cy="438.7" r="0.4"/>
		<circle cx="143.4" cy="433.6" r="0.4"/>
		<circle cx="143.4" cy="428.5" r="0.4"/>
		<circle cx="143.4" cy="423.4" r="0.4"/>
		<circle cx="143.4" cy="418.3" r="0.4"/>
		<circle cx="143.4" cy="413.2" r="0.4"/>
		<circle cx="143.4" cy="408.1" r="0.4"/>
		<circle cx="143.4" cy="403" r="0.4"/>
		<circle cx="143.4" cy="398" r="0.4"/>
		<circle cx="143.4" cy="392.9" r="0.4"/>
		<circle cx="143.4" cy="387.8" r="0.4"/>
		<circle cx="148.5" cy="453.9" r="0.4"/>
		<circle cx="148.5" cy="448.8" r="0.4"/>
		<circle cx="148.5" cy="443.7" r="0.4"/>
		<circle cx="148.5" cy="438.7" r="0.4"/>
		<circle cx="148.5" cy="433.6" r="0.4"/>
		<circle cx="148.5" cy="428.5" r="0.4"/>
		<circle cx="148.5" cy="423.4" r="0.4"/>
		<circle cx="148.5" cy="418.3" r="0.4"/>
		<circle cx="148.5" cy="413.2" r="0.4"/>
		<circle cx="148.5" cy="408.1" r="0.4"/>
		<circle cx="148.5" cy="403" r="0.4"/>
		<circle cx="148.5" cy="398" r="0.4"/>
		<circle cx="148.5" cy="392.9" r="0.4"/>
		<circle cx="148.5" cy="387.8" r="0.4"/>
		<circle cx="153.5" cy="453.9" r="0.4"/>
		<circle cx="153.5" cy="448.8" r="0.4"/>
		<circle cx="153.5" cy="443.7" r="0.4"/>
		<circle cx="153.5" cy="438.7" r="0.4"/>
		<circle cx="153.5" cy="433.6" r="0.4"/>
		<circle cx="153.5" cy="428.5" r="0.4"/>
		<circle cx="153.5" cy="423.4" r="0.4"/>
		<circle cx="153.5" cy="418.3" r="0.4"/>
		<circle cx="153.5" cy="413.2" r="0.4"/>
		<circle cx="153.5" cy="408.1" r="0.4"/>
		<circle cx="153.5" cy="403" r="0.4"/>
		<circle cx="153.5" cy="398" r="0.4"/>
		<circle cx="153.5" cy="392.9" r="0.4"/>
		<circle cx="153.5" cy="387.8" r="0.4"/>
		<circle cx="158.6" cy="453.9" r="0.4"/>
		<circle cx="158.6" cy="448.8" r="0.4"/>
		<circle cx="158.6" cy="443.7" r="0.4"/>
		<circle cx="158.6" cy="438.7" r="0.4"/>
		<circle cx="158.6" cy="433.6" r="0.4"/>
		<circle cx="158.6" cy="428.5" r="0.4"/>
		<circle cx="158.6" cy="423.4" r="0.4"/>
		<circle cx="158.6" cy="418.3" r="0.4"/>
		<circle cx="158.6" cy="413.2" r="0.4"/>
		<circle cx="158.6" cy="408.1" r="0.4"/>
		<circle cx="158.6" cy="403" r="0.4"/>
		<circle cx="158.6" cy="398" r="0.4"/>
		<circle cx="158.6" cy="392.9" r="0.4"/>
		<circle cx="158.6" cy="387.8" r="0.4"/>
		<circle cx="163.7" cy="453.9" r="0.4"/>
		<circle cx="163.7" cy="448.8" r="0.4"/>
		<circle cx="163.7" cy="443.7" r="0.4"/>
		<circle cx="163.7" cy="438.7" r="0.4"/>
		<circle cx="163.7" cy="433.6" r="0.4"/>
		<circle cx="163.7" cy="428.5" r="0.4"/>
		<circle cx="163.7" cy="423.4" r="0.4"/>
		<circle cx="163.7" cy="418.3" r="0.4"/>
		<circle cx="163.7" cy="413.2" r="0.4"/>
		<circle cx="163.7" cy="408.1" r="0.4"/>
		<circle cx="163.7" cy="403" r="0.4"/>
		<circle cx="163.7" cy="398" r="0.4"/>
		<circle cx="163.7" cy="392.9" r="0.4"/>
		<circle cx="163.7" cy="387.8" r="0.4"/>
		<circle cx="168.8" cy="453.9" r="0.4"/>
		<circle cx="168.8" cy="448.8" r="0.4"/>
		<circle cx="168.8" cy="443.7" r="0.4"/>
		<circle cx="168.8" cy="438.7" r="0.4"/>
		<circle cx="168.8" cy="433.6" r="0.4"/>
		<circle cx="168.8" cy="428.5" r="0.4"/>
		<circle cx="168.8" cy="423.4" r="0.4"/>
		<circle cx="168.8" cy="418.3" r="0.4"/>
		<circle cx="168.8" cy="413.2" r="0.4"/>
		<circle cx="168.8" cy="408.1" r="0.4"/>
		<circle cx="168.8" cy="403" r="0.4"/>
		<circle cx="168.8" cy="398" r="0.4"/>
		<circle cx="168.8" cy="392.9" r="0.4"/>
		<circle cx="168.8" cy="387.8" r="0.4"/>
		<circle cx="173.9" cy="453.9" r="0.4"/>
		<circle cx="173.9" cy="448.8" r="0.4"/>
		<circle cx="173.9" cy="443.7" r="0.4"/>
		<circle cx="173.9" cy="438.7" r="0.4"/>
		<circle cx="173.9" cy="433.6" r="0.4"/>
		<circle cx="173.9" cy="428.5" r="0.4"/>
		<circle cx="173.9" cy="423.4" r="0.4"/>
		<circle cx="173.9" cy="418.3" r="0.4"/>
		<circle cx="173.9" cy="413.2" r="0.4"/>
		<circle cx="173.9" cy="408.1" r="0.4"/>
		<circle cx="173.9" cy="403" r="0.4"/>
		<circle cx="173.9" cy="398" r="0.4"/>
		<circle cx="173.9" cy="392.9" r="0.4"/>
		<circle cx="173.9" cy="387.8" r="0.4"/>
		<circle cx="179" cy="453.9" r="0.4"/>
		<circle cx="179" cy="448.8" r="0.4"/>
		<circle cx="179" cy="443.7" r="0.4"/>
		<circle cx="179" cy="438.7" r="0.4"/>
		<circle cx="179" cy="433.6" r="0.4"/>
		<circle cx="179" cy="428.5" r="0.4"/>
		<circle cx="179" cy="423.4" r="0.4"/>
		<circle cx="179" cy="418.3" r="0.4"/>
		<circle cx="179" cy="413.2" r="0.4"/>
		<circle cx="179" cy="408.1" r="0.4"/>
		<circle cx="179" cy="403" r="0.4"/>
		<circle cx="179" cy="398" r="0.4"/>
		<circle cx="179" cy="392.9" r="0.4"/>
		<circle cx="179" cy="387.8" r="0.4"/>
		<circle cx="184.1" cy="453.9" r="0.4"/>
		<circle cx="184.1" cy="448.8" r="0.4"/>
		<circle cx="184.1" cy="443.7" r="0.4"/>
		<circle cx="184.1" cy="438.7" r="0.4"/>
		<circle cx="184.1" cy="433.6" r="0.4"/>
		<circle cx="184.1" cy="428.5" r="0.4"/>
		<circle cx="184.1" cy="423.4" r="0.4"/>
		<circle cx="184.1" cy="418.3" r="0.4"/>
		<circle cx="184.1" cy="413.2" r="0.4"/>
		<circle cx="184.1" cy="408.1" r="0.4"/>
		<circle cx="184.1" cy="403" r="0.4"/>
		<circle cx="184.1" cy="398" r="0.4"/>
		<circle cx="184.1" cy="392.9" r="0.4"/>
		<circle cx="184.1" cy="387.8" r="0.4"/>
		<circle cx="-14.4" cy="382.7" r="0.4"/>
		<circle cx="-9.3" cy="382.7" r="0.4"/>
		<circle cx="-4.2" cy="382.7" r="0.4"/>
		<circle cx="0.8" cy="382.7" r="0.4"/>
		<circle cx="5.9" cy="382.7" r="0.4"/>
		<circle cx="11" cy="382.7" r="0.4"/>
		<circle cx="16.1" cy="382.7" r="0.4"/>
		<circle cx="21.2" cy="382.7" r="0.4"/>
		<circle cx="26.3" cy="382.7" r="0.4"/>
		<circle cx="31.4" cy="382.7" r="0.4"/>
		<circle cx="36.5" cy="382.7" r="0.4"/>
		<circle cx="41.6" cy="382.7" r="0.4"/>
		<circle cx="46.7" cy="382.7" r="0.4"/>
		<circle cx="51.7" cy="382.7" r="0.4"/>
		<circle cx="56.8" cy="382.7" r="0.4"/>
		<circle cx="61.9" cy="382.7" r="0.4"/>
		<circle cx="67" cy="382.7" r="0.4"/>
		<circle cx="72.1" cy="382.7" r="0.4"/>
		<circle cx="77.2" cy="382.7" r="0.4"/>
		<circle cx="82.3" cy="382.7" r="0.4"/>
		<circle cx="87.4" cy="382.7" r="0.4"/>
		<circle cx="92.5" cy="382.7" r="0.4"/>
		<circle cx="97.6" cy="382.7" r="0.4"/>
		<circle cx="102.6" cy="382.7" r="0.4"/>
		<circle cx="107.7" cy="382.7" r="0.4"/>
		<circle cx="112.8" cy="382.7" r="0.4"/>
		<circle cx="117.9" cy="382.7" r="0.4"/>
		<circle cx="123" cy="382.7" r="0.4"/>
		<circle cx="-14.4" cy="377.6" r="0.4"/>
		<circle cx="-9.3" cy="377.6" r="0.4"/>
		<circle cx="-4.2" cy="377.6" r="0.4"/>
		<circle cx="0.8" cy="377.6" r="0.4"/>
		<circle cx="5.9" cy="377.6" r="0.4"/>
		<circle cx="11" cy="377.6" r="0.4"/>
		<circle cx="16.1" cy="377.6" r="0.4"/>
		<circle cx="21.2" cy="377.6" r="0.4"/>
		<circle cx="26.3" cy="377.6" r="0.4"/>
		<circle cx="31.4" cy="377.6" r="0.4"/>
		<circle cx="36.5" cy="377.6" r="0.4"/>
		<circle cx="41.6" cy="377.6" r="0.4"/>
		<circle cx="46.7" cy="377.6" r="0.4"/>
		<circle cx="51.7" cy="377.6" r="0.4"/>
		<circle cx="56.8" cy="377.6" r="0.4"/>
		<circle cx="61.9" cy="377.6" r="0.4"/>
		<circle cx="67" cy="377.6" r="0.4"/>
		<circle cx="72.1" cy="377.6" r="0.4"/>
		<circle cx="77.2" cy="377.6" r="0.4"/>
		<circle cx="82.3" cy="377.6" r="0.4"/>
		<circle cx="87.4" cy="377.6" r="0.4"/>
		<circle cx="92.5" cy="377.6" r="0.4"/>
		<circle cx="97.6" cy="377.6" r="0.4"/>
		<circle cx="102.6" cy="377.6" r="0.4"/>
		<circle cx="107.7" cy="377.6" r="0.4"/>
		<circle cx="112.8" cy="377.6" r="0.4"/>
		<circle cx="117.9" cy="377.6" r="0.4"/>
		<circle cx="123" cy="377.6" r="0.4"/>
		<circle cx="-14.4" cy="372.5" r="0.4"/>
		<circle cx="-9.3" cy="372.5" r="0.4"/>
		<circle cx="-4.2" cy="372.5" r="0.4"/>
		<circle cx="0.8" cy="372.5" r="0.4"/>
		<circle cx="5.9" cy="372.5" r="0.4"/>
		<circle cx="11" cy="372.5" r="0.4"/>
		<circle cx="16.1" cy="372.5" r="0.4"/>
		<circle cx="21.2" cy="372.5" r="0.4"/>
		<circle cx="26.3" cy="372.5" r="0.4"/>
		<circle cx="31.4" cy="372.5" r="0.4"/>
		<circle cx="36.5" cy="372.5" r="0.4"/>
		<circle cx="41.6" cy="372.5" r="0.4"/>
		<circle cx="46.7" cy="372.5" r="0.4"/>
		<circle cx="51.7" cy="372.5" r="0.4"/>
		<circle cx="56.8" cy="372.5" r="0.4"/>
		<circle cx="61.9" cy="372.5" r="0.4"/>
		<circle cx="67" cy="372.5" r="0.4"/>
		<circle cx="72.1" cy="372.5" r="0.4"/>
		<circle cx="77.2" cy="372.5" r="0.4"/>
		<circle cx="82.3" cy="372.5" r="0.4"/>
		<circle cx="87.4" cy="372.5" r="0.4"/>
		<circle cx="92.5" cy="372.5" r="0.4"/>
		<circle cx="97.6" cy="372.5" r="0.4"/>
		<circle cx="102.6" cy="372.5" r="0.4"/>
		<circle cx="107.7" cy="372.5" r="0.4"/>
		<circle cx="112.8" cy="372.5" r="0.4"/>
		<circle cx="117.9" cy="372.5" r="0.4"/>
		<circle cx="123" cy="372.5" r="0.4"/>
		<circle cx="-14.4" cy="367.4" r="0.4"/>
		<circle cx="-9.3" cy="367.4" r="0.4"/>
		<circle cx="36.5" cy="367.4" r="0.4"/>
		<circle cx="41.6" cy="367.4" r="0.4"/>
		<circle cx="46.7" cy="367.4" r="0.4"/>
		<circle cx="51.7" cy="367.4" r="0.4"/>
		<circle cx="56.8" cy="367.4" r="0.4"/>
		<circle cx="61.9" cy="367.4" r="0.4"/>
		<circle cx="67" cy="367.4" r="0.4"/>
		<circle cx="72.1" cy="367.4" r="0.4"/>
		<circle cx="77.2" cy="367.4" r="0.4"/>
		<circle cx="82.3" cy="367.4" r="0.4"/>
		<circle cx="87.4" cy="367.4" r="0.4"/>
		<circle cx="92.5" cy="367.4" r="0.4"/>
		<circle cx="97.6" cy="367.4" r="0.4"/>
		<circle cx="36.5" cy="362.3" r="0.4"/>
		<circle cx="41.6" cy="362.3" r="0.4"/>
		<circle cx="46.7" cy="362.3" r="0.4"/>
		<circle cx="51.7" cy="362.3" r="0.4"/>
		<circle cx="56.8" cy="362.3" r="0.4"/>
		<circle cx="61.9" cy="362.3" r="0.4"/>
		<circle cx="67" cy="362.3" r="0.4"/>
		<circle cx="72.1" cy="362.3" r="0.4"/>
		<circle cx="77.2" cy="362.3" r="0.4"/>
		<circle cx="82.3" cy="362.3" r="0.4"/>
		<circle cx="87.4" cy="362.3" r="0.4"/>
		<circle cx="92.5" cy="362.3" r="0.4"/>
		<circle cx="97.6" cy="362.3" r="0.4"/>
		<circle cx="36.5" cy="357.2" r="0.4"/>
		<circle cx="41.6" cy="357.2" r="0.4"/>
		<circle cx="46.7" cy="357.2" r="0.4"/>
		<circle cx="51.7" cy="357.2" r="0.4"/>
		<circle cx="56.8" cy="357.2" r="0.4"/>
		<circle cx="61.9" cy="357.2" r="0.4"/>
		<circle cx="67" cy="357.2" r="0.4"/>
		<circle cx="72.1" cy="357.2" r="0.4"/>
		<circle cx="77.2" cy="357.2" r="0.4"/>
		<circle cx="82.3" cy="357.2" r="0.4"/>
		<circle cx="87.4" cy="357.2" r="0.4"/>
		<circle cx="92.5" cy="357.2" r="0.4"/>
		<circle cx="97.6" cy="357.2" r="0.4"/>
	</g>
</g>
</svg>
