<?xml version="1.0" encoding="utf-8"?>
<!-- Generator: Adobe Illustrator 19.1.0, SVG Export Plug-In . SVG Version: 6.00 Build 0)  -->
<svg version="1.1" id="Layer_1" xmlns="http://www.w3.org/2000/svg" xmlns:xlink="http://www.w3.org/1999/xlink" x="0px" y="0px"
	 viewBox="-154 161 302 472" style="enable-background:new -154 161 302 472;" xml:space="preserve">
<style type="text/css">
	.st0{fill:none;stroke:#000000;stroke-width:0.35;stroke-miterlimit:10;}
</style>
<g id="_x30_8">
	<line class="st0" x1="-119.3" y1="338.2" x2="-129.7" y2="338.2"/>
	<g>
		<circle cx="82.4" cy="494.3" r="0.8"/>
		<circle cx="71.5" cy="494.3" r="0.8"/>
		<circle cx="60.6" cy="494.3" r="0.8"/>
		<circle cx="49.8" cy="494.3" r="0.8"/>
		<circle cx="38.9" cy="494.3" r="0.8"/>
		<circle cx="28" cy="494.3" r="0.8"/>
		<circle cx="17.2" cy="494.3" r="0.8"/>
		<path d="M-15.5,495.1"/>
		<circle cx="82.4" cy="483.4" r="0.8"/>
		<circle cx="71.5" cy="483.4" r="0.8"/>
		<circle cx="28" cy="483.4" r="0.8"/>
		<circle cx="17.2" cy="483.4" r="0.8"/>
		<circle cx="82.4" cy="472.6" r="0.8"/>
		<circle cx="71.5" cy="472.6" r="0.8"/>
		<circle cx="82.4" cy="461.7" r="0.8"/>
		<circle cx="71.5" cy="461.7" r="0.8"/>
		<circle cx="82.4" cy="538.3" r="0.8"/>
		<circle cx="71.5" cy="538.3" r="0.8"/>
		<circle cx="60.6" cy="538.3" r="0.8"/>
		<circle cx="49.8" cy="538.3" r="0.8"/>
		<circle cx="38.9" cy="538.3" r="0.8"/>
		<circle cx="28" cy="538.3" r="0.8"/>
		<circle cx="17.2" cy="538.3" r="0.8"/>
		<circle cx="6.3" cy="538.3" r="0.8"/>
		<circle cx="-4.6" cy="538.3" r="0.8"/>
		<circle cx="-15.5" cy="538.3" r="0.8"/>
		<circle cx="82.4" cy="527.4" r="0.8"/>
		<circle cx="71.5" cy="527.4" r="0.8"/>
		<circle cx="60.6" cy="527.4" r="0.8"/>
		<circle cx="49.8" cy="527.4" r="0.8"/>
		<circle cx="38.9" cy="527.4" r="0.8"/>
		<circle cx="28" cy="527.4" r="0.8"/>
		<circle cx="17.2" cy="527.4" r="0.8"/>
		<circle cx="6.3" cy="527.4" r="0.8"/>
		<circle cx="-4.6" cy="527.4" r="0.8"/>
		<circle cx="-15.5" cy="527.4" r="0.8"/>
		<circle cx="82.4" cy="516.5" r="0.8"/>
		<circle cx="71.5" cy="516.5" r="0.8"/>
		<circle cx="60.6" cy="516.5" r="0.8"/>
		<circle cx="49.8" cy="516.5" r="0.8"/>
		<circle cx="38.9" cy="516.5" r="0.8"/>
		<circle cx="28" cy="516.5" r="0.8"/>
		<circle cx="17.2" cy="516.5" r="0.8"/>
		<circle cx="6.3" cy="516.5" r="0.8"/>
		<circle cx="-4.6" cy="516.5" r="0.8"/>
		<circle cx="-15.5" cy="516.5" r="0.8"/>
		<circle cx="82.4" cy="505.6" r="0.8"/>
		<circle cx="71.5" cy="505.6" r="0.8"/>
		<circle cx="60.6" cy="505.6" r="0.8"/>
		<circle cx="49.8" cy="505.6" r="0.8"/>
		<circle cx="38.9" cy="505.6" r="0.8"/>
		<circle cx="28" cy="505.6" r="0.8"/>
		<circle cx="17.2" cy="505.6" r="0.8"/>
		<circle cx="6.3" cy="505.6" r="0.8"/>
		<circle cx="-4.6" cy="505.6" r="0.8"/>
		<circle cx="-15.5" cy="505.6" r="0.8"/>
		<circle cx="82.4" cy="582.2" r="0.8"/>
		<circle cx="71.5" cy="582.2" r="0.8"/>
		<circle cx="60.6" cy="582.2" r="0.8"/>
		<circle cx="49.8" cy="582.2" r="0.8"/>
		<circle cx="38.9" cy="582.2" r="0.8"/>
		<circle cx="28" cy="582.2" r="0.8"/>
		<circle cx="17.2" cy="582.2" r="0.8"/>
		<circle cx="6.3" cy="582.2" r="0.8"/>
		<circle cx="-4.6" cy="582.2" r="0.8"/>
		<circle cx="-15.5" cy="582.2" r="0.8"/>
		<circle cx="82.4" cy="571.4" r="0.8"/>
		<circle cx="71.5" cy="571.4" r="0.8"/>
		<circle cx="60.6" cy="571.4" r="0.8"/>
		<circle cx="49.8" cy="571.4" r="0.8"/>
		<circle cx="38.9" cy="571.4" r="0.8"/>
		<circle cx="28" cy="571.4" r="0.8"/>
		<circle cx="17.2" cy="571.4" r="0.8"/>
		<circle cx="6.3" cy="571.4" r="0.8"/>
		<circle cx="-4.6" cy="571.4" r="0.8"/>
		<circle cx="-15.5" cy="571.4" r="0.8"/>
		<circle cx="82.4" cy="560.5" r="0.8"/>
		<circle cx="71.5" cy="560.5" r="0.8"/>
		<circle cx="60.6" cy="560.5" r="0.8"/>
		<circle cx="49.8" cy="560.5" r="0.8"/>
		<circle cx="38.9" cy="560.5" r="0.8"/>
		<circle cx="28" cy="560.5" r="0.8"/>
		<circle cx="17.2" cy="560.5" r="0.8"/>
		<circle cx="6.3" cy="560.5" r="0.8"/>
		<circle cx="-4.6" cy="560.5" r="0.8"/>
		<circle cx="-15.5" cy="560.5" r="0.8"/>
		<circle cx="82.4" cy="549.6" r="0.8"/>
		<circle cx="71.5" cy="549.6" r="0.8"/>
		<circle cx="60.6" cy="549.6" r="0.8"/>
		<circle cx="49.8" cy="549.6" r="0.8"/>
		<circle cx="38.9" cy="549.6" r="0.8"/>
		<circle cx="28" cy="549.6" r="0.8"/>
		<circle cx="17.2" cy="549.6" r="0.8"/>
		<circle cx="6.3" cy="549.6" r="0.8"/>
		<circle cx="-4.6" cy="549.6" r="0.8"/>
		<circle cx="-15.5" cy="549.6" r="0.8"/>
		<circle cx="82.4" cy="615.3" r="0.8"/>
		<circle cx="71.5" cy="615.3" r="0.8"/>
		<circle cx="60.6" cy="615.3" r="0.8"/>
		<circle cx="49.8" cy="615.3" r="0.8"/>
		<circle cx="38.9" cy="615.3" r="0.8"/>
		<circle cx="28" cy="615.3" r="0.8"/>
		<circle cx="17.2" cy="615.3" r="0.8"/>
		<circle cx="6.3" cy="615.3" r="0.8"/>
		<circle cx="82.4" cy="604.5" r="0.8"/>
		<circle cx="71.5" cy="604.5" r="0.8"/>
		<circle cx="60.6" cy="604.5" r="0.8"/>
		<circle cx="49.8" cy="604.5" r="0.8"/>
		<circle cx="38.9" cy="604.5" r="0.8"/>
		<circle cx="28" cy="604.5" r="0.8"/>
		<circle cx="17.2" cy="604.5" r="0.8"/>
		<circle cx="6.3" cy="604.5" r="0.8"/>
		<circle cx="82.4" cy="593.6" r="0.8"/>
		<circle cx="71.5" cy="593.6" r="0.8"/>
		<circle cx="93.3" cy="494.3" r="0.8"/>
		<circle cx="93.3" cy="483.4" r="0.8"/>
		<circle cx="93.3" cy="472.6" r="0.8"/>
		<circle cx="93.3" cy="461.7" r="0.8"/>
		<circle cx="93.3" cy="538.3" r="0.8"/>
		<circle cx="93.3" cy="527.4" r="0.8"/>
		<circle cx="93.3" cy="516.5" r="0.8"/>
		<circle cx="93.3" cy="505.6" r="0.8"/>
		<circle cx="93.3" cy="582.2" r="0.8"/>
		<circle cx="93.3" cy="571.4" r="0.8"/>
		<circle cx="93.3" cy="560.5" r="0.8"/>
		<circle cx="93.3" cy="549.6" r="0.8"/>
		<circle cx="93.3" cy="593.6" r="0.8"/>
		<circle cx="104.1" cy="494.3" r="0.8"/>
		<circle cx="93.3" cy="494.3" r="0.8"/>
		<circle cx="104.1" cy="483.4" r="0.8"/>
		<circle cx="93.3" cy="483.4" r="0.8"/>
		<circle cx="104.1" cy="472.6" r="0.8"/>
		<circle cx="93.3" cy="472.6" r="0.8"/>
		<circle cx="104.1" cy="461.7" r="0.8"/>
		<circle cx="93.3" cy="461.7" r="0.8"/>
		<circle cx="104.1" cy="538.3" r="0.8"/>
		<circle cx="93.3" cy="538.3" r="0.8"/>
		<circle cx="104.1" cy="527.4" r="0.8"/>
		<circle cx="93.3" cy="527.4" r="0.8"/>
		<circle cx="104.1" cy="516.5" r="0.8"/>
		<circle cx="93.3" cy="516.5" r="0.8"/>
		<circle cx="104.1" cy="505.6" r="0.8"/>
		<circle cx="93.3" cy="505.6" r="0.8"/>
		<circle cx="104.1" cy="582.2" r="0.8"/>
		<circle cx="93.3" cy="582.2" r="0.8"/>
		<circle cx="104.1" cy="571.4" r="0.8"/>
		<circle cx="93.3" cy="571.4" r="0.8"/>
		<circle cx="104.1" cy="560.5" r="0.8"/>
		<circle cx="93.3" cy="560.5" r="0.8"/>
		<circle cx="104.1" cy="549.6" r="0.8"/>
		<circle cx="93.3" cy="549.6" r="0.8"/>
		<circle cx="104.1" cy="593.6" r="0.8"/>
		<circle cx="93.3" cy="593.6" r="0.8"/>
		<circle cx="115" cy="494.3" r="0.8"/>
		<circle cx="104.1" cy="494.3" r="0.8"/>
		<circle cx="115" cy="483.4" r="0.8"/>
		<circle cx="104.1" cy="483.4" r="0.8"/>
		<circle cx="115" cy="472.6" r="0.8"/>
		<circle cx="104.1" cy="472.6" r="0.8"/>
		<circle cx="115" cy="461.7" r="0.8"/>
		<circle cx="104.1" cy="461.7" r="0.8"/>
		<circle cx="115" cy="538.3" r="0.8"/>
		<circle cx="104.1" cy="538.3" r="0.8"/>
		<circle cx="115" cy="527.4" r="0.8"/>
		<circle cx="104.1" cy="527.4" r="0.8"/>
		<circle cx="115" cy="516.5" r="0.8"/>
		<circle cx="104.1" cy="516.5" r="0.8"/>
		<circle cx="115" cy="505.6" r="0.8"/>
		<circle cx="104.1" cy="505.6" r="0.8"/>
		<circle cx="115" cy="582.2" r="0.8"/>
		<circle cx="104.1" cy="582.2" r="0.8"/>
		<circle cx="115" cy="571.4" r="0.8"/>
		<circle cx="104.1" cy="571.4" r="0.8"/>
		<circle cx="115" cy="560.5" r="0.8"/>
		<circle cx="104.1" cy="560.5" r="0.8"/>
		<circle cx="115" cy="549.6" r="0.8"/>
		<circle cx="104.1" cy="549.6" r="0.8"/>
		<circle cx="115" cy="593.6" r="0.8"/>
		<circle cx="104.1" cy="593.6" r="0.8"/>
		<circle cx="125.9" cy="494.3" r="0.8"/>
		<circle cx="115" cy="494.3" r="0.8"/>
		<circle cx="125.9" cy="483.4" r="0.8"/>
		<circle cx="115" cy="483.4" r="0.8"/>
		<circle cx="125.9" cy="472.6" r="0.8"/>
		<circle cx="115" cy="472.6" r="0.8"/>
		<circle cx="125.9" cy="461.7" r="0.8"/>
		<circle cx="115" cy="461.7" r="0.8"/>
		<circle cx="125.9" cy="538.3" r="0.8"/>
		<circle cx="115" cy="538.3" r="0.8"/>
		<circle cx="125.9" cy="527.4" r="0.8"/>
		<circle cx="115" cy="527.4" r="0.8"/>
		<circle cx="125.9" cy="516.5" r="0.8"/>
		<circle cx="115" cy="516.5" r="0.8"/>
		<circle cx="125.9" cy="505.6" r="0.8"/>
		<circle cx="115" cy="505.6" r="0.8"/>
		<circle cx="125.9" cy="582.2" r="0.8"/>
		<circle cx="115" cy="582.2" r="0.8"/>
		<circle cx="125.9" cy="571.4" r="0.8"/>
		<circle cx="115" cy="571.4" r="0.8"/>
		<circle cx="125.9" cy="560.5" r="0.8"/>
		<circle cx="115" cy="560.5" r="0.8"/>
		<circle cx="125.9" cy="549.6" r="0.8"/>
		<circle cx="115" cy="549.6" r="0.8"/>
		<circle cx="125.9" cy="593.6" r="0.8"/>
		<circle cx="115" cy="593.6" r="0.8"/>
		<circle cx="60.6" cy="593.6" r="0.8"/>
		<circle cx="49.8" cy="593.6" r="0.8"/>
		<circle cx="38.9" cy="593.6" r="0.8"/>
		<circle cx="28" cy="593.6" r="0.8"/>
		<circle cx="17.2" cy="593.6" r="0.8"/>
		<circle cx="6.3" cy="593.6" r="0.8"/>
		<circle cx="82.4" cy="450.8" r="0.8"/>
		<circle cx="71.5" cy="450.8" r="0.8"/>
		<circle cx="60.6" cy="450.8" r="0.8"/>
		<circle cx="49.8" cy="450.8" r="0.8"/>
		<circle cx="38.9" cy="450.8" r="0.8"/>
		<circle cx="28" cy="450.8" r="0.8"/>
		<circle cx="17.2" cy="450.8" r="0.8"/>
		<circle cx="6.3" cy="450.8" r="0.8"/>
		<circle cx="-4.6" cy="450.8" r="0.8"/>
		<circle cx="82.4" cy="439.9" r="0.8"/>
		<circle cx="71.5" cy="439.9" r="0.8"/>
		<circle cx="60.6" cy="439.9" r="0.8"/>
		<circle cx="49.8" cy="439.9" r="0.8"/>
		<circle cx="38.9" cy="439.9" r="0.8"/>
		<circle cx="28" cy="439.9" r="0.8"/>
		<circle cx="17.2" cy="439.9" r="0.8"/>
		<circle cx="6.3" cy="439.9" r="0.8"/>
		<circle cx="-4.6" cy="439.9" r="0.8"/>
		<circle cx="82.4" cy="429" r="0.8"/>
		<circle cx="71.5" cy="429" r="0.8"/>
		<circle cx="60.6" cy="429" r="0.8"/>
		<circle cx="49.8" cy="429" r="0.8"/>
		<circle cx="38.9" cy="429" r="0.8"/>
		<circle cx="28" cy="429" r="0.8"/>
		<circle cx="17.2" cy="429" r="0.8"/>
		<circle cx="6.3" cy="429" r="0.8"/>
		<circle cx="-4.6" cy="429" r="0.8"/>
		<circle cx="82.4" cy="418.2" r="0.8"/>
		<circle cx="71.5" cy="418.2" r="0.8"/>
		<circle cx="60.6" cy="418.2" r="0.8"/>
		<circle cx="49.8" cy="418.2" r="0.8"/>
		<circle cx="38.9" cy="418.2" r="0.8"/>
		<circle cx="28" cy="418.2" r="0.8"/>
		<circle cx="17.2" cy="418.2" r="0.8"/>
		<circle cx="6.3" cy="418.2" r="0.8"/>
		<circle cx="-4.6" cy="418.2" r="0.8"/>
		<circle cx="82.4" cy="407.3" r="0.8"/>
		<circle cx="71.5" cy="407.3" r="0.8"/>
		<circle cx="60.6" cy="407.3" r="0.8"/>
		<circle cx="49.8" cy="407.3" r="0.8"/>
		<circle cx="38.9" cy="407.3" r="0.8"/>
		<circle cx="28" cy="407.3" r="0.8"/>
		<circle cx="17.2" cy="407.3" r="0.8"/>
		<circle cx="6.3" cy="407.3" r="0.8"/>
		<circle cx="-4.6" cy="407.3" r="0.8"/>
		<circle cx="82.4" cy="396.4" r="0.8"/>
		<circle cx="71.5" cy="396.4" r="0.8"/>
		<circle cx="60.6" cy="396.4" r="0.8"/>
		<circle cx="49.8" cy="396.4" r="0.8"/>
		<circle cx="38.9" cy="396.4" r="0.8"/>
		<circle cx="28" cy="396.4" r="0.8"/>
		<circle cx="17.2" cy="396.4" r="0.8"/>
		<circle cx="6.3" cy="396.4" r="0.8"/>
		<circle cx="-4.6" cy="396.4" r="0.8"/>
		<circle cx="-15.5" cy="396.4" r="0.8"/>
		<circle cx="-26.3" cy="396.4" r="0.8"/>
		<circle cx="-37.2" cy="396.4" r="0.8"/>
		<circle cx="-48.1" cy="396.4" r="0.8"/>
		<circle cx="-58.9" cy="396.4" r="0.8"/>
		<circle cx="82.4" cy="385.5" r="0.8"/>
		<circle cx="71.5" cy="385.5" r="0.8"/>
		<circle cx="60.6" cy="385.5" r="0.8"/>
		<circle cx="49.8" cy="385.5" r="0.8"/>
		<circle cx="38.9" cy="385.5" r="0.8"/>
		<circle cx="28" cy="385.5" r="0.8"/>
		<circle cx="17.2" cy="385.5" r="0.8"/>
		<circle cx="6.3" cy="385.5" r="0.8"/>
		<circle cx="-4.6" cy="385.5" r="0.8"/>
		<circle cx="-15.5" cy="385.5" r="0.8"/>
		<circle cx="-26.3" cy="385.5" r="0.8"/>
		<circle cx="-37.2" cy="385.5" r="0.8"/>
		<circle cx="-48.1" cy="385.5" r="0.8"/>
		<circle cx="-58.9" cy="385.5" r="0.8"/>
		<circle cx="82.4" cy="374.7" r="0.8"/>
		<circle cx="71.5" cy="374.7" r="0.8"/>
		<circle cx="60.6" cy="374.7" r="0.8"/>
		<circle cx="49.8" cy="374.7" r="0.8"/>
		<circle cx="38.9" cy="374.7" r="0.8"/>
		<circle cx="28" cy="374.7" r="0.8"/>
		<circle cx="17.2" cy="374.7" r="0.8"/>
		<circle cx="6.3" cy="374.7" r="0.8"/>
		<circle cx="-4.6" cy="374.7" r="0.8"/>
		<circle cx="-15.5" cy="374.7" r="0.8"/>
		<circle cx="-26.3" cy="374.7" r="0.8"/>
		<circle cx="-37.2" cy="374.7" r="0.8"/>
		<circle cx="-48.1" cy="374.7" r="0.8"/>
		<circle cx="-58.9" cy="374.7" r="0.8"/>
		<circle cx="82.4" cy="363.8" r="0.8"/>
		<circle cx="71.5" cy="363.8" r="0.8"/>
		<circle cx="60.6" cy="363.8" r="0.8"/>
		<circle cx="49.8" cy="363.8" r="0.8"/>
		<circle cx="38.9" cy="363.8" r="0.8"/>
		<circle cx="28" cy="363.8" r="0.8"/>
		<circle cx="17.2" cy="363.8" r="0.8"/>
		<circle cx="6.3" cy="363.8" r="0.8"/>
		<circle cx="-4.6" cy="363.8" r="0.8"/>
		<circle cx="-15.5" cy="363.8" r="0.8"/>
		<circle cx="-26.3" cy="363.8" r="0.8"/>
		<circle cx="-37.2" cy="363.8" r="0.8"/>
		<circle cx="-48.1" cy="363.8" r="0.8"/>
		<circle cx="-58.9" cy="363.8" r="0.8"/>
		<circle cx="82.4" cy="352.9" r="0.8"/>
		<circle cx="71.5" cy="352.9" r="0.8"/>
		<circle cx="60.6" cy="352.9" r="0.8"/>
		<circle cx="49.8" cy="352.9" r="0.8"/>
		<circle cx="38.9" cy="352.9" r="0.8"/>
		<circle cx="28" cy="352.9" r="0.8"/>
		<circle cx="17.2" cy="352.9" r="0.8"/>
		<circle cx="6.3" cy="352.9" r="0.8"/>
		<circle cx="-4.6" cy="352.9" r="0.8"/>
		<circle cx="-15.5" cy="352.9" r="0.8"/>
		<circle cx="-26.3" cy="352.9" r="0.8"/>
		<circle cx="-37.2" cy="352.9" r="0.8"/>
		<circle cx="-48.1" cy="352.9" r="0.8"/>
		<circle cx="-58.9" cy="352.9" r="0.8"/>
		<circle cx="82.4" cy="342" r="0.8"/>
		<circle cx="71.5" cy="342" r="0.8"/>
		<circle cx="60.6" cy="342" r="0.8"/>
		<circle cx="49.8" cy="342" r="0.8"/>
		<circle cx="38.9" cy="342" r="0.8"/>
		<circle cx="28" cy="342" r="0.8"/>
		<circle cx="17.2" cy="342" r="0.8"/>
		<circle cx="6.3" cy="342" r="0.8"/>
		<circle cx="-4.6" cy="342" r="0.8"/>
		<circle cx="-15.5" cy="342" r="0.8"/>
		<circle cx="-26.3" cy="342" r="0.8"/>
		<circle cx="-37.2" cy="342" r="0.8"/>
		<circle cx="-48.1" cy="342" r="0.8"/>
		<circle cx="-58.9" cy="342" r="0.8"/>
		<circle cx="82.4" cy="331.1" r="0.8"/>
		<circle cx="71.5" cy="331.1" r="0.8"/>
		<circle cx="60.6" cy="331.1" r="0.8"/>
		<circle cx="49.8" cy="331.1" r="0.8"/>
		<circle cx="38.9" cy="331.1" r="0.8"/>
		<circle cx="28" cy="331.1" r="0.8"/>
		<circle cx="17.2" cy="331.1" r="0.8"/>
		<circle cx="6.3" cy="331.1" r="0.8"/>
		<circle cx="-4.6" cy="331.1" r="0.8"/>
		<circle cx="-15.5" cy="331.1" r="0.8"/>
		<circle cx="-26.3" cy="331.1" r="0.8"/>
		<circle cx="-37.2" cy="331.1" r="0.8"/>
		<circle cx="-48.1" cy="331.1" r="0.8"/>
		<circle cx="-58.9" cy="331.1" r="0.8"/>
		<circle cx="82.4" cy="320.3" r="0.8"/>
		<circle cx="71.5" cy="320.3" r="0.8"/>
		<circle cx="60.6" cy="320.3" r="0.8"/>
		<circle cx="49.8" cy="320.3" r="0.8"/>
		<circle cx="38.9" cy="320.3" r="0.8"/>
		<circle cx="28" cy="320.3" r="0.8"/>
		<circle cx="17.2" cy="320.3" r="0.8"/>
		<circle cx="6.3" cy="320.3" r="0.8"/>
		<circle cx="-4.6" cy="320.3" r="0.8"/>
		<circle cx="-15.5" cy="320.3" r="0.8"/>
		<circle cx="-26.3" cy="320.3" r="0.8"/>
		<circle cx="-37.2" cy="320.3" r="0.8"/>
		<circle cx="-48.1" cy="320.3" r="0.8"/>
		<circle cx="-58.9" cy="320.3" r="0.8"/>
		<circle cx="82.4" cy="309.4" r="0.8"/>
		<circle cx="71.5" cy="309.4" r="0.8"/>
		<circle cx="60.6" cy="309.4" r="0.8"/>
		<circle cx="49.8" cy="309.4" r="0.8"/>
		<circle cx="38.9" cy="309.4" r="0.8"/>
		<circle cx="28" cy="309.4" r="0.8"/>
		<circle cx="17.2" cy="309.4" r="0.8"/>
		<circle cx="6.3" cy="309.4" r="0.8"/>
		<circle cx="-4.6" cy="309.4" r="0.8"/>
		<circle cx="-15.5" cy="309.4" r="0.8"/>
		<circle cx="-26.3" cy="309.4" r="0.8"/>
		<circle cx="-37.2" cy="309.4" r="0.8"/>
		<circle cx="-48.1" cy="309.4" r="0.8"/>
		<circle cx="-58.9" cy="309.4" r="0.8"/>
		<circle cx="82.4" cy="298.5" r="0.8"/>
		<circle cx="71.5" cy="298.5" r="0.8"/>
		<circle cx="60.6" cy="298.5" r="0.8"/>
		<circle cx="49.8" cy="298.5" r="0.8"/>
		<circle cx="38.9" cy="298.5" r="0.8"/>
		<circle cx="28" cy="298.5" r="0.8"/>
		<circle cx="17.2" cy="298.5" r="0.8"/>
		<circle cx="6.3" cy="298.5" r="0.8"/>
		<circle cx="-4.6" cy="298.5" r="0.8"/>
		<circle cx="-15.5" cy="298.5" r="0.8"/>
		<circle cx="-26.3" cy="298.5" r="0.8"/>
		<circle cx="-37.2" cy="298.5" r="0.8"/>
		<circle cx="-48.1" cy="298.5" r="0.8"/>
		<circle cx="-58.9" cy="298.5" r="0.8"/>
		<circle cx="82.4" cy="287.6" r="0.8"/>
		<circle cx="71.5" cy="287.6" r="0.8"/>
		<circle cx="60.6" cy="287.6" r="0.8"/>
		<circle cx="49.8" cy="287.6" r="0.8"/>
		<circle cx="38.9" cy="287.6" r="0.8"/>
		<circle cx="28" cy="287.6" r="0.8"/>
		<circle cx="17.2" cy="287.6" r="0.8"/>
		<circle cx="6.3" cy="287.6" r="0.8"/>
		<circle cx="-4.6" cy="287.6" r="0.8"/>
		<circle cx="-15.5" cy="287.6" r="0.8"/>
		<circle cx="-26.3" cy="287.6" r="0.8"/>
		<circle cx="-37.2" cy="287.6" r="0.8"/>
		<circle cx="-48.1" cy="287.6" r="0.8"/>
		<circle cx="-58.9" cy="287.6" r="0.8"/>
		<circle cx="82.4" cy="276.8" r="0.8"/>
		<circle cx="71.5" cy="276.8" r="0.8"/>
		<circle cx="60.6" cy="276.8" r="0.8"/>
		<circle cx="49.8" cy="276.8" r="0.8"/>
		<circle cx="38.9" cy="276.8" r="0.8"/>
		<circle cx="28" cy="276.8" r="0.8"/>
		<circle cx="17.2" cy="276.8" r="0.8"/>
		<circle cx="6.3" cy="276.8" r="0.8"/>
		<circle cx="-4.6" cy="276.8" r="0.8"/>
		<circle cx="-15.5" cy="276.8" r="0.8"/>
		<circle cx="-26.3" cy="276.8" r="0.8"/>
		<circle cx="-37.2" cy="276.8" r="0.8"/>
		<circle cx="-48.1" cy="276.8" r="0.8"/>
		<circle cx="-58.9" cy="276.8" r="0.8"/>
		<circle cx="82.4" cy="265.9" r="0.8"/>
		<circle cx="71.5" cy="265.9" r="0.8"/>
		<circle cx="60.6" cy="265.9" r="0.8"/>
		<circle cx="49.8" cy="265.9" r="0.8"/>
		<circle cx="38.9" cy="265.9" r="0.8"/>
		<circle cx="28" cy="265.9" r="0.8"/>
		<circle cx="17.2" cy="265.9" r="0.8"/>
		<circle cx="6.3" cy="265.9" r="0.8"/>
		<circle cx="-4.6" cy="265.9" r="0.8"/>
		<circle cx="-15.5" cy="265.9" r="0.8"/>
		<circle cx="-26.3" cy="265.9" r="0.8"/>
		<circle cx="-37.2" cy="265.9" r="0.8"/>
		<circle cx="-48.1" cy="265.9" r="0.8"/>
		<circle cx="-58.9" cy="265.9" r="0.8"/>
		<circle cx="82.4" cy="255" r="0.8"/>
		<circle cx="71.5" cy="255" r="0.8"/>
		<circle cx="60.6" cy="255" r="0.8"/>
		<circle cx="49.8" cy="255" r="0.8"/>
		<circle cx="38.9" cy="255" r="0.8"/>
		<circle cx="28" cy="255" r="0.8"/>
		<circle cx="17.2" cy="255" r="0.8"/>
		<circle cx="6.3" cy="255" r="0.8"/>
		<circle cx="-4.6" cy="255" r="0.8"/>
		<circle cx="-15.5" cy="255" r="0.8"/>
		<circle cx="-26.3" cy="255" r="0.8"/>
		<circle cx="-37.2" cy="255" r="0.8"/>
		<circle cx="-48.1" cy="255" r="0.8"/>
		<circle cx="-58.9" cy="255" r="0.8"/>
		<circle cx="82.4" cy="244.1" r="0.8"/>
		<circle cx="71.5" cy="244.1" r="0.8"/>
		<circle cx="60.6" cy="244.1" r="0.8"/>
		<circle cx="49.8" cy="244.1" r="0.8"/>
		<circle cx="38.9" cy="244.1" r="0.8"/>
		<circle cx="28" cy="244.1" r="0.8"/>
		<circle cx="17.2" cy="244.1" r="0.8"/>
		<circle cx="6.3" cy="244.1" r="0.8"/>
		<circle cx="-4.6" cy="244.1" r="0.8"/>
		<circle cx="-15.5" cy="244.1" r="0.8"/>
		<circle cx="-26.3" cy="244.1" r="0.8"/>
		<circle cx="-37.2" cy="244.1" r="0.8"/>
		<circle cx="-48.1" cy="244.1" r="0.8"/>
		<circle cx="-58.9" cy="244.1" r="0.8"/>
		<circle cx="82.4" cy="233.2" r="0.8"/>
		<circle cx="71.5" cy="233.2" r="0.8"/>
		<circle cx="60.6" cy="233.2" r="0.8"/>
		<circle cx="49.8" cy="233.2" r="0.8"/>
		<circle cx="38.9" cy="233.2" r="0.8"/>
		<circle cx="28" cy="233.2" r="0.8"/>
		<circle cx="17.2" cy="233.2" r="0.8"/>
		<circle cx="6.3" cy="233.2" r="0.8"/>
		<circle cx="-4.6" cy="233.2" r="0.8"/>
		<circle cx="-15.5" cy="233.2" r="0.8"/>
		<circle cx="-26.3" cy="233.2" r="0.8"/>
		<circle cx="-37.2" cy="233.2" r="0.8"/>
		<circle cx="-48.1" cy="233.2" r="0.8"/>
		<circle cx="-58.9" cy="233.2" r="0.8"/>
		<circle cx="82.4" cy="222.4" r="0.8"/>
		<circle cx="71.5" cy="222.4" r="0.8"/>
		<circle cx="60.6" cy="222.4" r="0.8"/>
		<circle cx="49.8" cy="222.4" r="0.8"/>
		<circle cx="38.9" cy="222.4" r="0.8"/>
		<circle cx="28" cy="222.4" r="0.8"/>
		<circle cx="17.2" cy="222.4" r="0.8"/>
		<circle cx="6.3" cy="222.4" r="0.8"/>
		<circle cx="-4.6" cy="222.4" r="0.8"/>
		<circle cx="-15.5" cy="222.4" r="0.8"/>
		<circle cx="-26.3" cy="222.4" r="0.8"/>
		<circle cx="-37.2" cy="222.4" r="0.8"/>
		<circle cx="-48.1" cy="222.4" r="0.8"/>
		<circle cx="-58.9" cy="222.4" r="0.8"/>
		<circle cx="82.4" cy="211.5" r="0.8"/>
		<circle cx="71.5" cy="211.5" r="0.8"/>
		<circle cx="60.6" cy="211.5" r="0.8"/>
		<circle cx="49.8" cy="211.5" r="0.8"/>
		<circle cx="38.9" cy="211.5" r="0.8"/>
		<circle cx="28" cy="211.5" r="0.8"/>
		<circle cx="17.2" cy="211.5" r="0.8"/>
		<circle cx="6.3" cy="211.5" r="0.8"/>
		<circle cx="-4.6" cy="211.5" r="0.8"/>
		<circle cx="-15.5" cy="211.5" r="0.8"/>
		<circle cx="-26.3" cy="211.5" r="0.8"/>
		<circle cx="-37.2" cy="211.5" r="0.8"/>
		<circle cx="-48.1" cy="211.5" r="0.8"/>
		<circle cx="-58.9" cy="211.5" r="0.8"/>
		<circle cx="82.4" cy="200.6" r="0.8"/>
		<circle cx="71.5" cy="200.6" r="0.8"/>
		<circle cx="60.6" cy="200.6" r="0.8"/>
		<circle cx="49.8" cy="200.6" r="0.8"/>
		<circle cx="38.9" cy="200.6" r="0.8"/>
		<circle cx="28" cy="200.6" r="0.8"/>
		<circle cx="17.2" cy="200.6" r="0.8"/>
		<circle cx="6.3" cy="200.6" r="0.8"/>
		<circle cx="-4.6" cy="200.6" r="0.8"/>
		<circle cx="-15.5" cy="200.6" r="0.8"/>
		<circle cx="-26.3" cy="200.6" r="0.8"/>
		<circle cx="-37.2" cy="200.6" r="0.8"/>
		<circle cx="-48.1" cy="200.6" r="0.8"/>
		<circle cx="-58.9" cy="200.6" r="0.8"/>
		<circle cx="82.4" cy="189.7" r="0.8"/>
		<circle cx="71.5" cy="189.7" r="0.8"/>
		<circle cx="60.6" cy="189.7" r="0.8"/>
		<circle cx="49.8" cy="189.7" r="0.8"/>
		<circle cx="38.9" cy="189.7" r="0.8"/>
		<circle cx="28" cy="189.7" r="0.8"/>
		<circle cx="17.2" cy="189.7" r="0.8"/>
		<circle cx="6.3" cy="189.7" r="0.8"/>
		<circle cx="-4.6" cy="189.7" r="0.8"/>
		<circle cx="-15.5" cy="189.7" r="0.8"/>
		<circle cx="-26.3" cy="189.7" r="0.8"/>
		<circle cx="-37.2" cy="189.7" r="0.8"/>
		<circle cx="-48.1" cy="189.7" r="0.8"/>
		<circle cx="-58.9" cy="189.7" r="0.8"/>
		<circle cx="-69.8" cy="396.4" r="0.8"/>
		<circle cx="-69.8" cy="385.5" r="0.8"/>
		<circle cx="-69.8" cy="374.7" r="0.8"/>
		<circle cx="-69.8" cy="363.8" r="0.8"/>
		<circle cx="-69.8" cy="352.9" r="0.8"/>
		<circle cx="-69.8" cy="342" r="0.8"/>
		<circle cx="-69.8" cy="331.1" r="0.8"/>
		<circle cx="-69.8" cy="320.3" r="0.8"/>
		<circle cx="-69.8" cy="309.4" r="0.8"/>
		<circle cx="-69.8" cy="298.5" r="0.8"/>
		<circle cx="-69.8" cy="287.6" r="0.8"/>
		<circle cx="-69.8" cy="276.8" r="0.8"/>
		<circle cx="-69.8" cy="265.9" r="0.8"/>
		<circle cx="-69.8" cy="255" r="0.8"/>
		<circle cx="-69.8" cy="244.1" r="0.8"/>
		<circle cx="-69.8" cy="233.2" r="0.8"/>
		<circle cx="-69.8" cy="222.4" r="0.8"/>
		<circle cx="-69.8" cy="211.5" r="0.8"/>
		<circle cx="-69.8" cy="200.6" r="0.8"/>
		<circle cx="-69.8" cy="189.7" r="0.8"/>
		<circle cx="-80.7" cy="396.4" r="0.8"/>
		<circle cx="-80.7" cy="385.5" r="0.8"/>
		<circle cx="-80.7" cy="374.7" r="0.8"/>
		<circle cx="-80.7" cy="363.8" r="0.8"/>
		<circle cx="-80.7" cy="352.9" r="0.8"/>
		<circle cx="-80.7" cy="342" r="0.8"/>
		<circle cx="-80.7" cy="331.1" r="0.8"/>
		<circle cx="-80.7" cy="320.3" r="0.8"/>
		<circle cx="-80.7" cy="309.4" r="0.8"/>
		<circle cx="-80.7" cy="298.5" r="0.8"/>
		<circle cx="-80.7" cy="287.6" r="0.8"/>
		<circle cx="-80.7" cy="276.8" r="0.8"/>
		<circle cx="-80.7" cy="265.9" r="0.8"/>
		<circle cx="-80.7" cy="255" r="0.8"/>
		<circle cx="-80.7" cy="244.1" r="0.8"/>
		<circle cx="-80.7" cy="233.2" r="0.8"/>
		<circle cx="-80.7" cy="222.4" r="0.8"/>
		<circle cx="-80.7" cy="211.5" r="0.8"/>
		<circle cx="-80.7" cy="200.6" r="0.8"/>
		<circle cx="-80.7" cy="189.7" r="0.8"/>
		<circle cx="-91.7" cy="396.4" r="0.8"/>
		<circle cx="-91.7" cy="385.5" r="0.8"/>
		<circle cx="-91.7" cy="374.7" r="0.8"/>
		<circle cx="-91.7" cy="363.8" r="0.8"/>
		<circle cx="-91.7" cy="352.9" r="0.8"/>
		<circle cx="-91.7" cy="342" r="0.8"/>
		<circle cx="-91.7" cy="331.1" r="0.8"/>
		<circle cx="-91.7" cy="320.3" r="0.8"/>
		<circle cx="-91.7" cy="309.4" r="0.8"/>
		<circle cx="-91.7" cy="298.5" r="0.8"/>
		<circle cx="-91.7" cy="287.6" r="0.8"/>
		<circle cx="-91.7" cy="276.8" r="0.8"/>
		<circle cx="-91.7" cy="265.9" r="0.8"/>
		<circle cx="-91.7" cy="255" r="0.8"/>
		<circle cx="-91.7" cy="244.1" r="0.8"/>
		<circle cx="-91.7" cy="233.2" r="0.8"/>
		<circle cx="-91.7" cy="222.4" r="0.8"/>
		<circle cx="-91.7" cy="211.5" r="0.8"/>
		<circle cx="-91.7" cy="200.6" r="0.8"/>
		<circle cx="-91.7" cy="189.7" r="0.8"/>
		<circle cx="-102.6" cy="342" r="0.8"/>
		<circle cx="-113.5" cy="342" r="0.8"/>
		<circle cx="-124.4" cy="342" r="0.8"/>
	</g>
	<rect x="-52.4" y="611.3" width="1.4" height="1.4"/>
</g>
</svg>
