<?xml version="1.0" encoding="utf-8"?>
<!-- Generator: Adobe Illustrator 19.1.0, SVG Export Plug-In . SVG Version: 6.00 Build 0)  -->
<svg version="1.1" id="Layer_1" xmlns="http://www.w3.org/2000/svg" xmlns:xlink="http://www.w3.org/1999/xlink" x="0px" y="0px"
	 viewBox="-194 257.8 222 279.2" style="enable-background:new -194 257.8 222 279.2;" xml:space="preserve">
<g id="_x30_8_1_">
	<g>
		<circle cx="-93.7" cy="528" r="0.4"/>
		<circle cx="-98.8" cy="528" r="0.4"/>
		<circle cx="-93.7" cy="522.9" r="0.4"/>
		<circle cx="-98.8" cy="522.9" r="0.4"/>
		<circle cx="-93.7" cy="517.8" r="0.4"/>
		<circle cx="-98.8" cy="517.8" r="0.4"/>
		<circle cx="-93.7" cy="512.7" r="0.4"/>
		<circle cx="-98.8" cy="512.7" r="0.4"/>
		<circle cx="-93.7" cy="507.6" r="0.4"/>
		<circle cx="-98.8" cy="507.6" r="0.4"/>
		<circle cx="-93.7" cy="502.5" r="0.4"/>
		<circle cx="-98.8" cy="502.5" r="0.4"/>
		<circle cx="-93.7" cy="497.4" r="0.4"/>
		<circle cx="-98.8" cy="497.4" r="0.4"/>
		<circle cx="-93.7" cy="492.4" r="0.4"/>
		<circle cx="-98.8" cy="492.4" r="0.4"/>
		<circle cx="-93.7" cy="487.3" r="0.4"/>
		<circle cx="-98.8" cy="487.3" r="0.4"/>
		<circle cx="-93.7" cy="482.2" r="0.4"/>
		<circle cx="-98.8" cy="482.2" r="0.4"/>
		<circle cx="-93.7" cy="477.1" r="0.4"/>
		<circle cx="-98.8" cy="477.1" r="0.4"/>
		<circle cx="-93.7" cy="472" r="0.4"/>
		<circle cx="-98.8" cy="472" r="0.4"/>
		<circle cx="-93.7" cy="466.9" r="0.4"/>
		<circle cx="-98.8" cy="466.9" r="0.4"/>
		<circle cx="-93.7" cy="461.8" r="0.4"/>
		<circle cx="-98.8" cy="461.8" r="0.4"/>
		<circle cx="-93.7" cy="456.7" r="0.4"/>
		<circle cx="-98.8" cy="456.7" r="0.4"/>
		<circle cx="-93.7" cy="451.6" r="0.4"/>
		<circle cx="-98.8" cy="451.6" r="0.4"/>
		<circle cx="-93.7" cy="446.5" r="0.4"/>
		<circle cx="-98.8" cy="446.5" r="0.4"/>
		<circle cx="-93.7" cy="441.5" r="0.4"/>
		<circle cx="-98.8" cy="441.5" r="0.4"/>
		<circle cx="-93.7" cy="436.4" r="0.4"/>
		<circle cx="-98.8" cy="436.4" r="0.4"/>
		<circle cx="-93.7" cy="431.3" r="0.4"/>
		<circle cx="-98.8" cy="431.3" r="0.4"/>
		<circle cx="-93.7" cy="426.2" r="0.4"/>
		<circle cx="-98.8" cy="426.2" r="0.4"/>
		<circle cx="-93.7" cy="421.1" r="0.4"/>
		<circle cx="-98.8" cy="421.1" r="0.4"/>
		<circle cx="-93.7" cy="416" r="0.4"/>
		<circle cx="-98.8" cy="416" r="0.4"/>
		<circle cx="-93.7" cy="410.9" r="0.4"/>
		<circle cx="-98.8" cy="410.9" r="0.4"/>
		<circle cx="-93.7" cy="405.8" r="0.4"/>
		<circle cx="-98.8" cy="405.8" r="0.4"/>
		<circle cx="-93.7" cy="400.7" r="0.4"/>
		<circle cx="-98.8" cy="400.7" r="0.4"/>
		<circle cx="-93.7" cy="395.6" r="0.4"/>
		<circle cx="-98.8" cy="395.6" r="0.4"/>
		<circle cx="-93.7" cy="390.6" r="0.4"/>
		<circle cx="-98.8" cy="390.6" r="0.4"/>
		<circle cx="-93.7" cy="385.5" r="0.4"/>
		<circle cx="-98.8" cy="385.5" r="0.4"/>
		<circle cx="-93.7" cy="380.4" r="0.4"/>
		<circle cx="-98.8" cy="380.4" r="0.4"/>
	</g>
	<ellipse cx="9.2" cy="324.7" rx="0.7" ry="0.7"/>
	<ellipse cx="9.2" cy="312.7" rx="0.7" ry="0.7"/>
	<ellipse cx="9.2" cy="300.7" rx="0.7" ry="0.7"/>
	<circle cx="-180.9" cy="270.1" r="0.4"/>
	<circle cx="-175.8" cy="270.1" r="0.4"/>
	<circle cx="-170.7" cy="270.1" r="0.4"/>
	<circle cx="-165.6" cy="270.1" r="0.4"/>
	<circle cx="-160.6" cy="270.1" r="0.4"/>
	<circle cx="-155.5" cy="270.1" r="0.4"/>
	<circle cx="-150.4" cy="270.1" r="0.4"/>
	<circle cx="-145.3" cy="270.1" r="0.4"/>
	<circle cx="-140.2" cy="270.1" r="0.4"/>
	<circle cx="-135.1" cy="270.1" r="0.4"/>
	<circle cx="-130" cy="270.1" r="0.4"/>
	<circle cx="-125" cy="270.1" r="0.4"/>
	<circle cx="-119.9" cy="270.1" r="0.4"/>
	<circle cx="-114.8" cy="270.1" r="0.4"/>
	<circle cx="-109.7" cy="270.1" r="0.4"/>
	<circle cx="-104.6" cy="270.1" r="0.4"/>
	<circle cx="-99.5" cy="270.1" r="0.4"/>
	<circle cx="-94.4" cy="270.1" r="0.4"/>
	<circle cx="-89.3" cy="270.1" r="0.4"/>
	<circle cx="-84.3" cy="270.1" r="0.4"/>
	<circle cx="-79.2" cy="270.1" r="0.4"/>
	<circle cx="-74.1" cy="270.1" r="0.4"/>
	<circle cx="-69" cy="270.1" r="0.4"/>
	<circle cx="-63.9" cy="270.1" r="0.4"/>
	<circle cx="-58.8" cy="270.1" r="0.4"/>
	<circle cx="-53.7" cy="270.1" r="0.4"/>
	<circle cx="-48.7" cy="270.1" r="0.4"/>
	<circle cx="-43.6" cy="270.1" r="0.4"/>
	<circle cx="-38.5" cy="270.1" r="0.4"/>
	<circle cx="-33.4" cy="270.1" r="0.4"/>
	<circle cx="-28.3" cy="270.1" r="0.4"/>
	<circle cx="-23.2" cy="270.1" r="0.4"/>
	<circle cx="-18.1" cy="270.1" r="0.4"/>
	<circle cx="-13.1" cy="270.1" r="0.4"/>
	<circle cx="-8" cy="270.1" r="0.4"/>
	<circle cx="-2.9" cy="270.1" r="0.4"/>
	<circle cx="2.2" cy="270.1" r="0.4"/>
	<circle cx="7.3" cy="270.1" r="0.4"/>
	<circle cx="12.4" cy="270.1" r="0.4"/>
	<circle cx="17.5" cy="270.1" r="0.4"/>
	<circle cx="-72" cy="484.1" r="1.1"/>
</g>
</svg>
