<?xml version="1.0" encoding="utf-8"?>
<!-- Generator: Adobe Illustrator 19.1.0, SVG Export Plug-In . SVG Version: 6.00 Build 0)  -->
<svg version="1.1" id="Layer_1" xmlns="http://www.w3.org/2000/svg" xmlns:xlink="http://www.w3.org/1999/xlink" x="0px" y="0px"
	 viewBox="-62 311 486 171" style="enable-background:new -62 311 486 171;" xml:space="preserve">
<style type="text/css">
	.st0{fill:none;stroke:#000000;stroke-width:0.35;stroke-miterlimit:10;}
	.st1{fill:none;stroke:#000000;stroke-width:0.5;stroke-miterlimit:10;}
	.st2{fill:none;stroke:#000000;stroke-miterlimit:10;}
</style>
<g id="_x30_9">
	<g>
		<line class="st0" x1="42.2" y1="401.8" x2="50" y2="394.1"/>
	</g>
	<line class="st1" x1="288.2" y1="332.6" x2="318.1" y2="362.5"/>
	<line class="st1" x1="261.9" y1="375" x2="263" y2="375"/>
	<g>
		<line class="st2" x1="-57.9" y1="413.3" x2="-54.1" y2="413.3"/>
		<path class="st1" d="M165.6,475.6c-3,0-5.4-2.4-5.4-5.4"/>
	</g>
	<line class="st2" x1="364.9" y1="429" x2="387.4" y2="429"/>
	<path d="M83.7,387.3c0,0,0-0.1-0.1-0.1l-0.1-0.1c-0.1,0-0.2,0-0.3,0c0,0-0.1,0-0.1,0.1l-0.1,0.1v0.1c0,0.1,0,0.1,0,0.1
		s0,0.1,0.1,0.1l0.1,0.1h0.1h0.1c0.1,0,0.1,0,0.1-0.1l0.1-0.1v-0.1C83.7,387.4,83.7,387.4,83.7,387.3z"/>
	<circle cx="213" cy="502.3" r="0.5"/>
	<circle cx="246.6" cy="372.3" r="0.4"/>
	<circle cx="246.6" cy="377.3" r="0.4"/>
	<circle cx="246.6" cy="382.4" r="0.4"/>
	<circle cx="246.6" cy="387.5" r="0.4"/>
	<circle cx="246.6" cy="392.6" r="0.4"/>
	<circle cx="246.6" cy="397.7" r="0.4"/>
	<circle cx="241.5" cy="372.3" r="0.4"/>
	<circle cx="241.5" cy="377.3" r="0.4"/>
	<circle cx="241.5" cy="382.4" r="0.4"/>
	<circle cx="241.5" cy="387.5" r="0.4"/>
	<circle cx="241.5" cy="392.6" r="0.4"/>
	<circle cx="241.5" cy="397.7" r="0.4"/>
	<circle cx="236.5" cy="372.3" r="0.4"/>
	<circle cx="236.5" cy="377.3" r="0.4"/>
	<circle cx="236.5" cy="382.4" r="0.4"/>
	<circle cx="236.5" cy="387.5" r="0.4"/>
	<circle cx="236.5" cy="392.6" r="0.4"/>
	<circle cx="236.5" cy="397.7" r="0.4"/>
	<circle cx="231.4" cy="372.3" r="0.4"/>
	<circle cx="231.4" cy="377.3" r="0.4"/>
	<circle cx="231.4" cy="382.4" r="0.4"/>
	<circle cx="231.4" cy="387.5" r="0.4"/>
	<circle cx="231.4" cy="392.6" r="0.4"/>
	<circle cx="231.4" cy="397.7" r="0.4"/>
	<circle cx="267.2" cy="382.4" r="0.4"/>
	<circle cx="267.2" cy="387.5" r="0.4"/>
	<circle cx="267.2" cy="392.6" r="0.4"/>
	<circle cx="267.2" cy="397.7" r="0.4"/>
	<circle cx="267.2" cy="402.8" r="0.4"/>
	<circle cx="267.2" cy="407.9" r="0.4"/>
	<circle cx="267.2" cy="412.9" r="0.4"/>
	<circle cx="262.1" cy="372.3" r="0.4"/>
	<circle cx="262.1" cy="377.3" r="0.4"/>
	<circle cx="262.1" cy="382.4" r="0.4"/>
	<circle cx="262.1" cy="387.5" r="0.4"/>
	<circle cx="262.1" cy="392.6" r="0.4"/>
	<circle cx="262.1" cy="397.7" r="0.4"/>
	<circle cx="257" cy="372.3" r="0.4"/>
	<circle cx="257" cy="377.3" r="0.4"/>
	<circle cx="257" cy="382.4" r="0.4"/>
	<circle cx="257" cy="387.5" r="0.4"/>
	<circle cx="257" cy="392.6" r="0.4"/>
	<circle cx="257" cy="397.7" r="0.4"/>
	<circle cx="251.9" cy="372.3" r="0.4"/>
	<circle cx="251.9" cy="377.3" r="0.4"/>
	<circle cx="251.9" cy="382.4" r="0.4"/>
	<circle cx="251.9" cy="387.5" r="0.4"/>
	<circle cx="251.9" cy="392.6" r="0.4"/>
	<circle cx="251.9" cy="397.7" r="0.4"/>
	<circle cx="287.8" cy="382.4" r="0.4"/>
	<circle cx="287.8" cy="387.5" r="0.4"/>
	<circle cx="287.8" cy="392.6" r="0.4"/>
	<circle cx="287.8" cy="397.7" r="0.4"/>
	<circle cx="287.8" cy="402.8" r="0.4"/>
	<circle cx="287.8" cy="407.9" r="0.4"/>
	<circle cx="287.8" cy="412.9" r="0.4"/>
	<circle cx="282.7" cy="382.4" r="0.4"/>
	<circle cx="282.7" cy="387.5" r="0.4"/>
	<circle cx="282.7" cy="392.6" r="0.4"/>
	<circle cx="282.7" cy="397.7" r="0.4"/>
	<circle cx="282.7" cy="402.8" r="0.4"/>
	<circle cx="282.7" cy="407.9" r="0.4"/>
	<circle cx="282.7" cy="412.9" r="0.4"/>
	<circle cx="277.6" cy="382.4" r="0.4"/>
	<circle cx="277.6" cy="387.5" r="0.4"/>
	<circle cx="277.6" cy="392.6" r="0.4"/>
	<circle cx="277.6" cy="397.7" r="0.4"/>
	<circle cx="277.6" cy="402.8" r="0.4"/>
	<circle cx="277.6" cy="407.9" r="0.4"/>
	<circle cx="277.6" cy="412.9" r="0.4"/>
	<circle cx="272.5" cy="382.4" r="0.4"/>
	<circle cx="272.5" cy="387.5" r="0.4"/>
	<circle cx="272.5" cy="392.6" r="0.4"/>
	<circle cx="272.5" cy="397.7" r="0.4"/>
	<circle cx="272.5" cy="402.8" r="0.4"/>
	<circle cx="272.5" cy="407.9" r="0.4"/>
	<circle cx="272.5" cy="412.9" r="0.4"/>
	<circle cx="303.3" cy="382.4" r="0.4"/>
	<circle cx="303.3" cy="387.5" r="0.4"/>
	<circle cx="303.3" cy="392.6" r="0.4"/>
	<circle cx="303.3" cy="397.7" r="0.4"/>
	<circle cx="303.3" cy="402.8" r="0.4"/>
	<circle cx="303.3" cy="407.9" r="0.4"/>
	<circle cx="298.2" cy="382.4" r="0.4"/>
	<circle cx="298.2" cy="387.5" r="0.4"/>
	<circle cx="298.2" cy="392.6" r="0.4"/>
	<circle cx="298.2" cy="397.7" r="0.4"/>
	<circle cx="298.2" cy="402.8" r="0.4"/>
	<circle cx="298.2" cy="407.9" r="0.4"/>
	<circle cx="293.1" cy="382.4" r="0.4"/>
	<circle cx="293.1" cy="387.5" r="0.4"/>
	<circle cx="293.1" cy="392.6" r="0.4"/>
	<circle cx="293.1" cy="397.7" r="0.4"/>
	<circle cx="293.1" cy="402.8" r="0.4"/>
	<circle cx="293.1" cy="407.9" r="0.4"/>
	<circle cx="226.3" cy="372.3" r="0.4"/>
	<circle cx="226.3" cy="377.3" r="0.4"/>
	<circle cx="226.3" cy="382.4" r="0.4"/>
	<circle cx="226.3" cy="387.5" r="0.4"/>
	<circle cx="226.3" cy="392.6" r="0.4"/>
	<circle cx="226.3" cy="397.7" r="0.4"/>
	<circle cx="221.2" cy="372.3" r="0.4"/>
	<circle cx="221.2" cy="377.3" r="0.4"/>
	<circle cx="221.2" cy="382.4" r="0.4"/>
	<circle cx="221.2" cy="387.5" r="0.4"/>
	<circle cx="221.2" cy="392.6" r="0.4"/>
	<circle cx="221.2" cy="397.7" r="0.4"/>
	<circle cx="216.1" cy="372.3" r="0.4"/>
	<circle cx="216.1" cy="377.3" r="0.4"/>
	<circle cx="216.1" cy="382.4" r="0.4"/>
	<circle cx="216.1" cy="387.5" r="0.4"/>
	<circle cx="216.1" cy="392.6" r="0.4"/>
	<circle cx="216.1" cy="397.7" r="0.4"/>
	<circle cx="211" cy="372.3" r="0.4"/>
	<circle cx="211" cy="377.3" r="0.4"/>
	<circle cx="211" cy="382.4" r="0.4"/>
	<circle cx="211" cy="387.5" r="0.4"/>
	<circle cx="211" cy="392.6" r="0.4"/>
	<circle cx="211" cy="397.7" r="0.4"/>
	<circle cx="205.9" cy="372.3" r="0.4"/>
	<circle cx="205.9" cy="377.3" r="0.4"/>
	<circle cx="205.9" cy="382.4" r="0.4"/>
	<circle cx="205.9" cy="387.5" r="0.4"/>
	<circle cx="205.9" cy="392.6" r="0.4"/>
	<circle cx="205.9" cy="397.7" r="0.4"/>
	<circle cx="200.8" cy="372.3" r="0.4"/>
	<circle cx="200.8" cy="377.3" r="0.4"/>
	<circle cx="200.8" cy="382.4" r="0.4"/>
	<circle cx="200.8" cy="387.5" r="0.4"/>
	<circle cx="200.8" cy="392.6" r="0.4"/>
	<circle cx="200.8" cy="397.7" r="0.4"/>
	<circle cx="195.7" cy="372.3" r="0.4"/>
	<circle cx="195.7" cy="377.3" r="0.4"/>
	<circle cx="195.7" cy="382.4" r="0.4"/>
	<circle cx="195.7" cy="387.5" r="0.4"/>
	<circle cx="195.7" cy="392.6" r="0.4"/>
	<circle cx="195.7" cy="397.7" r="0.4"/>
	<circle cx="190.6" cy="372.3" r="0.4"/>
	<circle cx="190.6" cy="377.3" r="0.4"/>
	<circle cx="190.6" cy="382.4" r="0.4"/>
	<circle cx="190.6" cy="387.5" r="0.4"/>
	<circle cx="190.6" cy="392.6" r="0.4"/>
	<circle cx="190.6" cy="397.7" r="0.4"/>
	<circle cx="185.6" cy="372.3" r="0.4"/>
	<circle cx="185.6" cy="377.3" r="0.4"/>
	<circle cx="185.6" cy="382.4" r="0.4"/>
	<circle cx="185.6" cy="387.5" r="0.4"/>
	<circle cx="185.6" cy="392.6" r="0.4"/>
	<circle cx="185.6" cy="397.7" r="0.4"/>
	<circle cx="180.5" cy="372.3" r="0.4"/>
	<circle cx="180.5" cy="377.3" r="0.4"/>
	<circle cx="180.5" cy="382.4" r="0.4"/>
	<circle cx="180.5" cy="387.5" r="0.4"/>
	<circle cx="180.5" cy="392.6" r="0.4"/>
	<circle cx="180.5" cy="397.7" r="0.4"/>
	<circle cx="175.4" cy="372.3" r="0.4"/>
	<circle cx="175.4" cy="377.3" r="0.4"/>
	<circle cx="175.4" cy="382.4" r="0.4"/>
	<circle cx="175.4" cy="387.5" r="0.4"/>
	<circle cx="175.4" cy="392.6" r="0.4"/>
	<circle cx="175.4" cy="397.7" r="0.4"/>
	<circle cx="170.3" cy="372.3" r="0.4"/>
	<circle cx="170.3" cy="377.3" r="0.4"/>
	<circle cx="170.3" cy="382.4" r="0.4"/>
	<circle cx="170.3" cy="387.5" r="0.4"/>
	<circle cx="170.3" cy="392.6" r="0.4"/>
	<circle cx="170.3" cy="397.7" r="0.4"/>
	<circle cx="165.2" cy="372.3" r="0.4"/>
	<circle cx="165.2" cy="377.3" r="0.4"/>
	<circle cx="165.2" cy="382.4" r="0.4"/>
	<circle cx="165.2" cy="387.5" r="0.4"/>
	<circle cx="165.2" cy="392.6" r="0.4"/>
	<circle cx="165.2" cy="397.7" r="0.4"/>
	<circle cx="160.1" cy="372.3" r="0.4"/>
	<circle cx="160.1" cy="377.3" r="0.4"/>
	<circle cx="160.1" cy="382.4" r="0.4"/>
	<circle cx="160.1" cy="387.5" r="0.4"/>
	<circle cx="160.1" cy="392.6" r="0.4"/>
	<circle cx="160.1" cy="397.7" r="0.4"/>
	<circle cx="155" cy="372.3" r="0.4"/>
	<circle cx="155" cy="377.3" r="0.4"/>
	<circle cx="155" cy="382.4" r="0.4"/>
	<circle cx="155" cy="387.5" r="0.4"/>
	<circle cx="155" cy="392.6" r="0.4"/>
	<circle cx="155" cy="397.7" r="0.4"/>
	<circle cx="149.9" cy="372.3" r="0.4"/>
	<circle cx="149.9" cy="377.3" r="0.4"/>
	<circle cx="149.9" cy="382.4" r="0.4"/>
	<circle cx="149.9" cy="387.5" r="0.4"/>
	<circle cx="149.9" cy="392.6" r="0.4"/>
	<circle cx="149.9" cy="397.7" r="0.4"/>
	<circle cx="144.8" cy="372.3" r="0.4"/>
	<circle cx="144.8" cy="377.3" r="0.4"/>
	<circle cx="144.8" cy="382.4" r="0.4"/>
	<circle cx="144.8" cy="387.5" r="0.4"/>
	<circle cx="144.8" cy="392.6" r="0.4"/>
	<circle cx="144.8" cy="397.7" r="0.4"/>
	<circle cx="139.7" cy="372.3" r="0.4"/>
	<circle cx="139.7" cy="377.3" r="0.4"/>
	<circle cx="139.7" cy="382.4" r="0.4"/>
	<circle cx="139.7" cy="387.5" r="0.4"/>
	<circle cx="139.7" cy="392.6" r="0.4"/>
	<circle cx="139.7" cy="397.7" r="0.4"/>
	<circle cx="134.7" cy="372.3" r="0.4"/>
	<circle cx="134.7" cy="377.3" r="0.4"/>
	<circle cx="134.7" cy="382.4" r="0.4"/>
	<circle cx="134.7" cy="387.5" r="0.4"/>
	<circle cx="134.7" cy="392.6" r="0.4"/>
	<circle cx="134.7" cy="397.7" r="0.4"/>
	<circle cx="129.6" cy="372.3" r="0.4"/>
	<circle cx="129.6" cy="377.3" r="0.4"/>
	<circle cx="129.6" cy="382.4" r="0.4"/>
	<circle cx="129.6" cy="387.5" r="0.4"/>
	<circle cx="129.6" cy="392.6" r="0.4"/>
	<circle cx="129.6" cy="397.7" r="0.4"/>
	<circle cx="124.5" cy="372.3" r="0.4"/>
	<circle cx="124.5" cy="377.3" r="0.4"/>
	<circle cx="119.4" cy="372.3" r="0.4"/>
	<circle cx="119.4" cy="377.3" r="0.4"/>
	<circle cx="114.3" cy="372.3" r="0.4"/>
	<circle cx="114.3" cy="377.3" r="0.4"/>
	<circle cx="109.2" cy="372.3" r="0.4"/>
	<circle cx="109.2" cy="377.3" r="0.4"/>
	<circle cx="104.1" cy="372.3" r="0.4"/>
	<circle cx="104.1" cy="377.3" r="0.4"/>
	<circle cx="99" cy="372.3" r="0.4"/>
	<circle cx="99" cy="377.3" r="0.4"/>
	<circle cx="93.9" cy="372.3" r="0.4"/>
	<circle cx="93.9" cy="377.3" r="0.4"/>
	<circle cx="88.8" cy="372.3" r="0.4"/>
	<circle cx="88.8" cy="377.3" r="0.4"/>
	<circle cx="88.8" cy="382.4" r="0.4"/>
	<circle cx="88.8" cy="387.5" r="0.4"/>
</g>
</svg>
