<?xml version="1.0" encoding="utf-8"?>
<!-- Generator: Adobe Illustrator 19.1.0, SVG Export Plug-In . SVG Version: 6.00 Build 0)  -->
<svg version="1.1" id="Layer_1" xmlns="http://www.w3.org/2000/svg" xmlns:xlink="http://www.w3.org/1999/xlink" x="0px" y="0px"
	 viewBox="-201 331 209 131" style="enable-background:new -201 331 209 131;" xml:space="preserve">
<g id="_x30_6">
	<g>
		<circle cx="-188.6" cy="432.9" r="0.4"/>
		<circle cx="-188.6" cy="427.9" r="0.4"/>
		<circle cx="-188.6" cy="422.8" r="0.4"/>
		<circle cx="-188.6" cy="417.7" r="0.4"/>
		<circle cx="-188.6" cy="412.6" r="0.4"/>
		<circle cx="-188.6" cy="407.5" r="0.4"/>
		<circle cx="-188.6" cy="402.4" r="0.4"/>
		<circle cx="-188.6" cy="397.3" r="0.4"/>
		<circle cx="-183.5" cy="432.9" r="0.4"/>
		<circle cx="-183.5" cy="427.9" r="0.4"/>
		<circle cx="-183.5" cy="422.8" r="0.4"/>
		<circle cx="-183.5" cy="417.7" r="0.4"/>
		<circle cx="-183.5" cy="412.6" r="0.4"/>
		<circle cx="-183.5" cy="407.5" r="0.4"/>
		<circle cx="-183.5" cy="402.4" r="0.4"/>
		<circle cx="-183.5" cy="397.3" r="0.4"/>
		<circle cx="-178.4" cy="432.9" r="0.4"/>
		<circle cx="-178.4" cy="427.9" r="0.4"/>
		<circle cx="-178.4" cy="422.8" r="0.4"/>
		<circle cx="-178.4" cy="417.7" r="0.4"/>
		<circle cx="-178.4" cy="412.6" r="0.4"/>
		<circle cx="-178.4" cy="407.5" r="0.4"/>
		<circle cx="-178.4" cy="402.4" r="0.4"/>
		<circle cx="-178.4" cy="397.3" r="0.4"/>
		<circle cx="-173.3" cy="432.9" r="0.4"/>
		<circle cx="-173.3" cy="427.9" r="0.4"/>
		<circle cx="-173.3" cy="422.8" r="0.4"/>
		<circle cx="-173.3" cy="417.7" r="0.4"/>
		<circle cx="-173.3" cy="412.6" r="0.4"/>
		<circle cx="-173.3" cy="407.5" r="0.4"/>
		<circle cx="-173.3" cy="402.4" r="0.4"/>
		<circle cx="-173.3" cy="397.3" r="0.4"/>
		<circle cx="-168.3" cy="432.9" r="0.4"/>
		<circle cx="-168.3" cy="427.9" r="0.4"/>
		<circle cx="-168.3" cy="422.8" r="0.4"/>
		<circle cx="-168.3" cy="417.7" r="0.4"/>
		<circle cx="-168.3" cy="412.6" r="0.4"/>
		<circle cx="-168.3" cy="407.5" r="0.4"/>
		<circle cx="-168.3" cy="402.4" r="0.4"/>
		<circle cx="-168.3" cy="397.3" r="0.4"/>
		<circle cx="-163.2" cy="432.9" r="0.4"/>
		<circle cx="-163.2" cy="427.9" r="0.4"/>
		<circle cx="-163.2" cy="422.8" r="0.4"/>
		<circle cx="-163.2" cy="417.7" r="0.4"/>
		<circle cx="-163.2" cy="412.6" r="0.4"/>
		<circle cx="-163.2" cy="407.5" r="0.4"/>
		<circle cx="-163.2" cy="402.4" r="0.4"/>
		<circle cx="-163.2" cy="397.3" r="0.4"/>
		<circle cx="-158.1" cy="432.9" r="0.4"/>
		<circle cx="-158.1" cy="427.9" r="0.4"/>
		<circle cx="-158.1" cy="422.8" r="0.4"/>
		<circle cx="-158.1" cy="417.7" r="0.4"/>
		<circle cx="-158.1" cy="412.6" r="0.4"/>
		<circle cx="-158.1" cy="407.5" r="0.4"/>
		<circle cx="-158.1" cy="402.4" r="0.4"/>
		<circle cx="-158.1" cy="397.3" r="0.4"/>
		<circle cx="-153" cy="432.9" r="0.4"/>
		<circle cx="-153" cy="427.9" r="0.4"/>
		<circle cx="-153" cy="422.8" r="0.4"/>
		<circle cx="-153" cy="417.7" r="0.4"/>
		<circle cx="-153" cy="412.6" r="0.4"/>
		<circle cx="-153" cy="407.5" r="0.4"/>
		<circle cx="-153" cy="402.4" r="0.4"/>
		<circle cx="-153" cy="397.3" r="0.4"/>
		<circle cx="-147.9" cy="432.9" r="0.4"/>
		<circle cx="-147.9" cy="427.9" r="0.4"/>
		<circle cx="-147.9" cy="422.8" r="0.4"/>
		<circle cx="-147.9" cy="417.7" r="0.4"/>
		<circle cx="-147.9" cy="412.6" r="0.4"/>
		<circle cx="-147.9" cy="407.5" r="0.4"/>
		<circle cx="-147.9" cy="402.4" r="0.4"/>
		<circle cx="-147.9" cy="397.3" r="0.4"/>
		<circle cx="-142.8" cy="432.9" r="0.4"/>
		<circle cx="-142.8" cy="427.9" r="0.4"/>
		<circle cx="-142.8" cy="422.8" r="0.4"/>
		<circle cx="-142.8" cy="417.7" r="0.4"/>
		<circle cx="-142.8" cy="412.6" r="0.4"/>
		<circle cx="-142.8" cy="407.5" r="0.4"/>
		<circle cx="-142.8" cy="402.4" r="0.4"/>
		<circle cx="-142.8" cy="397.3" r="0.4"/>
		<circle cx="-137.7" cy="432.9" r="0.4"/>
		<circle cx="-137.7" cy="427.9" r="0.4"/>
		<circle cx="-137.7" cy="422.8" r="0.4"/>
		<circle cx="-137.7" cy="417.7" r="0.4"/>
		<circle cx="-137.7" cy="412.6" r="0.4"/>
		<circle cx="-137.7" cy="407.5" r="0.4"/>
		<circle cx="-137.7" cy="402.4" r="0.4"/>
		<circle cx="-137.7" cy="397.3" r="0.4"/>
		<circle cx="-132.6" cy="432.9" r="0.4"/>
		<circle cx="-132.6" cy="427.9" r="0.4"/>
		<circle cx="-132.6" cy="422.8" r="0.4"/>
		<circle cx="-132.6" cy="417.7" r="0.4"/>
		<circle cx="-132.6" cy="412.6" r="0.4"/>
		<circle cx="-132.6" cy="407.5" r="0.4"/>
		<circle cx="-132.6" cy="402.4" r="0.4"/>
		<circle cx="-132.6" cy="397.3" r="0.4"/>
		<circle cx="-127.5" cy="432.9" r="0.4"/>
		<circle cx="-127.5" cy="427.9" r="0.4"/>
		<circle cx="-127.5" cy="422.8" r="0.4"/>
		<circle cx="-127.5" cy="417.7" r="0.4"/>
		<circle cx="-127.5" cy="412.6" r="0.4"/>
		<circle cx="-127.5" cy="407.5" r="0.4"/>
		<circle cx="-127.5" cy="402.4" r="0.4"/>
		<circle cx="-127.5" cy="397.3" r="0.4"/>
		<circle cx="-122.4" cy="432.9" r="0.4"/>
		<circle cx="-122.4" cy="427.9" r="0.4"/>
		<circle cx="-122.4" cy="422.8" r="0.4"/>
		<circle cx="-122.4" cy="417.7" r="0.4"/>
		<circle cx="-122.4" cy="412.6" r="0.4"/>
		<circle cx="-122.4" cy="407.5" r="0.4"/>
		<circle cx="-122.4" cy="402.4" r="0.4"/>
		<circle cx="-122.4" cy="397.3" r="0.4"/>
		<circle cx="-117.4" cy="453.3" r="0.4"/>
		<circle cx="-117.4" cy="448.2" r="0.4"/>
		<circle cx="-117.4" cy="443.1" r="0.4"/>
		<circle cx="-117.4" cy="438" r="0.4"/>
		<circle cx="-117.4" cy="432.9" r="0.4"/>
		<circle cx="-117.4" cy="427.9" r="0.4"/>
		<circle cx="-117.4" cy="422.8" r="0.4"/>
		<circle cx="-117.4" cy="417.7" r="0.4"/>
		<circle cx="-117.4" cy="412.6" r="0.4"/>
		<circle cx="-117.4" cy="407.5" r="0.4"/>
		<circle cx="-117.4" cy="402.4" r="0.4"/>
		<circle cx="-117.4" cy="397.3" r="0.4"/>
		<circle cx="-112.3" cy="453.3" r="0.4"/>
		<circle cx="-112.3" cy="448.2" r="0.4"/>
		<circle cx="-112.3" cy="443.1" r="0.4"/>
		<circle cx="-112.3" cy="438" r="0.4"/>
		<circle cx="-112.3" cy="432.9" r="0.4"/>
		<circle cx="-112.3" cy="427.9" r="0.4"/>
		<circle cx="-112.3" cy="422.8" r="0.4"/>
		<circle cx="-112.3" cy="417.7" r="0.4"/>
		<circle cx="-112.3" cy="412.6" r="0.4"/>
		<circle cx="-112.3" cy="407.5" r="0.4"/>
		<circle cx="-112.3" cy="402.4" r="0.4"/>
		<circle cx="-112.3" cy="397.3" r="0.4"/>
		<circle cx="-107.2" cy="453.3" r="0.4"/>
		<circle cx="-107.2" cy="448.2" r="0.4"/>
		<circle cx="-107.2" cy="443.1" r="0.4"/>
		<circle cx="-107.2" cy="438" r="0.4"/>
		<circle cx="-107.2" cy="432.9" r="0.4"/>
		<circle cx="-107.2" cy="427.9" r="0.4"/>
		<circle cx="-107.2" cy="422.8" r="0.4"/>
		<circle cx="-107.2" cy="417.7" r="0.4"/>
		<circle cx="-107.2" cy="412.6" r="0.4"/>
		<circle cx="-107.2" cy="407.5" r="0.4"/>
		<circle cx="-107.2" cy="402.4" r="0.4"/>
		<circle cx="-107.2" cy="397.3" r="0.4"/>
		<circle cx="-102.1" cy="453.3" r="0.4"/>
		<circle cx="-102.1" cy="448.2" r="0.4"/>
		<circle cx="-102.1" cy="443.1" r="0.4"/>
		<circle cx="-102.1" cy="438" r="0.4"/>
		<circle cx="-102.1" cy="432.9" r="0.4"/>
		<circle cx="-102.1" cy="427.9" r="0.4"/>
		<circle cx="-102.1" cy="422.8" r="0.4"/>
		<circle cx="-102.1" cy="417.7" r="0.4"/>
		<circle cx="-102.1" cy="412.6" r="0.4"/>
		<circle cx="-102.1" cy="407.5" r="0.4"/>
		<circle cx="-102.1" cy="402.4" r="0.4"/>
		<circle cx="-102.1" cy="397.3" r="0.4"/>
		<circle cx="-97" cy="453.3" r="0.4"/>
		<circle cx="-97" cy="448.2" r="0.4"/>
		<circle cx="-97" cy="443.1" r="0.4"/>
		<circle cx="-97" cy="438" r="0.4"/>
		<circle cx="-97" cy="432.9" r="0.4"/>
		<circle cx="-97" cy="427.9" r="0.4"/>
		<circle cx="-97" cy="422.8" r="0.4"/>
		<circle cx="-97" cy="417.7" r="0.4"/>
		<circle cx="-97" cy="412.6" r="0.4"/>
		<circle cx="-97" cy="407.5" r="0.4"/>
		<circle cx="-97" cy="402.4" r="0.4"/>
		<circle cx="-97" cy="397.3" r="0.4"/>
		<circle cx="-91.9" cy="453.3" r="0.4"/>
		<circle cx="-91.9" cy="448.2" r="0.4"/>
		<circle cx="-91.9" cy="443.1" r="0.4"/>
		<circle cx="-91.9" cy="438" r="0.4"/>
		<circle cx="-91.9" cy="432.9" r="0.4"/>
		<circle cx="-91.9" cy="427.9" r="0.4"/>
		<circle cx="-91.9" cy="422.8" r="0.4"/>
		<circle cx="-91.9" cy="417.7" r="0.4"/>
		<circle cx="-91.9" cy="412.6" r="0.4"/>
		<circle cx="-91.9" cy="407.5" r="0.4"/>
		<circle cx="-91.9" cy="402.4" r="0.4"/>
		<circle cx="-91.9" cy="397.3" r="0.4"/>
		<circle cx="-86.8" cy="453.3" r="0.4"/>
		<circle cx="-86.8" cy="448.2" r="0.4"/>
		<circle cx="-86.8" cy="443.1" r="0.4"/>
		<circle cx="-86.8" cy="438" r="0.4"/>
		<circle cx="-86.8" cy="432.9" r="0.4"/>
		<circle cx="-86.8" cy="427.9" r="0.4"/>
		<circle cx="-86.8" cy="422.8" r="0.4"/>
		<circle cx="-86.8" cy="417.7" r="0.4"/>
		<circle cx="-86.8" cy="412.6" r="0.4"/>
		<circle cx="-86.8" cy="407.5" r="0.4"/>
		<circle cx="-86.8" cy="402.4" r="0.4"/>
		<circle cx="-86.8" cy="397.3" r="0.4"/>
		<circle cx="-81.7" cy="453.3" r="0.4"/>
		<circle cx="-81.7" cy="448.2" r="0.4"/>
		<circle cx="-81.7" cy="443.1" r="0.4"/>
		<circle cx="-81.7" cy="438" r="0.4"/>
		<circle cx="-81.7" cy="432.9" r="0.4"/>
		<circle cx="-81.7" cy="427.9" r="0.4"/>
		<circle cx="-81.7" cy="422.8" r="0.4"/>
		<circle cx="-81.7" cy="417.7" r="0.4"/>
		<circle cx="-81.7" cy="412.6" r="0.4"/>
		<circle cx="-81.7" cy="407.5" r="0.4"/>
		<circle cx="-81.7" cy="402.4" r="0.4"/>
		<circle cx="-81.7" cy="397.3" r="0.4"/>
		<circle cx="-76.6" cy="453.3" r="0.4"/>
		<circle cx="-76.6" cy="448.2" r="0.4"/>
		<circle cx="-76.6" cy="443.1" r="0.4"/>
		<circle cx="-76.6" cy="438" r="0.4"/>
		<circle cx="-76.6" cy="432.9" r="0.4"/>
		<circle cx="-76.6" cy="427.9" r="0.4"/>
		<circle cx="-76.6" cy="422.8" r="0.4"/>
		<circle cx="-76.6" cy="417.7" r="0.4"/>
		<circle cx="-76.6" cy="412.6" r="0.4"/>
		<circle cx="-76.6" cy="407.5" r="0.4"/>
		<circle cx="-76.6" cy="402.4" r="0.4"/>
		<circle cx="-76.6" cy="397.3" r="0.4"/>
		<circle cx="-71.6" cy="453.3" r="0.4"/>
		<circle cx="-71.6" cy="448.2" r="0.4"/>
		<circle cx="-71.6" cy="443.1" r="0.4"/>
		<circle cx="-71.6" cy="438" r="0.4"/>
		<circle cx="-71.6" cy="432.9" r="0.4"/>
		<circle cx="-71.6" cy="427.9" r="0.4"/>
		<circle cx="-71.6" cy="422.8" r="0.4"/>
		<circle cx="-71.6" cy="417.7" r="0.4"/>
		<circle cx="-71.6" cy="412.6" r="0.4"/>
		<circle cx="-71.6" cy="407.5" r="0.4"/>
		<circle cx="-71.6" cy="402.4" r="0.4"/>
		<circle cx="-71.6" cy="397.3" r="0.4"/>
		<circle cx="-66.5" cy="453.3" r="0.4"/>
		<circle cx="-66.5" cy="448.2" r="0.4"/>
		<circle cx="-66.5" cy="443.1" r="0.4"/>
		<circle cx="-66.5" cy="438" r="0.4"/>
		<circle cx="-66.5" cy="432.9" r="0.4"/>
		<circle cx="-66.5" cy="427.9" r="0.4"/>
		<circle cx="-66.5" cy="422.8" r="0.4"/>
		<circle cx="-66.5" cy="417.7" r="0.4"/>
		<circle cx="-66.5" cy="412.6" r="0.4"/>
		<circle cx="-66.5" cy="407.5" r="0.4"/>
		<circle cx="-66.5" cy="402.4" r="0.4"/>
		<circle cx="-66.5" cy="397.3" r="0.4"/>
		<circle cx="-61.4" cy="453.3" r="0.4"/>
		<circle cx="-61.4" cy="448.2" r="0.4"/>
		<circle cx="-61.4" cy="443.1" r="0.4"/>
		<circle cx="-61.4" cy="438" r="0.4"/>
		<circle cx="-61.4" cy="432.9" r="0.4"/>
		<circle cx="-61.4" cy="427.9" r="0.4"/>
		<circle cx="-61.4" cy="422.8" r="0.4"/>
		<circle cx="-61.4" cy="417.7" r="0.4"/>
		<circle cx="-61.4" cy="412.6" r="0.4"/>
		<circle cx="-61.4" cy="407.5" r="0.4"/>
		<circle cx="-61.4" cy="402.4" r="0.4"/>
		<circle cx="-61.4" cy="397.3" r="0.4"/>
		<circle cx="-56.3" cy="453.3" r="0.4"/>
		<circle cx="-56.3" cy="448.2" r="0.4"/>
		<circle cx="-56.3" cy="443.1" r="0.4"/>
		<circle cx="-56.3" cy="438" r="0.4"/>
		<circle cx="-56.3" cy="432.9" r="0.4"/>
		<circle cx="-56.3" cy="427.9" r="0.4"/>
		<circle cx="-56.3" cy="422.8" r="0.4"/>
		<circle cx="-56.3" cy="417.7" r="0.4"/>
		<circle cx="-56.3" cy="412.6" r="0.4"/>
		<circle cx="-56.3" cy="407.5" r="0.4"/>
		<circle cx="-56.3" cy="402.4" r="0.4"/>
		<circle cx="-56.3" cy="397.3" r="0.4"/>
		<circle cx="-51.2" cy="453.3" r="0.4"/>
		<circle cx="-51.2" cy="448.2" r="0.4"/>
		<circle cx="-51.2" cy="443.1" r="0.4"/>
		<circle cx="-51.2" cy="438" r="0.4"/>
		<circle cx="-51.2" cy="432.9" r="0.4"/>
		<circle cx="-51.2" cy="427.9" r="0.4"/>
		<circle cx="-51.2" cy="422.8" r="0.4"/>
		<circle cx="-51.2" cy="417.7" r="0.4"/>
		<circle cx="-51.2" cy="412.6" r="0.4"/>
		<circle cx="-51.2" cy="407.5" r="0.4"/>
		<circle cx="-51.2" cy="402.4" r="0.4"/>
		<circle cx="-51.2" cy="397.3" r="0.4"/>
		<circle cx="-46.1" cy="453.3" r="0.4"/>
		<circle cx="-46.1" cy="448.2" r="0.4"/>
		<circle cx="-46.1" cy="443.1" r="0.4"/>
		<circle cx="-46.1" cy="438" r="0.4"/>
		<circle cx="-46.1" cy="432.9" r="0.4"/>
		<circle cx="-46.1" cy="427.9" r="0.4"/>
		<circle cx="-46.1" cy="422.8" r="0.4"/>
		<circle cx="-46.1" cy="417.7" r="0.4"/>
		<circle cx="-46.1" cy="412.6" r="0.4"/>
		<circle cx="-46.1" cy="407.5" r="0.4"/>
		<circle cx="-46.1" cy="402.4" r="0.4"/>
		<circle cx="-46.1" cy="397.3" r="0.4"/>
		<circle cx="-41" cy="453.3" r="0.4"/>
		<circle cx="-41" cy="448.2" r="0.4"/>
		<circle cx="-41" cy="443.1" r="0.4"/>
		<circle cx="-41" cy="438" r="0.4"/>
		<circle cx="-41" cy="432.9" r="0.4"/>
		<circle cx="-41" cy="427.9" r="0.4"/>
		<circle cx="-41" cy="422.8" r="0.4"/>
		<circle cx="-41" cy="417.7" r="0.4"/>
		<circle cx="-41" cy="412.6" r="0.4"/>
		<circle cx="-41" cy="407.5" r="0.4"/>
		<circle cx="-41" cy="402.4" r="0.4"/>
		<circle cx="-41" cy="397.3" r="0.4"/>
		<circle cx="-35.9" cy="453.3" r="0.4"/>
		<circle cx="-35.9" cy="448.2" r="0.4"/>
		<circle cx="-35.9" cy="443.1" r="0.4"/>
		<circle cx="-35.9" cy="438" r="0.4"/>
		<circle cx="-35.9" cy="432.9" r="0.4"/>
		<circle cx="-35.9" cy="427.9" r="0.4"/>
		<circle cx="-35.9" cy="422.8" r="0.4"/>
		<circle cx="-35.9" cy="417.7" r="0.4"/>
		<circle cx="-35.9" cy="412.6" r="0.4"/>
		<circle cx="-35.9" cy="407.5" r="0.4"/>
		<circle cx="-35.9" cy="402.4" r="0.4"/>
		<circle cx="-35.9" cy="397.3" r="0.4"/>
		<circle cx="-30.8" cy="453.3" r="0.4"/>
		<circle cx="-30.8" cy="448.2" r="0.4"/>
		<circle cx="-30.8" cy="443.1" r="0.4"/>
		<circle cx="-30.8" cy="438" r="0.4"/>
		<circle cx="-30.8" cy="432.9" r="0.4"/>
		<circle cx="-30.8" cy="427.9" r="0.4"/>
		<circle cx="-30.8" cy="422.8" r="0.4"/>
		<circle cx="-30.8" cy="417.7" r="0.4"/>
		<circle cx="-30.8" cy="412.6" r="0.4"/>
		<circle cx="-30.8" cy="407.5" r="0.4"/>
		<circle cx="-30.8" cy="402.4" r="0.4"/>
		<circle cx="-30.8" cy="397.3" r="0.4"/>
		<circle cx="-25.7" cy="453.3" r="0.4"/>
		<circle cx="-25.7" cy="448.2" r="0.4"/>
		<circle cx="-25.7" cy="443.1" r="0.4"/>
		<circle cx="-25.7" cy="438" r="0.4"/>
		<circle cx="-25.7" cy="432.9" r="0.4"/>
		<circle cx="-25.7" cy="427.9" r="0.4"/>
		<circle cx="-25.7" cy="422.8" r="0.4"/>
		<circle cx="-25.7" cy="417.7" r="0.4"/>
		<circle cx="-25.7" cy="412.6" r="0.4"/>
		<circle cx="-25.7" cy="407.5" r="0.4"/>
		<circle cx="-25.7" cy="402.4" r="0.4"/>
		<circle cx="-25.7" cy="397.3" r="0.4"/>
		<circle cx="-188.6" cy="392.2" r="0.4"/>
		<circle cx="-183.5" cy="392.2" r="0.4"/>
		<circle cx="-178.4" cy="392.2" r="0.4"/>
		<circle cx="-173.3" cy="392.2" r="0.4"/>
		<circle cx="-168.3" cy="392.2" r="0.4"/>
		<circle cx="-163.2" cy="392.2" r="0.4"/>
		<circle cx="-158.1" cy="392.2" r="0.4"/>
		<circle cx="-153" cy="392.2" r="0.4"/>
		<circle cx="-147.9" cy="392.2" r="0.4"/>
		<circle cx="-142.8" cy="392.2" r="0.4"/>
		<circle cx="-137.7" cy="392.2" r="0.4"/>
		<circle cx="-132.6" cy="392.2" r="0.4"/>
		<circle cx="-127.5" cy="392.2" r="0.4"/>
		<circle cx="-122.4" cy="392.2" r="0.4"/>
		<circle cx="-117.4" cy="392.2" r="0.4"/>
		<circle cx="-112.3" cy="392.2" r="0.4"/>
		<circle cx="-107.2" cy="392.2" r="0.4"/>
		<circle cx="-102.1" cy="392.2" r="0.4"/>
		<circle cx="-97" cy="392.2" r="0.4"/>
		<circle cx="-91.9" cy="392.2" r="0.4"/>
		<circle cx="-86.8" cy="392.2" r="0.4"/>
		<circle cx="-81.7" cy="392.2" r="0.4"/>
		<circle cx="-76.6" cy="392.2" r="0.4"/>
		<circle cx="-71.6" cy="392.2" r="0.4"/>
		<circle cx="-66.5" cy="392.2" r="0.4"/>
		<circle cx="-61.4" cy="392.2" r="0.4"/>
		<circle cx="-56.3" cy="392.2" r="0.4"/>
		<circle cx="-51.2" cy="392.2" r="0.4"/>
		<circle cx="-46.1" cy="392.2" r="0.4"/>
		<circle cx="-41" cy="392.2" r="0.4"/>
		<circle cx="-35.9" cy="392.2" r="0.4"/>
		<circle cx="-30.8" cy="392.2" r="0.4"/>
		<circle cx="-25.7" cy="392.2" r="0.4"/>
		<circle cx="-188.6" cy="387.1" r="0.4"/>
		<circle cx="-183.5" cy="387.1" r="0.4"/>
		<circle cx="-178.4" cy="387.1" r="0.4"/>
		<circle cx="-173.3" cy="387.1" r="0.4"/>
		<circle cx="-168.3" cy="387.1" r="0.4"/>
		<circle cx="-163.2" cy="387.1" r="0.4"/>
		<circle cx="-158.1" cy="387.1" r="0.4"/>
		<circle cx="-153" cy="387.1" r="0.4"/>
		<circle cx="-147.9" cy="387.1" r="0.4"/>
		<circle cx="-142.8" cy="387.1" r="0.4"/>
		<circle cx="-137.7" cy="387.1" r="0.4"/>
		<circle cx="-132.6" cy="387.1" r="0.4"/>
		<circle cx="-127.5" cy="387.1" r="0.4"/>
		<circle cx="-122.4" cy="387.1" r="0.4"/>
		<circle cx="-117.4" cy="387.1" r="0.4"/>
		<circle cx="-112.3" cy="387.1" r="0.4"/>
		<circle cx="-107.2" cy="387.1" r="0.4"/>
		<circle cx="-102.1" cy="387.1" r="0.4"/>
		<circle cx="-97" cy="387.1" r="0.4"/>
		<circle cx="-91.9" cy="387.1" r="0.4"/>
		<circle cx="-86.8" cy="387.1" r="0.4"/>
		<circle cx="-81.7" cy="387.1" r="0.4"/>
		<circle cx="-76.6" cy="387.1" r="0.4"/>
		<circle cx="-71.6" cy="387.1" r="0.4"/>
		<circle cx="-66.5" cy="387.1" r="0.4"/>
		<circle cx="-61.4" cy="387.1" r="0.4"/>
		<circle cx="-56.3" cy="387.1" r="0.4"/>
		<circle cx="-51.2" cy="387.1" r="0.4"/>
		<circle cx="-46.1" cy="387.1" r="0.4"/>
		<circle cx="-41" cy="387.1" r="0.4"/>
		<circle cx="-35.9" cy="387.1" r="0.4"/>
		<circle cx="-30.8" cy="387.1" r="0.4"/>
		<circle cx="-25.7" cy="387.1" r="0.4"/>
		<circle cx="-188.6" cy="382" r="0.4"/>
		<circle cx="-183.5" cy="382" r="0.4"/>
		<circle cx="-178.4" cy="382" r="0.4"/>
		<circle cx="-173.3" cy="382" r="0.4"/>
		<circle cx="-168.3" cy="382" r="0.4"/>
		<circle cx="-163.2" cy="382" r="0.4"/>
		<circle cx="-158.1" cy="382" r="0.4"/>
		<circle cx="-153" cy="382" r="0.4"/>
		<circle cx="-147.9" cy="382" r="0.4"/>
		<circle cx="-142.8" cy="382" r="0.4"/>
		<circle cx="-137.7" cy="382" r="0.4"/>
		<circle cx="-132.6" cy="382" r="0.4"/>
		<circle cx="-127.5" cy="382" r="0.4"/>
		<circle cx="-122.4" cy="382" r="0.4"/>
		<circle cx="-117.4" cy="382" r="0.4"/>
		<circle cx="-112.3" cy="382" r="0.4"/>
		<circle cx="-107.2" cy="382" r="0.4"/>
		<circle cx="-102.1" cy="382" r="0.4"/>
		<circle cx="-97" cy="382" r="0.4"/>
		<circle cx="-91.9" cy="382" r="0.4"/>
		<circle cx="-86.8" cy="382" r="0.4"/>
		<circle cx="-81.7" cy="382" r="0.4"/>
		<circle cx="-76.6" cy="382" r="0.4"/>
		<circle cx="-71.6" cy="382" r="0.4"/>
		<circle cx="-66.5" cy="382" r="0.4"/>
		<circle cx="-61.4" cy="382" r="0.4"/>
		<circle cx="-56.3" cy="382" r="0.4"/>
		<circle cx="-51.2" cy="382" r="0.4"/>
		<circle cx="-46.1" cy="382" r="0.4"/>
		<circle cx="-41" cy="382" r="0.4"/>
		<circle cx="-35.9" cy="382" r="0.4"/>
		<circle cx="-30.8" cy="382" r="0.4"/>
		<circle cx="-25.7" cy="382" r="0.4"/>
		<circle cx="-188.6" cy="376.9" r="0.4"/>
		<circle cx="-183.5" cy="376.9" r="0.4"/>
		<circle cx="-178.4" cy="376.9" r="0.4"/>
		<circle cx="-173.3" cy="376.9" r="0.4"/>
		<circle cx="-168.3" cy="376.9" r="0.4"/>
		<circle cx="-163.2" cy="376.9" r="0.4"/>
		<circle cx="-158.1" cy="376.9" r="0.4"/>
		<circle cx="-153" cy="376.9" r="0.4"/>
		<circle cx="-147.9" cy="376.9" r="0.4"/>
		<circle cx="-142.8" cy="376.9" r="0.4"/>
		<circle cx="-137.7" cy="376.9" r="0.4"/>
		<circle cx="-132.6" cy="376.9" r="0.4"/>
		<circle cx="-127.5" cy="376.9" r="0.4"/>
		<circle cx="-122.4" cy="376.9" r="0.4"/>
		<circle cx="-117.4" cy="376.9" r="0.4"/>
		<circle cx="-112.3" cy="376.9" r="0.4"/>
		<circle cx="-107.2" cy="376.9" r="0.4"/>
		<circle cx="-102.1" cy="376.9" r="0.4"/>
		<circle cx="-97" cy="376.9" r="0.4"/>
		<circle cx="-91.9" cy="376.9" r="0.4"/>
		<circle cx="-86.8" cy="376.9" r="0.4"/>
		<circle cx="-81.7" cy="376.9" r="0.4"/>
		<circle cx="-76.6" cy="376.9" r="0.4"/>
		<circle cx="-71.6" cy="376.9" r="0.4"/>
		<circle cx="-66.5" cy="376.9" r="0.4"/>
		<circle cx="-61.4" cy="376.9" r="0.4"/>
		<circle cx="-56.3" cy="376.9" r="0.4"/>
		<circle cx="-51.2" cy="376.9" r="0.4"/>
		<circle cx="-46.1" cy="376.9" r="0.4"/>
		<circle cx="-41" cy="376.9" r="0.4"/>
		<circle cx="-35.9" cy="376.9" r="0.4"/>
		<circle cx="-30.8" cy="376.9" r="0.4"/>
		<circle cx="-25.7" cy="376.9" r="0.4"/>
		<circle cx="-188.6" cy="371.8" r="0.4"/>
		<circle cx="-183.5" cy="371.8" r="0.4"/>
		<circle cx="-178.4" cy="371.8" r="0.4"/>
		<circle cx="-173.3" cy="371.8" r="0.4"/>
		<circle cx="-168.3" cy="371.8" r="0.4"/>
		<circle cx="-163.2" cy="371.8" r="0.4"/>
		<circle cx="-158.1" cy="371.8" r="0.4"/>
		<circle cx="-153" cy="371.8" r="0.4"/>
		<circle cx="-147.9" cy="371.8" r="0.4"/>
		<circle cx="-142.8" cy="371.8" r="0.4"/>
		<circle cx="-137.7" cy="371.8" r="0.4"/>
		<circle cx="-132.6" cy="371.8" r="0.4"/>
		<circle cx="-127.5" cy="371.8" r="0.4"/>
		<circle cx="-122.4" cy="371.8" r="0.4"/>
		<circle cx="-117.4" cy="371.8" r="0.4"/>
		<circle cx="-112.3" cy="371.8" r="0.4"/>
		<circle cx="-107.2" cy="371.8" r="0.4"/>
		<circle cx="-102.1" cy="371.8" r="0.4"/>
		<circle cx="-97" cy="371.8" r="0.4"/>
		<circle cx="-91.9" cy="371.8" r="0.4"/>
		<circle cx="-86.8" cy="371.8" r="0.4"/>
		<circle cx="-81.7" cy="371.8" r="0.4"/>
		<circle cx="-76.6" cy="371.8" r="0.4"/>
		<circle cx="-71.6" cy="371.8" r="0.4"/>
		<circle cx="-66.5" cy="371.8" r="0.4"/>
		<circle cx="-61.4" cy="371.8" r="0.4"/>
		<circle cx="-56.3" cy="371.8" r="0.4"/>
		<circle cx="-51.2" cy="371.8" r="0.4"/>
		<circle cx="-46.1" cy="371.8" r="0.4"/>
		<circle cx="-41" cy="371.8" r="0.4"/>
		<circle cx="-35.9" cy="371.8" r="0.4"/>
		<circle cx="-30.8" cy="371.8" r="0.4"/>
		<circle cx="-25.7" cy="371.8" r="0.4"/>
		<circle cx="-188.6" cy="366.7" r="0.4"/>
		<circle cx="-183.5" cy="366.7" r="0.4"/>
		<circle cx="-178.4" cy="366.7" r="0.4"/>
		<circle cx="-173.3" cy="366.7" r="0.4"/>
		<circle cx="-168.3" cy="366.7" r="0.4"/>
		<circle cx="-163.2" cy="366.7" r="0.4"/>
		<circle cx="-158.1" cy="366.7" r="0.4"/>
		<circle cx="-153" cy="366.7" r="0.4"/>
		<circle cx="-147.9" cy="366.7" r="0.4"/>
		<circle cx="-142.8" cy="366.7" r="0.4"/>
		<circle cx="-137.7" cy="366.7" r="0.4"/>
		<circle cx="-132.6" cy="366.7" r="0.4"/>
		<circle cx="-127.5" cy="366.7" r="0.4"/>
		<circle cx="-122.4" cy="366.7" r="0.4"/>
		<circle cx="-117.4" cy="366.7" r="0.4"/>
		<circle cx="-112.3" cy="366.7" r="0.4"/>
		<circle cx="-107.2" cy="366.7" r="0.4"/>
		<circle cx="-102.1" cy="366.7" r="0.4"/>
		<circle cx="-97" cy="366.7" r="0.4"/>
		<circle cx="-91.9" cy="366.7" r="0.4"/>
		<circle cx="-86.8" cy="366.7" r="0.4"/>
		<circle cx="-81.7" cy="366.7" r="0.4"/>
		<circle cx="-76.6" cy="366.7" r="0.4"/>
		<circle cx="-71.6" cy="366.7" r="0.4"/>
		<circle cx="-66.5" cy="366.7" r="0.4"/>
		<circle cx="-61.4" cy="366.7" r="0.4"/>
		<circle cx="-56.3" cy="366.7" r="0.4"/>
		<circle cx="-51.2" cy="366.7" r="0.4"/>
		<circle cx="-46.1" cy="366.7" r="0.4"/>
		<circle cx="-41" cy="366.7" r="0.4"/>
		<circle cx="-35.9" cy="366.7" r="0.4"/>
		<circle cx="-30.8" cy="366.7" r="0.4"/>
		<circle cx="-25.7" cy="366.7" r="0.4"/>
		<circle cx="-127.5" cy="361.7" r="0.4"/>
		<circle cx="-122.4" cy="361.7" r="0.4"/>
		<circle cx="-117.4" cy="361.7" r="0.4"/>
		<circle cx="-112.3" cy="361.7" r="0.4"/>
		<circle cx="-107.2" cy="361.7" r="0.4"/>
		<circle cx="-102.1" cy="361.7" r="0.4"/>
		<circle cx="-97" cy="361.7" r="0.4"/>
		<circle cx="-91.9" cy="361.7" r="0.4"/>
		<circle cx="-86.8" cy="361.7" r="0.4"/>
		<circle cx="-81.7" cy="361.7" r="0.4"/>
		<circle cx="-76.6" cy="361.7" r="0.4"/>
		<circle cx="-71.6" cy="361.7" r="0.4"/>
		<circle cx="-66.5" cy="361.7" r="0.4"/>
		<circle cx="-61.4" cy="361.7" r="0.4"/>
		<circle cx="-56.3" cy="361.7" r="0.4"/>
		<circle cx="-51.2" cy="361.7" r="0.4"/>
		<circle cx="-46.1" cy="361.7" r="0.4"/>
		<circle cx="-41" cy="361.7" r="0.4"/>
		<circle cx="-35.9" cy="361.7" r="0.4"/>
		<circle cx="-30.8" cy="361.7" r="0.4"/>
		<circle cx="-25.7" cy="361.7" r="0.4"/>
		<circle cx="-127.5" cy="356.7" r="0.4"/>
		<circle cx="-122.4" cy="356.7" r="0.4"/>
		<circle cx="-117.4" cy="356.7" r="0.4"/>
		<circle cx="-112.3" cy="356.7" r="0.4"/>
		<circle cx="-107.2" cy="356.7" r="0.4"/>
		<circle cx="-102.1" cy="356.7" r="0.4"/>
		<circle cx="-97" cy="356.7" r="0.4"/>
		<circle cx="-91.9" cy="356.7" r="0.4"/>
		<circle cx="-86.8" cy="356.7" r="0.4"/>
		<circle cx="-81.7" cy="356.7" r="0.4"/>
		<circle cx="-76.6" cy="356.7" r="0.4"/>
		<circle cx="-71.6" cy="356.7" r="0.4"/>
		<circle cx="-66.5" cy="356.7" r="0.4"/>
		<circle cx="-61.4" cy="356.7" r="0.4"/>
		<circle cx="-56.3" cy="356.7" r="0.4"/>
		<circle cx="-51.2" cy="356.7" r="0.4"/>
		<circle cx="-46.1" cy="356.7" r="0.4"/>
		<circle cx="-41" cy="356.7" r="0.4"/>
		<circle cx="-35.9" cy="356.7" r="0.4"/>
		<circle cx="-30.8" cy="356.7" r="0.4"/>
		<circle cx="-25.7" cy="356.7" r="0.4"/>
		<circle cx="-127.5" cy="351.7" r="0.4"/>
		<circle cx="-122.4" cy="351.7" r="0.4"/>
		<circle cx="-117.4" cy="351.7" r="0.4"/>
		<circle cx="-112.3" cy="351.7" r="0.4"/>
		<circle cx="-107.2" cy="351.7" r="0.4"/>
		<circle cx="-102.1" cy="351.7" r="0.4"/>
		<circle cx="-97" cy="351.7" r="0.4"/>
		<circle cx="-91.9" cy="351.7" r="0.4"/>
		<circle cx="-86.8" cy="351.7" r="0.4"/>
		<circle cx="-81.7" cy="351.7" r="0.4"/>
		<circle cx="-76.6" cy="351.7" r="0.4"/>
		<circle cx="-71.6" cy="351.7" r="0.4"/>
		<circle cx="-66.5" cy="351.7" r="0.4"/>
		<circle cx="-61.4" cy="351.7" r="0.4"/>
		<circle cx="-56.3" cy="351.7" r="0.4"/>
		<circle cx="-51.2" cy="351.7" r="0.4"/>
		<circle cx="-46.1" cy="351.7" r="0.4"/>
		<circle cx="-41" cy="351.7" r="0.4"/>
		<circle cx="-35.9" cy="351.7" r="0.4"/>
		<circle cx="-30.8" cy="351.7" r="0.4"/>
		<circle cx="-25.7" cy="351.7" r="0.4"/>
		<circle cx="-20.7" cy="392.2" r="0.4"/>
		<circle cx="-20.7" cy="387.1" r="0.4"/>
		<circle cx="-20.7" cy="382" r="0.4"/>
		<circle cx="-20.7" cy="376.9" r="0.4"/>
		<circle cx="-20.7" cy="371.8" r="0.4"/>
		<circle cx="-20.7" cy="366.7" r="0.4"/>
		<circle cx="-20.7" cy="361.7" r="0.4"/>
		<circle cx="-20.7" cy="356.7" r="0.4"/>
		<circle cx="-20.7" cy="351.7" r="0.4"/>
		<circle cx="-15.6" cy="392.2" r="0.4"/>
		<circle cx="-15.6" cy="387.1" r="0.4"/>
		<circle cx="-15.6" cy="382" r="0.4"/>
		<circle cx="-15.6" cy="376.9" r="0.4"/>
		<circle cx="-15.6" cy="371.8" r="0.4"/>
		<circle cx="-15.6" cy="366.7" r="0.4"/>
		<circle cx="-15.6" cy="361.7" r="0.4"/>
		<circle cx="-15.6" cy="356.7" r="0.4"/>
		<circle cx="-15.6" cy="351.7" r="0.4"/>
		<circle cx="-10.5" cy="392.2" r="0.4"/>
		<circle cx="-10.5" cy="387.1" r="0.4"/>
		<circle cx="-10.5" cy="382" r="0.4"/>
		<circle cx="-10.5" cy="376.9" r="0.4"/>
		<circle cx="-10.5" cy="371.8" r="0.4"/>
		<circle cx="-10.5" cy="366.7" r="0.4"/>
		<circle cx="-10.5" cy="361.7" r="0.4"/>
		<circle cx="-10.5" cy="356.7" r="0.4"/>
		<circle cx="-10.5" cy="351.7" r="0.4"/>
		<circle cx="-5.5" cy="392.2" r="0.4"/>
		<circle cx="-5.5" cy="387.1" r="0.4"/>
		<circle cx="-5.5" cy="382" r="0.4"/>
		<circle cx="-5.5" cy="376.9" r="0.4"/>
		<circle cx="-5.5" cy="371.8" r="0.4"/>
		<circle cx="-5.5" cy="366.7" r="0.4"/>
		<circle cx="-5.5" cy="361.7" r="0.4"/>
		<circle cx="-5.5" cy="356.7" r="0.4"/>
		<circle cx="-5.5" cy="351.7" r="0.4"/>
		<circle cx="-0.4" cy="371.8" r="0.4"/>
		<circle cx="-0.4" cy="366.7" r="0.4"/>
		<circle cx="-0.4" cy="361.7" r="0.4"/>
		<circle cx="-0.4" cy="356.7" r="0.4"/>
		<circle cx="-0.4" cy="351.7" r="0.4"/>
	</g>
</g>
</svg>
