<?xml version="1.0" encoding="utf-8"?>
<!-- Generator: Adobe Illustrator 19.1.0, SVG Export Plug-In . SVG Version: 6.00 Build 0)  -->
<svg version="1.1" id="Layer_1" xmlns="http://www.w3.org/2000/svg" xmlns:xlink="http://www.w3.org/1999/xlink" x="0px" y="0px"
	 viewBox="-150 326.8 311 141.2" style="enable-background:new -150 326.8 311 141.2;" xml:space="preserve">
<style type="text/css">
	.st0{fill:none;stroke:#000000;stroke-width:0.35;stroke-miterlimit:10;}
</style>
<g id="_x30_7">
	<line class="st0" x1="-34.7" y1="446" x2="-136.7" y2="446"/>
	<g>
		<circle cx="-5.4" cy="433.2" r="0.4"/>
		<circle cx="-5.4" cy="428.1" r="0.4"/>
		<circle cx="-5.4" cy="423" r="0.4"/>
		<circle cx="-5.4" cy="417.9" r="0.4"/>
		<circle cx="-5.4" cy="412.8" r="0.4"/>
		<circle cx="-5.4" cy="407.7" r="0.4"/>
		<circle cx="-5.4" cy="402.6" r="0.4"/>
		<circle cx="-5.4" cy="397.6" r="0.4"/>
		<circle cx="-5.4" cy="392.5" r="0.4"/>
		<circle cx="-5.4" cy="387.4" r="0.4"/>
		<circle cx="-5.4" cy="382.3" r="0.4"/>
		<circle cx="-5.4" cy="377.2" r="0.4"/>
		<circle cx="-0.3" cy="433.2" r="0.4"/>
		<circle cx="-0.3" cy="428.1" r="0.4"/>
		<circle cx="-0.3" cy="423" r="0.4"/>
		<circle cx="-0.3" cy="417.9" r="0.4"/>
		<circle cx="-0.3" cy="412.8" r="0.4"/>
		<circle cx="-0.3" cy="407.7" r="0.4"/>
		<circle cx="-0.3" cy="402.6" r="0.4"/>
		<circle cx="-0.3" cy="397.6" r="0.4"/>
		<circle cx="-0.3" cy="392.5" r="0.4"/>
		<circle cx="-0.3" cy="387.4" r="0.4"/>
		<circle cx="-0.3" cy="382.3" r="0.4"/>
		<circle cx="-0.3" cy="377.2" r="0.4"/>
		<circle cx="4.8" cy="433.2" r="0.4"/>
		<circle cx="4.8" cy="428.1" r="0.4"/>
		<circle cx="4.8" cy="423" r="0.4"/>
		<circle cx="4.8" cy="417.9" r="0.4"/>
		<circle cx="4.8" cy="412.8" r="0.4"/>
		<circle cx="4.8" cy="407.7" r="0.4"/>
		<circle cx="4.8" cy="402.6" r="0.4"/>
		<circle cx="4.8" cy="397.6" r="0.4"/>
		<circle cx="4.8" cy="392.5" r="0.4"/>
		<circle cx="4.8" cy="387.4" r="0.4"/>
		<circle cx="4.8" cy="382.3" r="0.4"/>
		<circle cx="4.8" cy="377.2" r="0.4"/>
		<circle cx="9.9" cy="433.2" r="0.4"/>
		<circle cx="9.9" cy="428.1" r="0.4"/>
		<circle cx="9.9" cy="423" r="0.4"/>
		<circle cx="9.9" cy="417.9" r="0.4"/>
		<circle cx="9.9" cy="412.8" r="0.4"/>
		<circle cx="9.9" cy="407.7" r="0.4"/>
		<circle cx="9.9" cy="402.6" r="0.4"/>
		<circle cx="9.9" cy="397.6" r="0.4"/>
		<circle cx="9.9" cy="392.5" r="0.4"/>
		<circle cx="9.9" cy="387.4" r="0.4"/>
		<circle cx="9.9" cy="382.3" r="0.4"/>
		<circle cx="9.9" cy="377.2" r="0.4"/>
		<circle cx="-26" cy="433.2" r="0.4"/>
		<circle cx="-26" cy="428.1" r="0.4"/>
		<circle cx="-26" cy="423" r="0.4"/>
		<circle cx="-26" cy="417.9" r="0.4"/>
		<circle cx="-26" cy="412.8" r="0.4"/>
		<circle cx="-26" cy="407.7" r="0.4"/>
		<circle cx="-26" cy="402.6" r="0.4"/>
		<circle cx="-26" cy="397.6" r="0.4"/>
		<circle cx="-26" cy="392.5" r="0.4"/>
		<circle cx="-26" cy="387.4" r="0.4"/>
		<circle cx="-26" cy="382.3" r="0.4"/>
		<circle cx="-26" cy="377.2" r="0.4"/>
		<circle cx="-20.9" cy="433.2" r="0.4"/>
		<circle cx="-20.9" cy="428.1" r="0.4"/>
		<circle cx="-20.9" cy="423" r="0.4"/>
		<circle cx="-20.9" cy="417.9" r="0.4"/>
		<circle cx="-20.9" cy="412.8" r="0.4"/>
		<circle cx="-20.9" cy="407.7" r="0.4"/>
		<circle cx="-20.9" cy="402.6" r="0.4"/>
		<circle cx="-20.9" cy="397.6" r="0.4"/>
		<circle cx="-20.9" cy="392.5" r="0.4"/>
		<circle cx="-20.9" cy="387.4" r="0.4"/>
		<circle cx="-20.9" cy="382.3" r="0.4"/>
		<circle cx="-20.9" cy="377.2" r="0.4"/>
		<circle cx="-15.8" cy="433.2" r="0.4"/>
		<circle cx="-15.8" cy="428.1" r="0.4"/>
		<circle cx="-15.8" cy="423" r="0.4"/>
		<circle cx="-15.8" cy="417.9" r="0.4"/>
		<circle cx="-15.8" cy="412.8" r="0.4"/>
		<circle cx="-15.8" cy="407.7" r="0.4"/>
		<circle cx="-15.8" cy="402.6" r="0.4"/>
		<circle cx="-15.8" cy="397.6" r="0.4"/>
		<circle cx="-15.8" cy="392.5" r="0.4"/>
		<circle cx="-15.8" cy="387.4" r="0.4"/>
		<circle cx="-15.8" cy="382.3" r="0.4"/>
		<circle cx="-15.8" cy="377.2" r="0.4"/>
		<circle cx="-10.7" cy="433.2" r="0.4"/>
		<circle cx="-10.7" cy="428.1" r="0.4"/>
		<circle cx="-10.7" cy="423" r="0.4"/>
		<circle cx="-10.7" cy="417.9" r="0.4"/>
		<circle cx="-10.7" cy="412.8" r="0.4"/>
		<circle cx="-10.7" cy="407.7" r="0.4"/>
		<circle cx="-10.7" cy="402.6" r="0.4"/>
		<circle cx="-10.7" cy="397.6" r="0.4"/>
		<circle cx="-10.7" cy="392.5" r="0.4"/>
		<circle cx="-10.7" cy="387.4" r="0.4"/>
		<circle cx="-10.7" cy="382.3" r="0.4"/>
		<circle cx="-10.7" cy="377.2" r="0.4"/>
		<circle cx="-46.5" cy="433.2" r="0.4"/>
		<circle cx="-46.5" cy="428.1" r="0.4"/>
		<circle cx="-46.5" cy="423" r="0.4"/>
		<circle cx="-46.5" cy="417.9" r="0.4"/>
		<circle cx="-46.5" cy="412.8" r="0.4"/>
		<circle cx="-46.5" cy="407.7" r="0.4"/>
		<circle cx="-46.5" cy="402.6" r="0.4"/>
		<circle cx="-46.5" cy="397.6" r="0.4"/>
		<circle cx="-46.5" cy="392.5" r="0.4"/>
		<circle cx="-46.5" cy="387.4" r="0.4"/>
		<circle cx="-46.5" cy="382.3" r="0.4"/>
		<circle cx="-46.5" cy="377.2" r="0.4"/>
		<circle cx="-41.5" cy="433.2" r="0.4"/>
		<circle cx="-41.5" cy="428.1" r="0.4"/>
		<circle cx="-41.5" cy="423" r="0.4"/>
		<circle cx="-41.5" cy="417.9" r="0.4"/>
		<circle cx="-41.5" cy="412.8" r="0.4"/>
		<circle cx="-41.5" cy="407.7" r="0.4"/>
		<circle cx="-41.5" cy="402.6" r="0.4"/>
		<circle cx="-41.5" cy="397.6" r="0.4"/>
		<circle cx="-41.5" cy="392.5" r="0.4"/>
		<circle cx="-41.5" cy="387.4" r="0.4"/>
		<circle cx="-41.5" cy="382.3" r="0.4"/>
		<circle cx="-41.5" cy="377.2" r="0.4"/>
		<circle cx="-36.4" cy="433.2" r="0.4"/>
		<circle cx="-36.4" cy="428.1" r="0.4"/>
		<circle cx="-36.4" cy="423" r="0.4"/>
		<circle cx="-36.4" cy="417.9" r="0.4"/>
		<circle cx="-36.4" cy="412.8" r="0.4"/>
		<circle cx="-36.4" cy="407.7" r="0.4"/>
		<circle cx="-36.4" cy="402.6" r="0.4"/>
		<circle cx="-36.4" cy="397.6" r="0.4"/>
		<circle cx="-36.4" cy="392.5" r="0.4"/>
		<circle cx="-36.4" cy="387.4" r="0.4"/>
		<circle cx="-36.4" cy="382.3" r="0.4"/>
		<circle cx="-36.4" cy="377.2" r="0.4"/>
		<circle cx="-31.3" cy="433.2" r="0.4"/>
		<circle cx="-31.3" cy="428.1" r="0.4"/>
		<circle cx="-31.3" cy="423" r="0.4"/>
		<circle cx="-31.3" cy="417.9" r="0.4"/>
		<circle cx="-31.3" cy="412.8" r="0.4"/>
		<circle cx="-31.3" cy="407.7" r="0.4"/>
		<circle cx="-31.3" cy="402.6" r="0.4"/>
		<circle cx="-31.3" cy="397.6" r="0.4"/>
		<circle cx="-31.3" cy="392.5" r="0.4"/>
		<circle cx="-31.3" cy="387.4" r="0.4"/>
		<circle cx="-31.3" cy="382.3" r="0.4"/>
		<circle cx="-31.3" cy="377.2" r="0.4"/>
		<circle cx="-62" cy="433.2" r="0.4"/>
		<circle cx="-62" cy="428.1" r="0.4"/>
		<circle cx="-62" cy="423" r="0.4"/>
		<circle cx="-62" cy="417.9" r="0.4"/>
		<circle cx="-62" cy="412.8" r="0.4"/>
		<circle cx="-62" cy="407.7" r="0.4"/>
		<circle cx="-62" cy="402.6" r="0.4"/>
		<circle cx="-62" cy="397.6" r="0.4"/>
		<circle cx="-56.9" cy="433.2" r="0.4"/>
		<circle cx="-56.9" cy="428.1" r="0.4"/>
		<circle cx="-56.9" cy="423" r="0.4"/>
		<circle cx="-56.9" cy="417.9" r="0.4"/>
		<circle cx="-56.9" cy="412.8" r="0.4"/>
		<circle cx="-56.9" cy="407.7" r="0.4"/>
		<circle cx="-56.9" cy="402.6" r="0.4"/>
		<circle cx="-56.9" cy="397.6" r="0.4"/>
		<circle cx="-51.8" cy="433.2" r="0.4"/>
		<circle cx="-51.8" cy="428.1" r="0.4"/>
		<circle cx="-51.8" cy="423" r="0.4"/>
		<circle cx="-51.8" cy="417.9" r="0.4"/>
		<circle cx="-51.8" cy="412.8" r="0.4"/>
		<circle cx="-51.8" cy="407.7" r="0.4"/>
		<circle cx="-51.8" cy="402.6" r="0.4"/>
		<circle cx="-51.8" cy="397.6" r="0.4"/>
		<circle cx="15" cy="433.2" r="0.4"/>
		<circle cx="15" cy="428.1" r="0.4"/>
		<circle cx="15" cy="423" r="0.4"/>
		<circle cx="15" cy="417.9" r="0.4"/>
		<circle cx="15" cy="412.8" r="0.4"/>
		<circle cx="15" cy="407.7" r="0.4"/>
		<circle cx="15" cy="402.6" r="0.4"/>
		<circle cx="15" cy="397.6" r="0.4"/>
		<circle cx="15" cy="392.5" r="0.4"/>
		<circle cx="15" cy="387.4" r="0.4"/>
		<circle cx="15" cy="382.3" r="0.4"/>
		<circle cx="15" cy="377.2" r="0.4"/>
		<circle cx="20.1" cy="433.2" r="0.4"/>
		<circle cx="20.1" cy="428.1" r="0.4"/>
		<circle cx="20.1" cy="423" r="0.4"/>
		<circle cx="20.1" cy="417.9" r="0.4"/>
		<circle cx="20.1" cy="412.8" r="0.4"/>
		<circle cx="20.1" cy="407.7" r="0.4"/>
		<circle cx="20.1" cy="402.6" r="0.4"/>
		<circle cx="20.1" cy="397.6" r="0.4"/>
		<circle cx="20.1" cy="392.5" r="0.4"/>
		<circle cx="20.1" cy="387.4" r="0.4"/>
		<circle cx="20.1" cy="382.3" r="0.4"/>
		<circle cx="20.1" cy="377.2" r="0.4"/>
		<circle cx="25.1" cy="433.2" r="0.4"/>
		<circle cx="25.1" cy="428.1" r="0.4"/>
		<circle cx="25.1" cy="423" r="0.4"/>
		<circle cx="25.1" cy="417.9" r="0.4"/>
		<circle cx="25.1" cy="412.8" r="0.4"/>
		<circle cx="25.1" cy="407.7" r="0.4"/>
		<circle cx="25.1" cy="402.6" r="0.4"/>
		<circle cx="25.1" cy="397.6" r="0.4"/>
		<circle cx="25.1" cy="392.5" r="0.4"/>
		<circle cx="25.1" cy="387.4" r="0.4"/>
		<circle cx="25.1" cy="382.3" r="0.4"/>
		<circle cx="25.1" cy="377.2" r="0.4"/>
		<circle cx="30.2" cy="433.2" r="0.4"/>
		<circle cx="30.2" cy="428.1" r="0.4"/>
		<circle cx="30.2" cy="423" r="0.4"/>
		<circle cx="30.2" cy="417.9" r="0.4"/>
		<circle cx="30.2" cy="412.8" r="0.4"/>
		<circle cx="30.2" cy="407.7" r="0.4"/>
		<circle cx="30.2" cy="402.6" r="0.4"/>
		<circle cx="30.2" cy="397.6" r="0.4"/>
		<circle cx="30.2" cy="392.5" r="0.4"/>
		<circle cx="30.2" cy="387.4" r="0.4"/>
		<circle cx="30.2" cy="382.3" r="0.4"/>
		<circle cx="30.2" cy="377.2" r="0.4"/>
		<circle cx="35.3" cy="433.2" r="0.4"/>
		<circle cx="35.3" cy="428.1" r="0.4"/>
		<circle cx="35.3" cy="423" r="0.4"/>
		<circle cx="35.3" cy="417.9" r="0.4"/>
		<circle cx="35.3" cy="412.8" r="0.4"/>
		<circle cx="35.3" cy="407.7" r="0.4"/>
		<circle cx="35.3" cy="402.6" r="0.4"/>
		<circle cx="35.3" cy="397.6" r="0.4"/>
		<circle cx="35.3" cy="392.5" r="0.4"/>
		<circle cx="35.3" cy="387.4" r="0.4"/>
		<circle cx="35.3" cy="382.3" r="0.4"/>
		<circle cx="35.3" cy="377.2" r="0.4"/>
		<circle cx="40.4" cy="433.2" r="0.4"/>
		<circle cx="40.4" cy="428.1" r="0.4"/>
		<circle cx="40.4" cy="423" r="0.4"/>
		<circle cx="40.4" cy="417.9" r="0.4"/>
		<circle cx="40.4" cy="412.8" r="0.4"/>
		<circle cx="40.4" cy="407.7" r="0.4"/>
		<circle cx="40.4" cy="402.6" r="0.4"/>
		<circle cx="40.4" cy="397.6" r="0.4"/>
		<circle cx="40.4" cy="392.5" r="0.4"/>
		<circle cx="40.4" cy="387.4" r="0.4"/>
		<circle cx="40.4" cy="382.3" r="0.4"/>
		<circle cx="40.4" cy="377.2" r="0.4"/>
		<circle cx="45.5" cy="433.2" r="0.4"/>
		<circle cx="45.5" cy="428.1" r="0.4"/>
		<circle cx="45.5" cy="423" r="0.4"/>
		<circle cx="45.5" cy="417.9" r="0.4"/>
		<circle cx="45.5" cy="412.8" r="0.4"/>
		<circle cx="45.5" cy="407.7" r="0.4"/>
		<circle cx="45.5" cy="402.6" r="0.4"/>
		<circle cx="45.5" cy="397.6" r="0.4"/>
		<circle cx="45.5" cy="392.5" r="0.4"/>
		<circle cx="45.5" cy="387.4" r="0.4"/>
		<circle cx="45.5" cy="382.3" r="0.4"/>
		<circle cx="45.5" cy="377.2" r="0.4"/>
		<circle cx="50.6" cy="433.2" r="0.4"/>
		<circle cx="50.6" cy="428.1" r="0.4"/>
		<circle cx="50.6" cy="423" r="0.4"/>
		<circle cx="50.6" cy="417.9" r="0.4"/>
		<circle cx="50.6" cy="412.8" r="0.4"/>
		<circle cx="50.6" cy="407.7" r="0.4"/>
		<circle cx="50.6" cy="402.6" r="0.4"/>
		<circle cx="50.6" cy="397.6" r="0.4"/>
		<circle cx="50.6" cy="392.5" r="0.4"/>
		<circle cx="50.6" cy="387.4" r="0.4"/>
		<circle cx="50.6" cy="382.3" r="0.4"/>
		<circle cx="50.6" cy="377.2" r="0.4"/>
		<circle cx="55.7" cy="433.2" r="0.4"/>
		<circle cx="55.7" cy="428.1" r="0.4"/>
		<circle cx="55.7" cy="423" r="0.4"/>
		<circle cx="55.7" cy="417.9" r="0.4"/>
		<circle cx="55.7" cy="412.8" r="0.4"/>
		<circle cx="55.7" cy="407.7" r="0.4"/>
		<circle cx="55.7" cy="402.6" r="0.4"/>
		<circle cx="55.7" cy="397.6" r="0.4"/>
		<circle cx="55.7" cy="392.5" r="0.4"/>
		<circle cx="55.7" cy="387.4" r="0.4"/>
		<circle cx="55.7" cy="382.3" r="0.4"/>
		<circle cx="55.7" cy="377.2" r="0.4"/>
		<circle cx="60.8" cy="433.2" r="0.4"/>
		<circle cx="60.8" cy="428.1" r="0.4"/>
		<circle cx="60.8" cy="423" r="0.4"/>
		<circle cx="60.8" cy="417.9" r="0.4"/>
		<circle cx="60.8" cy="412.8" r="0.4"/>
		<circle cx="60.8" cy="407.7" r="0.4"/>
		<circle cx="60.8" cy="402.6" r="0.4"/>
		<circle cx="60.8" cy="397.6" r="0.4"/>
		<circle cx="60.8" cy="392.5" r="0.4"/>
		<circle cx="60.8" cy="387.4" r="0.4"/>
		<circle cx="60.8" cy="382.3" r="0.4"/>
		<circle cx="60.8" cy="377.2" r="0.4"/>
		<circle cx="65.9" cy="433.2" r="0.4"/>
		<circle cx="65.9" cy="428.1" r="0.4"/>
		<circle cx="65.9" cy="423" r="0.4"/>
		<circle cx="65.9" cy="417.9" r="0.4"/>
		<circle cx="65.9" cy="412.8" r="0.4"/>
		<circle cx="65.9" cy="407.7" r="0.4"/>
		<circle cx="65.9" cy="402.6" r="0.4"/>
		<circle cx="65.9" cy="397.6" r="0.4"/>
		<circle cx="65.9" cy="392.5" r="0.4"/>
		<circle cx="65.9" cy="387.4" r="0.4"/>
		<circle cx="65.9" cy="382.3" r="0.4"/>
		<circle cx="65.9" cy="377.2" r="0.4"/>
		<circle cx="65.9" cy="372.1" r="0.4"/>
		<circle cx="65.9" cy="367" r="0.4"/>
		<circle cx="71" cy="433.2" r="0.4"/>
		<circle cx="71" cy="428.1" r="0.4"/>
		<circle cx="71" cy="423" r="0.4"/>
		<circle cx="71" cy="417.9" r="0.4"/>
		<circle cx="71" cy="412.8" r="0.4"/>
		<circle cx="71" cy="407.7" r="0.4"/>
		<circle cx="71" cy="402.6" r="0.4"/>
		<circle cx="71" cy="397.6" r="0.4"/>
		<circle cx="71" cy="392.5" r="0.4"/>
		<circle cx="71" cy="387.4" r="0.4"/>
		<circle cx="71" cy="382.3" r="0.4"/>
		<circle cx="71" cy="377.2" r="0.4"/>
		<circle cx="71" cy="372.1" r="0.4"/>
		<circle cx="71" cy="367" r="0.4"/>
		<circle cx="76" cy="433.2" r="0.4"/>
		<circle cx="76" cy="428.1" r="0.4"/>
		<circle cx="76" cy="423" r="0.4"/>
		<circle cx="76" cy="417.9" r="0.4"/>
		<circle cx="76" cy="412.8" r="0.4"/>
		<circle cx="76" cy="407.7" r="0.4"/>
		<circle cx="76" cy="402.6" r="0.4"/>
		<circle cx="76" cy="397.6" r="0.4"/>
		<circle cx="76" cy="392.5" r="0.4"/>
		<circle cx="76" cy="387.4" r="0.4"/>
		<circle cx="76" cy="382.3" r="0.4"/>
		<circle cx="76" cy="377.2" r="0.4"/>
		<circle cx="76" cy="372.1" r="0.4"/>
		<circle cx="76" cy="367" r="0.4"/>
		<circle cx="81.1" cy="433.2" r="0.4"/>
		<circle cx="81.1" cy="428.1" r="0.4"/>
		<circle cx="81.1" cy="423" r="0.4"/>
		<circle cx="81.1" cy="417.9" r="0.4"/>
		<circle cx="81.1" cy="412.8" r="0.4"/>
		<circle cx="81.1" cy="407.7" r="0.4"/>
		<circle cx="81.1" cy="402.6" r="0.4"/>
		<circle cx="81.1" cy="397.6" r="0.4"/>
		<circle cx="81.1" cy="392.5" r="0.4"/>
		<circle cx="81.1" cy="387.4" r="0.4"/>
		<circle cx="81.1" cy="382.3" r="0.4"/>
		<circle cx="81.1" cy="377.2" r="0.4"/>
		<circle cx="81.1" cy="372.1" r="0.4"/>
		<circle cx="81.1" cy="367" r="0.4"/>
		<circle cx="86.2" cy="433.2" r="0.4"/>
		<circle cx="86.2" cy="428.1" r="0.4"/>
		<circle cx="86.2" cy="423" r="0.4"/>
		<circle cx="86.2" cy="417.9" r="0.4"/>
		<circle cx="86.2" cy="412.8" r="0.4"/>
		<circle cx="86.2" cy="407.7" r="0.4"/>
		<circle cx="86.2" cy="402.6" r="0.4"/>
		<circle cx="86.2" cy="397.6" r="0.4"/>
		<circle cx="86.2" cy="392.5" r="0.4"/>
		<circle cx="86.2" cy="387.4" r="0.4"/>
		<circle cx="86.2" cy="382.3" r="0.4"/>
		<circle cx="86.2" cy="377.2" r="0.4"/>
		<circle cx="86.2" cy="372.1" r="0.4"/>
		<circle cx="86.2" cy="367" r="0.4"/>
		<circle cx="91.3" cy="433.2" r="0.4"/>
		<circle cx="91.3" cy="428.1" r="0.4"/>
		<circle cx="91.3" cy="423" r="0.4"/>
		<circle cx="91.3" cy="417.9" r="0.4"/>
		<circle cx="91.3" cy="412.8" r="0.4"/>
		<circle cx="91.3" cy="407.7" r="0.4"/>
		<circle cx="91.3" cy="402.6" r="0.4"/>
		<circle cx="91.3" cy="397.6" r="0.4"/>
		<circle cx="91.3" cy="392.5" r="0.4"/>
		<circle cx="91.3" cy="387.4" r="0.4"/>
		<circle cx="91.3" cy="382.3" r="0.4"/>
		<circle cx="91.3" cy="377.2" r="0.4"/>
		<circle cx="91.3" cy="372.1" r="0.4"/>
		<circle cx="91.3" cy="367" r="0.4"/>
		<circle cx="96.4" cy="433.2" r="0.4"/>
		<circle cx="96.4" cy="428.1" r="0.4"/>
		<circle cx="96.4" cy="423" r="0.4"/>
		<circle cx="96.4" cy="417.9" r="0.4"/>
		<circle cx="96.4" cy="412.8" r="0.4"/>
		<circle cx="96.4" cy="407.7" r="0.4"/>
		<circle cx="96.4" cy="402.6" r="0.4"/>
		<circle cx="96.4" cy="397.6" r="0.4"/>
		<circle cx="96.4" cy="392.5" r="0.4"/>
		<circle cx="96.4" cy="387.4" r="0.4"/>
		<circle cx="96.4" cy="382.3" r="0.4"/>
		<circle cx="96.4" cy="377.2" r="0.4"/>
		<circle cx="96.4" cy="372.1" r="0.4"/>
		<circle cx="96.4" cy="367" r="0.4"/>
		<circle cx="101.5" cy="433.2" r="0.4"/>
		<circle cx="101.5" cy="428.1" r="0.4"/>
		<circle cx="101.5" cy="423" r="0.4"/>
		<circle cx="101.5" cy="417.9" r="0.4"/>
		<circle cx="101.5" cy="412.8" r="0.4"/>
		<circle cx="101.5" cy="407.7" r="0.4"/>
		<circle cx="101.5" cy="402.6" r="0.4"/>
		<circle cx="101.5" cy="397.6" r="0.4"/>
		<circle cx="101.5" cy="392.5" r="0.4"/>
		<circle cx="101.5" cy="387.4" r="0.4"/>
		<circle cx="101.5" cy="382.3" r="0.4"/>
		<circle cx="101.5" cy="377.2" r="0.4"/>
		<circle cx="101.5" cy="372.1" r="0.4"/>
		<circle cx="101.5" cy="367" r="0.4"/>
		<circle cx="106.6" cy="433.2" r="0.4"/>
		<circle cx="106.6" cy="428.1" r="0.4"/>
		<circle cx="106.6" cy="423" r="0.4"/>
		<circle cx="106.6" cy="417.9" r="0.4"/>
		<circle cx="106.6" cy="412.8" r="0.4"/>
		<circle cx="106.6" cy="407.7" r="0.4"/>
		<circle cx="106.6" cy="402.6" r="0.4"/>
		<circle cx="106.6" cy="397.6" r="0.4"/>
		<circle cx="106.6" cy="392.5" r="0.4"/>
		<circle cx="106.6" cy="387.4" r="0.4"/>
		<circle cx="106.6" cy="382.3" r="0.4"/>
		<circle cx="106.6" cy="377.2" r="0.4"/>
		<circle cx="106.6" cy="372.1" r="0.4"/>
		<circle cx="106.6" cy="367" r="0.4"/>
		<circle cx="111.7" cy="433.2" r="0.4"/>
		<circle cx="111.7" cy="428.1" r="0.4"/>
		<circle cx="111.7" cy="423" r="0.4"/>
		<circle cx="111.7" cy="417.9" r="0.4"/>
		<circle cx="111.7" cy="412.8" r="0.4"/>
		<circle cx="111.7" cy="407.7" r="0.4"/>
		<circle cx="111.7" cy="402.6" r="0.4"/>
		<circle cx="111.7" cy="397.6" r="0.4"/>
		<circle cx="111.7" cy="392.5" r="0.4"/>
		<circle cx="111.7" cy="387.4" r="0.4"/>
		<circle cx="111.7" cy="382.3" r="0.4"/>
		<circle cx="111.7" cy="377.2" r="0.4"/>
		<circle cx="111.7" cy="372.1" r="0.4"/>
		<circle cx="111.7" cy="367" r="0.4"/>
		<circle cx="116.8" cy="433.2" r="0.4"/>
		<circle cx="116.8" cy="428.1" r="0.4"/>
		<circle cx="116.8" cy="423" r="0.4"/>
		<circle cx="116.8" cy="417.9" r="0.4"/>
		<circle cx="116.8" cy="412.8" r="0.4"/>
		<circle cx="116.8" cy="407.7" r="0.4"/>
		<circle cx="116.8" cy="402.6" r="0.4"/>
		<circle cx="116.8" cy="397.6" r="0.4"/>
		<circle cx="116.8" cy="392.5" r="0.4"/>
		<circle cx="116.8" cy="387.4" r="0.4"/>
		<circle cx="116.8" cy="382.3" r="0.4"/>
		<circle cx="116.8" cy="377.2" r="0.4"/>
		<circle cx="116.8" cy="372.1" r="0.4"/>
		<circle cx="116.8" cy="367" r="0.4"/>
		<circle cx="121.9" cy="433.2" r="0.4"/>
		<circle cx="121.9" cy="428.1" r="0.4"/>
		<circle cx="121.9" cy="423" r="0.4"/>
		<circle cx="121.9" cy="417.9" r="0.4"/>
		<circle cx="121.9" cy="412.8" r="0.4"/>
		<circle cx="121.9" cy="407.7" r="0.4"/>
		<circle cx="121.9" cy="402.6" r="0.4"/>
		<circle cx="121.9" cy="397.6" r="0.4"/>
		<circle cx="121.9" cy="392.5" r="0.4"/>
		<circle cx="121.9" cy="387.4" r="0.4"/>
		<circle cx="121.9" cy="382.3" r="0.4"/>
		<circle cx="121.9" cy="377.2" r="0.4"/>
		<circle cx="121.9" cy="372.1" r="0.4"/>
		<circle cx="121.9" cy="367" r="0.4"/>
		<circle cx="126.9" cy="433.2" r="0.4"/>
		<circle cx="126.9" cy="428.1" r="0.4"/>
		<circle cx="126.9" cy="423" r="0.4"/>
		<circle cx="126.9" cy="417.9" r="0.4"/>
		<circle cx="126.9" cy="412.8" r="0.4"/>
		<circle cx="126.9" cy="407.7" r="0.4"/>
		<circle cx="126.9" cy="402.6" r="0.4"/>
		<circle cx="126.9" cy="397.6" r="0.4"/>
		<circle cx="126.9" cy="392.5" r="0.4"/>
		<circle cx="126.9" cy="387.4" r="0.4"/>
		<circle cx="126.9" cy="382.3" r="0.4"/>
		<circle cx="126.9" cy="377.2" r="0.4"/>
		<circle cx="126.9" cy="372.1" r="0.4"/>
		<circle cx="126.9" cy="367" r="0.4"/>
		<circle cx="132" cy="433.2" r="0.4"/>
		<circle cx="132" cy="428.1" r="0.4"/>
		<circle cx="132" cy="423" r="0.4"/>
		<circle cx="132" cy="417.9" r="0.4"/>
		<circle cx="132" cy="412.8" r="0.4"/>
		<circle cx="132" cy="407.7" r="0.4"/>
		<circle cx="132" cy="402.6" r="0.4"/>
		<circle cx="132" cy="397.6" r="0.4"/>
		<circle cx="132" cy="392.5" r="0.4"/>
		<circle cx="132" cy="387.4" r="0.4"/>
		<circle cx="132" cy="382.3" r="0.4"/>
		<circle cx="132" cy="377.2" r="0.4"/>
		<circle cx="132" cy="372.1" r="0.4"/>
		<circle cx="132" cy="367" r="0.4"/>
		<circle cx="137.1" cy="433.2" r="0.4"/>
		<circle cx="137.1" cy="428.1" r="0.4"/>
		<circle cx="137.1" cy="423" r="0.4"/>
		<circle cx="137.1" cy="417.9" r="0.4"/>
		<circle cx="137.1" cy="412.8" r="0.4"/>
		<circle cx="137.1" cy="407.7" r="0.4"/>
		<circle cx="137.1" cy="402.6" r="0.4"/>
		<circle cx="137.1" cy="397.6" r="0.4"/>
		<circle cx="137.1" cy="392.5" r="0.4"/>
		<circle cx="137.1" cy="387.4" r="0.4"/>
		<circle cx="137.1" cy="382.3" r="0.4"/>
		<circle cx="137.1" cy="377.2" r="0.4"/>
		<circle cx="137.1" cy="372.1" r="0.4"/>
		<circle cx="137.1" cy="367" r="0.4"/>
		<circle cx="142.2" cy="433.2" r="0.4"/>
		<circle cx="142.2" cy="428.1" r="0.4"/>
		<circle cx="142.2" cy="423" r="0.4"/>
		<circle cx="142.2" cy="417.9" r="0.4"/>
		<circle cx="142.2" cy="412.8" r="0.4"/>
		<circle cx="142.2" cy="407.7" r="0.4"/>
		<circle cx="142.2" cy="402.6" r="0.4"/>
		<circle cx="142.2" cy="397.6" r="0.4"/>
		<circle cx="142.2" cy="392.5" r="0.4"/>
		<circle cx="142.2" cy="387.4" r="0.4"/>
		<circle cx="142.2" cy="382.3" r="0.4"/>
		<circle cx="142.2" cy="377.2" r="0.4"/>
		<circle cx="142.2" cy="372.1" r="0.4"/>
		<circle cx="142.2" cy="367" r="0.4"/>
		<circle cx="147.3" cy="433.2" r="0.4"/>
		<circle cx="147.3" cy="428.1" r="0.4"/>
		<circle cx="147.3" cy="423" r="0.4"/>
		<circle cx="147.3" cy="417.9" r="0.4"/>
		<circle cx="147.3" cy="412.8" r="0.4"/>
		<circle cx="147.3" cy="407.7" r="0.4"/>
		<circle cx="147.3" cy="402.6" r="0.4"/>
		<circle cx="147.3" cy="397.6" r="0.4"/>
		<circle cx="147.3" cy="392.5" r="0.4"/>
		<circle cx="147.3" cy="387.4" r="0.4"/>
		<circle cx="147.3" cy="382.3" r="0.4"/>
		<circle cx="147.3" cy="377.2" r="0.4"/>
		<circle cx="147.3" cy="372.1" r="0.4"/>
		<circle cx="147.3" cy="367" r="0.4"/>
		<circle cx="152.4" cy="433.2" r="0.4"/>
		<circle cx="152.4" cy="428.1" r="0.4"/>
		<circle cx="152.4" cy="423" r="0.4"/>
		<circle cx="152.4" cy="417.9" r="0.4"/>
		<circle cx="152.4" cy="412.8" r="0.4"/>
		<circle cx="152.4" cy="407.7" r="0.4"/>
		<circle cx="152.4" cy="402.6" r="0.4"/>
		<circle cx="152.4" cy="397.6" r="0.4"/>
		<circle cx="152.4" cy="392.5" r="0.4"/>
		<circle cx="152.4" cy="387.4" r="0.4"/>
		<circle cx="152.4" cy="382.3" r="0.4"/>
		<circle cx="152.4" cy="377.2" r="0.4"/>
		<circle cx="152.4" cy="372.1" r="0.4"/>
		<circle cx="152.4" cy="367" r="0.4"/>
		<circle cx="65.9" cy="361.9" r="0.4"/>
		<circle cx="71" cy="361.9" r="0.4"/>
		<circle cx="76" cy="361.9" r="0.4"/>
		<circle cx="81.1" cy="361.9" r="0.4"/>
		<circle cx="86.2" cy="361.9" r="0.4"/>
		<circle cx="91.3" cy="361.9" r="0.4"/>
		<circle cx="96.4" cy="361.9" r="0.4"/>
		<circle cx="101.5" cy="361.9" r="0.4"/>
		<circle cx="106.6" cy="361.9" r="0.4"/>
		<circle cx="111.7" cy="361.9" r="0.4"/>
		<circle cx="116.8" cy="361.9" r="0.4"/>
		<circle cx="121.9" cy="361.9" r="0.4"/>
		<circle cx="126.9" cy="361.9" r="0.4"/>
		<circle cx="132" cy="361.9" r="0.4"/>
		<circle cx="137.1" cy="361.9" r="0.4"/>
		<circle cx="142.2" cy="361.9" r="0.4"/>
		<circle cx="147.3" cy="361.9" r="0.4"/>
		<circle cx="152.4" cy="361.9" r="0.4"/>
		<circle cx="65.9" cy="356.8" r="0.4"/>
		<circle cx="71" cy="356.8" r="0.4"/>
		<circle cx="76" cy="356.8" r="0.4"/>
		<circle cx="81.1" cy="356.8" r="0.4"/>
		<circle cx="86.2" cy="356.8" r="0.4"/>
		<circle cx="91.3" cy="356.8" r="0.4"/>
		<circle cx="96.4" cy="356.8" r="0.4"/>
		<circle cx="101.5" cy="356.8" r="0.4"/>
		<circle cx="106.6" cy="356.8" r="0.4"/>
		<circle cx="111.7" cy="356.8" r="0.4"/>
		<circle cx="116.8" cy="356.8" r="0.4"/>
		<circle cx="121.9" cy="356.8" r="0.4"/>
		<circle cx="126.9" cy="356.8" r="0.4"/>
		<circle cx="132" cy="356.8" r="0.4"/>
		<circle cx="137.1" cy="356.8" r="0.4"/>
		<circle cx="142.2" cy="356.8" r="0.4"/>
		<circle cx="147.3" cy="356.8" r="0.4"/>
		<circle cx="152.4" cy="356.8" r="0.4"/>
		<circle cx="65.9" cy="351.7" r="0.4"/>
		<circle cx="71" cy="351.7" r="0.4"/>
		<circle cx="76" cy="351.7" r="0.4"/>
		<circle cx="81.1" cy="351.7" r="0.4"/>
		<circle cx="86.2" cy="351.7" r="0.4"/>
		<circle cx="91.3" cy="351.7" r="0.4"/>
		<circle cx="96.4" cy="351.7" r="0.4"/>
		<circle cx="101.5" cy="351.7" r="0.4"/>
		<circle cx="106.6" cy="351.7" r="0.4"/>
		<circle cx="111.7" cy="351.7" r="0.4"/>
		<circle cx="116.8" cy="351.7" r="0.4"/>
		<circle cx="121.9" cy="351.7" r="0.4"/>
		<circle cx="126.9" cy="351.7" r="0.4"/>
		<circle cx="132" cy="351.7" r="0.4"/>
		<circle cx="137.1" cy="351.7" r="0.4"/>
		<circle cx="142.2" cy="351.7" r="0.4"/>
		<circle cx="147.3" cy="351.7" r="0.4"/>
		<circle cx="152.4" cy="351.7" r="0.4"/>
		<circle cx="65.9" cy="346.6" r="0.4"/>
		<circle cx="71" cy="346.6" r="0.4"/>
		<circle cx="76" cy="346.6" r="0.4"/>
		<circle cx="81.1" cy="346.6" r="0.4"/>
		<circle cx="86.2" cy="346.6" r="0.4"/>
		<circle cx="91.3" cy="346.6" r="0.4"/>
		<circle cx="96.4" cy="346.6" r="0.4"/>
		<circle cx="101.5" cy="346.6" r="0.4"/>
		<circle cx="106.6" cy="346.6" r="0.4"/>
		<circle cx="111.7" cy="346.6" r="0.4"/>
		<circle cx="116.8" cy="346.6" r="0.4"/>
		<circle cx="121.9" cy="346.6" r="0.4"/>
		<circle cx="126.9" cy="346.6" r="0.4"/>
		<circle cx="65.9" cy="341.5" r="0.4"/>
		<circle cx="71" cy="341.5" r="0.4"/>
		<circle cx="76" cy="341.5" r="0.4"/>
		<circle cx="81.1" cy="341.5" r="0.4"/>
		<circle cx="86.2" cy="341.5" r="0.4"/>
		<circle cx="91.3" cy="341.5" r="0.4"/>
		<circle cx="96.4" cy="341.5" r="0.4"/>
		<circle cx="101.5" cy="341.5" r="0.4"/>
		<circle cx="106.6" cy="341.5" r="0.4"/>
		<circle cx="111.7" cy="341.5" r="0.4"/>
		<circle cx="116.8" cy="341.5" r="0.4"/>
		<circle cx="121.9" cy="341.5" r="0.4"/>
		<circle cx="126.9" cy="341.5" r="0.4"/>
		<circle cx="65.9" cy="336.4" r="0.4"/>
		<circle cx="71" cy="336.4" r="0.4"/>
		<circle cx="76" cy="336.4" r="0.4"/>
		<circle cx="81.1" cy="336.4" r="0.4"/>
		<circle cx="86.2" cy="336.4" r="0.4"/>
		<circle cx="91.3" cy="336.4" r="0.4"/>
		<circle cx="96.4" cy="336.4" r="0.4"/>
		<circle cx="101.5" cy="336.4" r="0.4"/>
		<circle cx="106.6" cy="336.4" r="0.4"/>
		<circle cx="111.7" cy="336.4" r="0.4"/>
		<circle cx="116.8" cy="336.4" r="0.4"/>
		<circle cx="121.9" cy="336.4" r="0.4"/>
		<circle cx="126.9" cy="336.4" r="0.4"/>
	</g>
</g>
</svg>
