<?xml version="1.0" encoding="utf-8"?>
<!-- Generator: Adobe Illustrator 19.1.0, SVG Export Plug-In . SVG Version: 6.00 Build 0)  -->
<svg version="1.1" id="Layer_1" xmlns="http://www.w3.org/2000/svg" xmlns:xlink="http://www.w3.org/1999/xlink" x="0px" y="0px"
	 viewBox="-172 335.2 266.5 122.8" style="enable-background:new -172 335.2 266.5 122.8;" xml:space="preserve">
<g id="Capa_12">
	<circle cx="64.6" cy="413.9" r="0.4"/>
	<circle cx="64.6" cy="408.9" r="0.4"/>
	<circle cx="64.6" cy="403.8" r="0.4"/>
	<circle cx="64.6" cy="398.7" r="0.4"/>
	<circle cx="64.6" cy="393.6" r="0.4"/>
	<circle cx="64.6" cy="388.5" r="0.4"/>
	<circle cx="64.6" cy="383.4" r="0.4"/>
	<circle cx="64.6" cy="378.3" r="0.4"/>
	<circle cx="64.6" cy="373.3" r="0.4"/>
	<circle cx="64.6" cy="368.2" r="0.4"/>
	<circle cx="64.6" cy="363.1" r="0.4"/>
	<circle cx="64.6" cy="358" r="0.4"/>
	<circle cx="64.6" cy="352.9" r="0.4"/>
	<circle cx="64.6" cy="347.8" r="0.4"/>
	<circle cx="69.7" cy="413.9" r="0.4"/>
	<circle cx="69.7" cy="408.9" r="0.4"/>
	<circle cx="69.7" cy="403.8" r="0.4"/>
	<circle cx="69.7" cy="398.7" r="0.4"/>
	<circle cx="69.7" cy="393.6" r="0.4"/>
	<circle cx="69.7" cy="388.5" r="0.4"/>
	<circle cx="69.7" cy="383.4" r="0.4"/>
	<circle cx="69.7" cy="378.3" r="0.4"/>
	<circle cx="69.7" cy="373.3" r="0.4"/>
	<circle cx="69.7" cy="368.2" r="0.4"/>
	<circle cx="69.7" cy="363.1" r="0.4"/>
	<circle cx="69.7" cy="358" r="0.4"/>
	<circle cx="69.7" cy="352.9" r="0.4"/>
	<circle cx="69.7" cy="347.8" r="0.4"/>
	<circle cx="74.8" cy="413.9" r="0.4"/>
	<circle cx="74.8" cy="408.9" r="0.4"/>
	<circle cx="74.8" cy="403.8" r="0.4"/>
	<circle cx="74.8" cy="398.7" r="0.4"/>
	<circle cx="74.8" cy="393.6" r="0.4"/>
	<circle cx="74.8" cy="388.5" r="0.4"/>
	<circle cx="74.8" cy="383.4" r="0.4"/>
	<circle cx="74.8" cy="378.3" r="0.4"/>
	<circle cx="74.8" cy="373.3" r="0.4"/>
	<circle cx="74.8" cy="368.2" r="0.4"/>
	<circle cx="74.8" cy="363.1" r="0.4"/>
	<circle cx="74.8" cy="358" r="0.4"/>
	<circle cx="74.8" cy="352.9" r="0.4"/>
	<circle cx="74.8" cy="347.8" r="0.4"/>
	<circle cx="79.9" cy="413.9" r="0.4"/>
	<circle cx="79.9" cy="408.9" r="0.4"/>
	<circle cx="79.9" cy="403.8" r="0.4"/>
	<circle cx="79.9" cy="398.7" r="0.4"/>
	<circle cx="79.9" cy="393.6" r="0.4"/>
	<circle cx="79.9" cy="388.5" r="0.4"/>
	<circle cx="79.9" cy="383.4" r="0.4"/>
	<circle cx="79.9" cy="378.3" r="0.4"/>
	<circle cx="79.9" cy="373.3" r="0.4"/>
	<circle cx="79.9" cy="368.2" r="0.4"/>
	<circle cx="79.9" cy="363.1" r="0.4"/>
	<circle cx="79.9" cy="358" r="0.4"/>
	<circle cx="79.9" cy="352.9" r="0.4"/>
	<circle cx="79.9" cy="347.8" r="0.4"/>
	<circle cx="44.1" cy="413.9" r="0.4"/>
	<circle cx="44.1" cy="408.9" r="0.4"/>
	<circle cx="44.1" cy="403.8" r="0.4"/>
	<circle cx="44.1" cy="398.7" r="0.4"/>
	<circle cx="44.1" cy="393.6" r="0.4"/>
	<circle cx="44.1" cy="388.5" r="0.4"/>
	<circle cx="44.1" cy="383.4" r="0.4"/>
	<circle cx="44.1" cy="378.3" r="0.4"/>
	<circle cx="44.1" cy="373.3" r="0.4"/>
	<circle cx="44.1" cy="368.2" r="0.4"/>
	<circle cx="44.1" cy="363.1" r="0.4"/>
	<circle cx="44.1" cy="358" r="0.4"/>
	<circle cx="44.1" cy="352.9" r="0.4"/>
	<circle cx="44.1" cy="347.8" r="0.4"/>
	<circle cx="49.2" cy="413.9" r="0.4"/>
	<circle cx="49.2" cy="408.9" r="0.4"/>
	<circle cx="49.2" cy="403.8" r="0.4"/>
	<circle cx="49.2" cy="398.7" r="0.4"/>
	<circle cx="49.2" cy="393.6" r="0.4"/>
	<circle cx="49.2" cy="388.5" r="0.4"/>
	<circle cx="49.2" cy="383.4" r="0.4"/>
	<circle cx="49.2" cy="378.3" r="0.4"/>
	<circle cx="49.2" cy="373.3" r="0.4"/>
	<circle cx="49.2" cy="368.2" r="0.4"/>
	<circle cx="49.2" cy="363.1" r="0.4"/>
	<circle cx="49.2" cy="358" r="0.4"/>
	<circle cx="49.2" cy="352.9" r="0.4"/>
	<circle cx="49.2" cy="347.8" r="0.4"/>
	<circle cx="54.3" cy="413.9" r="0.4"/>
	<circle cx="54.3" cy="408.9" r="0.4"/>
	<circle cx="54.3" cy="403.8" r="0.4"/>
	<circle cx="54.3" cy="398.7" r="0.4"/>
	<circle cx="54.3" cy="393.6" r="0.4"/>
	<circle cx="54.3" cy="388.5" r="0.4"/>
	<circle cx="54.3" cy="383.4" r="0.4"/>
	<circle cx="54.3" cy="378.3" r="0.4"/>
	<circle cx="54.3" cy="373.3" r="0.4"/>
	<circle cx="54.3" cy="368.2" r="0.4"/>
	<circle cx="54.3" cy="363.1" r="0.4"/>
	<circle cx="54.3" cy="358" r="0.4"/>
	<circle cx="54.3" cy="352.9" r="0.4"/>
	<circle cx="54.3" cy="347.8" r="0.4"/>
	<circle cx="59.3" cy="413.9" r="0.4"/>
	<circle cx="59.3" cy="408.9" r="0.4"/>
	<circle cx="59.3" cy="403.8" r="0.4"/>
	<circle cx="59.3" cy="398.7" r="0.4"/>
	<circle cx="59.3" cy="393.6" r="0.4"/>
	<circle cx="59.3" cy="388.5" r="0.4"/>
	<circle cx="59.3" cy="383.4" r="0.4"/>
	<circle cx="59.3" cy="378.3" r="0.4"/>
	<circle cx="59.3" cy="373.3" r="0.4"/>
	<circle cx="59.3" cy="368.2" r="0.4"/>
	<circle cx="59.3" cy="363.1" r="0.4"/>
	<circle cx="59.3" cy="358" r="0.4"/>
	<circle cx="59.3" cy="352.9" r="0.4"/>
	<circle cx="59.3" cy="347.8" r="0.4"/>
	<circle cx="23.5" cy="413.9" r="0.4"/>
	<circle cx="23.5" cy="408.9" r="0.4"/>
	<circle cx="23.5" cy="403.8" r="0.4"/>
	<circle cx="23.5" cy="398.7" r="0.4"/>
	<circle cx="23.5" cy="393.6" r="0.4"/>
	<circle cx="23.5" cy="388.5" r="0.4"/>
	<circle cx="23.5" cy="383.4" r="0.4"/>
	<circle cx="23.5" cy="378.3" r="0.4"/>
	<circle cx="23.5" cy="373.3" r="0.4"/>
	<circle cx="23.5" cy="368.2" r="0.4"/>
	<circle cx="23.5" cy="363.1" r="0.4"/>
	<circle cx="23.5" cy="358" r="0.4"/>
	<circle cx="28.6" cy="413.9" r="0.4"/>
	<circle cx="28.6" cy="408.9" r="0.4"/>
	<circle cx="28.6" cy="403.8" r="0.4"/>
	<circle cx="28.6" cy="398.7" r="0.4"/>
	<circle cx="28.6" cy="393.6" r="0.4"/>
	<circle cx="28.6" cy="388.5" r="0.4"/>
	<circle cx="28.6" cy="383.4" r="0.4"/>
	<circle cx="28.6" cy="378.3" r="0.4"/>
	<circle cx="28.6" cy="373.3" r="0.4"/>
	<circle cx="28.6" cy="368.2" r="0.4"/>
	<circle cx="28.6" cy="363.1" r="0.4"/>
	<circle cx="28.6" cy="358" r="0.4"/>
	<circle cx="33.7" cy="413.9" r="0.4"/>
	<circle cx="33.7" cy="408.9" r="0.4"/>
	<circle cx="33.7" cy="403.8" r="0.4"/>
	<circle cx="33.7" cy="398.7" r="0.4"/>
	<circle cx="33.7" cy="393.6" r="0.4"/>
	<circle cx="33.7" cy="388.5" r="0.4"/>
	<circle cx="33.7" cy="383.4" r="0.4"/>
	<circle cx="33.7" cy="378.3" r="0.4"/>
	<circle cx="33.7" cy="373.3" r="0.4"/>
	<circle cx="33.7" cy="368.2" r="0.4"/>
	<circle cx="33.7" cy="363.1" r="0.4"/>
	<circle cx="33.7" cy="358" r="0.4"/>
	<circle cx="38.8" cy="413.9" r="0.4"/>
	<circle cx="38.8" cy="408.9" r="0.4"/>
	<circle cx="38.8" cy="403.8" r="0.4"/>
	<circle cx="38.8" cy="398.7" r="0.4"/>
	<circle cx="38.8" cy="393.6" r="0.4"/>
	<circle cx="38.8" cy="388.5" r="0.4"/>
	<circle cx="38.8" cy="383.4" r="0.4"/>
	<circle cx="38.8" cy="378.3" r="0.4"/>
	<circle cx="38.8" cy="373.3" r="0.4"/>
	<circle cx="38.8" cy="368.2" r="0.4"/>
	<circle cx="38.8" cy="363.1" r="0.4"/>
	<circle cx="38.8" cy="358" r="0.4"/>
	<circle cx="13.1" cy="413.9" r="0.4"/>
	<circle cx="13.1" cy="408.9" r="0.4"/>
	<circle cx="13.1" cy="403.8" r="0.4"/>
	<circle cx="13.1" cy="398.7" r="0.4"/>
	<circle cx="13.1" cy="393.6" r="0.4"/>
	<circle cx="13.1" cy="388.5" r="0.4"/>
	<circle cx="13.1" cy="383.4" r="0.4"/>
	<circle cx="13.1" cy="378.3" r="0.4"/>
	<circle cx="18.2" cy="413.9" r="0.4"/>
	<circle cx="18.2" cy="408.9" r="0.4"/>
	<circle cx="18.2" cy="403.8" r="0.4"/>
	<circle cx="18.2" cy="398.7" r="0.4"/>
	<circle cx="18.2" cy="393.6" r="0.4"/>
	<circle cx="18.2" cy="388.5" r="0.4"/>
	<circle cx="18.2" cy="383.4" r="0.4"/>
	<circle cx="18.2" cy="378.3" r="0.4"/>
	<circle cx="85" cy="413.9" r="0.4"/>
	<circle cx="85" cy="408.9" r="0.4"/>
	<circle cx="85" cy="403.8" r="0.4"/>
	<circle cx="85" cy="398.7" r="0.4"/>
	<circle cx="85" cy="393.6" r="0.4"/>
	<circle cx="85" cy="388.5" r="0.4"/>
	<circle cx="85" cy="383.4" r="0.4"/>
	<circle cx="85" cy="378.3" r="0.4"/>
	<circle cx="85" cy="373.3" r="0.4"/>
	<circle cx="85" cy="368.2" r="0.4"/>
	<circle cx="85" cy="363.1" r="0.4"/>
	<circle cx="85" cy="358" r="0.4"/>
	<circle cx="85" cy="352.9" r="0.4"/>
	<circle cx="85" cy="347.8" r="0.4"/>
	<circle cx="85" cy="342.7" r="0.4"/>
	<circle cx="85" cy="337.6" r="0.4"/>
	<circle cx="7.8" cy="451.3" r="0.8"/>
	<circle cx="-3.1" cy="451.3" r="0.8"/>
	<circle cx="-13.9" cy="451.3" r="0.8"/>
	<circle cx="-24.8" cy="451.3" r="0.8"/>
	<circle cx="-35.7" cy="451.3" r="0.8"/>
	<circle cx="-46.5" cy="451.3" r="0.8"/>
	<circle cx="-57.4" cy="451.3" r="0.8"/>
	<path d="M-90,452.2"/>
	<circle cx="7.8" cy="440.5" r="0.8"/>
	<circle cx="-3.1" cy="440.5" r="0.8"/>
	<circle cx="-46.5" cy="440.5" r="0.8"/>
	<circle cx="-57.4" cy="440.5" r="0.8"/>
	<circle cx="7.8" cy="429.6" r="0.8"/>
	<circle cx="-3.1" cy="429.6" r="0.8"/>
	<circle cx="7.8" cy="418.7" r="0.8"/>
	<circle cx="-3.1" cy="418.7" r="0.8"/>
	<circle cx="18.7" cy="451.3" r="0.8"/>
	<circle cx="18.7" cy="440.5" r="0.8"/>
	<circle cx="18.7" cy="429.6" r="0.8"/>
	<circle cx="18.7" cy="418.7" r="0.8"/>
	<circle cx="29.5" cy="451.3" r="0.8"/>
	<circle cx="18.7" cy="451.3" r="0.8"/>
	<circle cx="29.5" cy="440.5" r="0.8"/>
	<circle cx="18.7" cy="440.5" r="0.8"/>
	<circle cx="29.5" cy="429.6" r="0.8"/>
	<circle cx="18.7" cy="429.6" r="0.8"/>
	<circle cx="29.5" cy="418.7" r="0.8"/>
	<circle cx="18.7" cy="418.7" r="0.8"/>
	<circle cx="40.4" cy="451.3" r="0.8"/>
	<circle cx="29.5" cy="451.3" r="0.8"/>
	<circle cx="40.4" cy="440.5" r="0.8"/>
	<circle cx="29.5" cy="440.5" r="0.8"/>
	<circle cx="40.4" cy="429.6" r="0.8"/>
	<circle cx="29.5" cy="429.6" r="0.8"/>
	<circle cx="40.4" cy="418.7" r="0.8"/>
	<circle cx="29.5" cy="418.7" r="0.8"/>
	<circle cx="51.3" cy="451.3" r="0.8"/>
	<circle cx="40.4" cy="451.3" r="0.8"/>
	<circle cx="51.3" cy="440.5" r="0.8"/>
	<circle cx="40.4" cy="440.5" r="0.8"/>
	<circle cx="51.3" cy="429.6" r="0.8"/>
	<circle cx="40.4" cy="429.6" r="0.8"/>
	<circle cx="51.3" cy="418.7" r="0.8"/>
	<circle cx="40.4" cy="418.7" r="0.8"/>
	<circle cx="7.8" cy="407.8" r="0.8"/>
	<circle cx="-3.1" cy="407.8" r="0.8"/>
	<circle cx="-13.9" cy="407.8" r="0.8"/>
	<circle cx="-24.8" cy="407.8" r="0.8"/>
	<circle cx="-35.7" cy="407.8" r="0.8"/>
	<circle cx="-46.5" cy="407.8" r="0.8"/>
	<circle cx="-57.4" cy="407.8" r="0.8"/>
	<circle cx="-68.3" cy="407.8" r="0.8"/>
	<circle cx="-79.2" cy="407.8" r="0.8"/>
	<circle cx="7.8" cy="397" r="0.8"/>
	<circle cx="-3.1" cy="397" r="0.8"/>
	<circle cx="-13.9" cy="397" r="0.8"/>
	<circle cx="-24.8" cy="397" r="0.8"/>
	<circle cx="-35.7" cy="397" r="0.8"/>
	<circle cx="-46.5" cy="397" r="0.8"/>
	<circle cx="-57.4" cy="397" r="0.8"/>
	<circle cx="-68.3" cy="397" r="0.8"/>
	<circle cx="-79.2" cy="397" r="0.8"/>
	<circle cx="7.8" cy="386.1" r="0.8"/>
	<circle cx="-3.1" cy="386.1" r="0.8"/>
	<circle cx="-13.9" cy="386.1" r="0.8"/>
	<circle cx="-24.8" cy="386.1" r="0.8"/>
	<circle cx="-35.7" cy="386.1" r="0.8"/>
	<circle cx="-46.5" cy="386.1" r="0.8"/>
	<circle cx="-57.4" cy="386.1" r="0.8"/>
	<circle cx="-68.3" cy="386.1" r="0.8"/>
	<circle cx="-79.2" cy="386.1" r="0.8"/>
	<circle cx="7.8" cy="375.2" r="0.8"/>
	<circle cx="-3.1" cy="375.2" r="0.8"/>
	<circle cx="-13.9" cy="375.2" r="0.8"/>
	<circle cx="-24.8" cy="375.2" r="0.8"/>
	<circle cx="-35.7" cy="375.2" r="0.8"/>
	<circle cx="-46.5" cy="375.2" r="0.8"/>
	<circle cx="-57.4" cy="375.2" r="0.8"/>
	<circle cx="-68.3" cy="375.2" r="0.8"/>
	<circle cx="-79.2" cy="375.2" r="0.8"/>
	<circle cx="7.8" cy="364.3" r="0.8"/>
	<circle cx="-3.1" cy="364.3" r="0.8"/>
	<circle cx="-13.9" cy="364.3" r="0.8"/>
	<circle cx="-24.8" cy="364.3" r="0.8"/>
	<circle cx="-35.7" cy="364.3" r="0.8"/>
	<circle cx="-46.5" cy="364.3" r="0.8"/>
	<circle cx="-57.4" cy="364.3" r="0.8"/>
	<circle cx="-68.3" cy="364.3" r="0.8"/>
	<circle cx="-79.2" cy="364.3" r="0.8"/>
	<circle cx="7.8" cy="353.4" r="0.8"/>
	<circle cx="-3.1" cy="353.4" r="0.8"/>
	<circle cx="-13.9" cy="353.4" r="0.8"/>
	<circle cx="-24.8" cy="353.4" r="0.8"/>
	<circle cx="-35.7" cy="353.4" r="0.8"/>
	<circle cx="-46.5" cy="353.4" r="0.8"/>
	<circle cx="-57.4" cy="353.4" r="0.8"/>
	<circle cx="-68.3" cy="353.4" r="0.8"/>
	<circle cx="-79.2" cy="353.4" r="0.8"/>
	<circle cx="-90" cy="353.4" r="0.8"/>
	<circle cx="-100.9" cy="353.4" r="0.8"/>
	<circle cx="-111.8" cy="353.4" r="0.8"/>
	<circle cx="-122.6" cy="353.4" r="0.8"/>
	<circle cx="-133.5" cy="353.4" r="0.8"/>
	<circle cx="7.8" cy="342.6" r="0.8"/>
	<circle cx="-3.1" cy="342.6" r="0.8"/>
	<circle cx="-13.9" cy="342.6" r="0.8"/>
	<circle cx="-24.8" cy="342.6" r="0.8"/>
	<circle cx="-35.7" cy="342.6" r="0.8"/>
	<circle cx="-46.5" cy="342.6" r="0.8"/>
	<circle cx="-57.4" cy="342.6" r="0.8"/>
	<circle cx="-68.3" cy="342.6" r="0.8"/>
	<circle cx="-79.2" cy="342.6" r="0.8"/>
	<circle cx="-90" cy="342.6" r="0.8"/>
	<circle cx="-100.9" cy="342.6" r="0.8"/>
	<circle cx="-111.8" cy="342.6" r="0.8"/>
	<circle cx="-122.6" cy="342.6" r="0.8"/>
	<circle cx="-133.5" cy="342.6" r="0.8"/>
	<circle cx="-144.4" cy="353.4" r="0.8"/>
	<circle cx="-144.4" cy="342.6" r="0.8"/>
	<circle cx="-155.3" cy="353.4" r="0.8"/>
	<circle cx="-155.3" cy="342.6" r="0.8"/>
	<circle cx="-166.2" cy="353.4" r="0.8"/>
	<circle cx="-166.2" cy="342.6" r="0.8"/>
</g>
</svg>
