<?xml version="1.0" encoding="utf-8"?>
<!-- Generator: Adobe Illustrator 19.1.0, SVG Export Plug-In . SVG Version: 6.00 Build 0)  -->
<svg version="1.1" id="Layer_1" xmlns="http://www.w3.org/2000/svg" xmlns:xlink="http://www.w3.org/1999/xlink" x="0px" y="0px"
	 viewBox="-250 284.6 109.4 225.4" style="enable-background:new -250 284.6 109.4 225.4;" xml:space="preserve">
<style type="text/css">
	.st0{fill:none;stroke:#000000;stroke-width:0.35;stroke-miterlimit:10;}
	.st1{fill:none;stroke:#000000;stroke-linecap:round;stroke-linejoin:round;stroke-miterlimit:10;}
</style>
<g id="Capa_12">
	<path class="st0" d="M-513.6,622.8"/>
	<path class="st0" d="M-257.7,407.7"/>
	<line class="st1" x1="-152.5" y1="422" x2="-145.2" y2="422"/>
	<circle cx="-162.7" cy="387.6" r="0.4"/>
	<circle cx="-162.7" cy="382.5" r="0.4"/>
	<circle cx="-162.7" cy="377.4" r="0.4"/>
	<circle cx="-162.7" cy="372.3" r="0.4"/>
	<circle cx="-162.7" cy="367.2" r="0.4"/>
	<circle cx="-162.7" cy="362.1" r="0.4"/>
	<circle cx="-162.7" cy="357" r="0.4"/>
	<circle cx="-162.7" cy="351.9" r="0.4"/>
	<circle cx="-162.7" cy="346.8" r="0.4"/>
	<circle cx="-162.7" cy="341.8" r="0.4"/>
	<circle cx="-162.7" cy="336.7" r="0.4"/>
	<circle cx="-167.8" cy="387.6" r="0.4"/>
	<circle cx="-167.8" cy="382.5" r="0.4"/>
	<circle cx="-167.8" cy="377.4" r="0.4"/>
	<circle cx="-167.8" cy="372.3" r="0.4"/>
	<circle cx="-167.8" cy="367.2" r="0.4"/>
	<circle cx="-167.8" cy="362.1" r="0.4"/>
	<circle cx="-167.8" cy="357" r="0.4"/>
	<circle cx="-167.8" cy="351.9" r="0.4"/>
	<circle cx="-167.8" cy="346.8" r="0.4"/>
	<circle cx="-167.8" cy="341.8" r="0.4"/>
	<circle cx="-167.8" cy="336.7" r="0.4"/>
	<g>
		<circle cx="-189.2" cy="394.3" r="0.4"/>
		<circle cx="-184.1" cy="394.3" r="0.4"/>
		<circle cx="-179" cy="394.3" r="0.4"/>
		<circle cx="-173.9" cy="394.3" r="0.4"/>
		<circle cx="-168.8" cy="394.3" r="0.4"/>
		<circle cx="-163.7" cy="394.3" r="0.4"/>
		<circle cx="-189.2" cy="399.4" r="0.4"/>
		<circle cx="-184.1" cy="399.4" r="0.4"/>
		<circle cx="-179" cy="399.4" r="0.4"/>
		<circle cx="-173.9" cy="399.4" r="0.4"/>
		<circle cx="-168.8" cy="399.4" r="0.4"/>
		<circle cx="-163.7" cy="399.4" r="0.4"/>
		<circle cx="-189.2" cy="404.5" r="0.4"/>
		<circle cx="-184.1" cy="404.5" r="0.4"/>
		<circle cx="-179" cy="404.5" r="0.4"/>
		<circle cx="-173.9" cy="404.5" r="0.4"/>
		<circle cx="-168.8" cy="404.5" r="0.4"/>
		<circle cx="-163.7" cy="404.5" r="0.4"/>
		<circle cx="-189.2" cy="409.6" r="0.4"/>
		<circle cx="-184.1" cy="409.6" r="0.4"/>
		<circle cx="-189.2" cy="414.7" r="0.4"/>
		<circle cx="-184.1" cy="414.7" r="0.4"/>
		<circle cx="-189.2" cy="419.8" r="0.4"/>
		<circle cx="-184.1" cy="419.8" r="0.4"/>
		<circle cx="-189.2" cy="424.9" r="0.4"/>
		<circle cx="-184.1" cy="424.9" r="0.4"/>
		<circle cx="-189.2" cy="429.9" r="0.4"/>
		<circle cx="-184.1" cy="429.9" r="0.4"/>
		<circle cx="-189.2" cy="435" r="0.4"/>
		<circle cx="-184.1" cy="435" r="0.4"/>
		<circle cx="-189.2" cy="440.1" r="0.4"/>
		<circle cx="-184.1" cy="440.1" r="0.4"/>
		<circle cx="-189.2" cy="445.2" r="0.4"/>
		<circle cx="-184.1" cy="445.2" r="0.4"/>
		<circle cx="-179" cy="445.2" r="0.4"/>
		<circle cx="-173.9" cy="445.2" r="0.4"/>
		<circle cx="-189.2" cy="450.3" r="0.4"/>
		<circle cx="-184.1" cy="450.3" r="0.4"/>
		<circle cx="-179" cy="450.3" r="0.4"/>
		<circle cx="-173.9" cy="450.3" r="0.4"/>
		<circle cx="-189.2" cy="455.4" r="0.4"/>
		<circle cx="-184.1" cy="455.4" r="0.4"/>
		<circle cx="-179" cy="455.4" r="0.4"/>
		<circle cx="-173.9" cy="455.4" r="0.4"/>
		<circle cx="-189.2" cy="460.5" r="0.4"/>
		<circle cx="-184.1" cy="460.5" r="0.4"/>
		<circle cx="-179" cy="460.5" r="0.4"/>
		<circle cx="-173.9" cy="460.5" r="0.4"/>
		<circle cx="-189.2" cy="465.6" r="0.4"/>
		<circle cx="-184.1" cy="465.6" r="0.4"/>
		<circle cx="-179" cy="465.6" r="0.4"/>
		<circle cx="-173.9" cy="465.6" r="0.4"/>
		<circle cx="-189.2" cy="470.7" r="0.4"/>
		<circle cx="-184.1" cy="470.7" r="0.4"/>
		<circle cx="-179" cy="470.7" r="0.4"/>
		<circle cx="-173.9" cy="470.7" r="0.4"/>
		<circle cx="-189.2" cy="475.8" r="0.4"/>
		<circle cx="-184.1" cy="475.8" r="0.4"/>
		<circle cx="-179" cy="475.8" r="0.4"/>
		<circle cx="-173.9" cy="475.8" r="0.4"/>
		<circle cx="-189.2" cy="480.8" r="0.4"/>
		<circle cx="-184.1" cy="480.8" r="0.4"/>
		<circle cx="-179" cy="480.8" r="0.4"/>
		<circle cx="-173.9" cy="480.8" r="0.4"/>
		<circle cx="-189.2" cy="485.9" r="0.4"/>
		<circle cx="-184.1" cy="485.9" r="0.4"/>
		<circle cx="-179" cy="485.9" r="0.4"/>
		<circle cx="-173.9" cy="485.9" r="0.4"/>
		<circle cx="-189.2" cy="491" r="0.4"/>
		<circle cx="-184.1" cy="491" r="0.4"/>
		<circle cx="-179" cy="491" r="0.4"/>
		<circle cx="-173.9" cy="491" r="0.4"/>
		<circle cx="-189.2" cy="496.1" r="0.4"/>
		<circle cx="-184.1" cy="496.1" r="0.4"/>
		<circle cx="-179" cy="496.1" r="0.4"/>
		<circle cx="-173.9" cy="496.1" r="0.4"/>
		<circle cx="-189.2" cy="501.2" r="0.4"/>
		<circle cx="-184.1" cy="501.2" r="0.4"/>
		<circle cx="-179" cy="501.2" r="0.4"/>
		<circle cx="-173.9" cy="501.2" r="0.4"/>
		<circle cx="-189.2" cy="506.3" r="0.4"/>
		<circle cx="-184.1" cy="506.3" r="0.4"/>
		<circle cx="-179" cy="506.3" r="0.4"/>
		<circle cx="-173.9" cy="506.3" r="0.4"/>
	</g>
	<g>
		<circle cx="-193.2" cy="506.3" r="0.4"/>
		<circle cx="-193.2" cy="501.2" r="0.4"/>
		<circle cx="-193.2" cy="496.1" r="0.4"/>
		<circle cx="-193.2" cy="491" r="0.4"/>
		<circle cx="-193.2" cy="485.9" r="0.4"/>
		<circle cx="-193.2" cy="480.8" r="0.4"/>
		<circle cx="-198.3" cy="506.3" r="0.4"/>
		<circle cx="-198.3" cy="501.2" r="0.4"/>
		<circle cx="-198.3" cy="496.1" r="0.4"/>
		<circle cx="-198.3" cy="491" r="0.4"/>
		<circle cx="-198.3" cy="485.9" r="0.4"/>
		<circle cx="-198.3" cy="480.8" r="0.4"/>
		<circle cx="-203.4" cy="506.3" r="0.4"/>
		<circle cx="-203.4" cy="501.2" r="0.4"/>
		<circle cx="-203.4" cy="496.1" r="0.4"/>
		<circle cx="-203.4" cy="491" r="0.4"/>
		<circle cx="-203.4" cy="485.9" r="0.4"/>
		<circle cx="-203.4" cy="480.8" r="0.4"/>
	</g>
	<circle cx="-162.3" cy="289.5" r="0.6"/>
	<circle cx="-247.1" cy="407.3" r="0.7"/>
	<circle cx="-230.2" cy="407.3" r="0.7"/>
</g>
</svg>
