<?xml version="1.0" encoding="utf-8"?>
<!-- Generator: Adobe Illustrator 14.0.0, SVG Export Plug-In . SVG Version: 6.00 Build 43363)  -->
<!DOCTYPE svg PUBLIC "-//W3C//DTD SVG 1.1//EN" "http://www.w3.org/Graphics/SVG/1.1/DTD/svg11.dtd">
<svg version="1.1" id="Layer_1" xmlns="http://www.w3.org/2000/svg" xmlns:xlink="http://www.w3.org/1999/xlink" x="0px" y="0px"
	 width="8160px" height="6897px" viewBox="0 0 8160 6897" enable-background="new 0 0 8160 6897" xml:space="preserve">
<path d="M4012.584,2752.273c-5.777,7.089-17.646,8.917-25.685,4.866c-2.873-0.002-5.746-0.004-8.62-0.006
	c-0.805,0-0.969,1.293-0.292,2.01c3.024,3.196,5.352,7.237,5.771,11.144c0.061,0.558-0.932,1.62-1.414,1.583
	c-12.069-0.903-18.639-7.874-20.668-14.74c-3.522,0.001-7.045,0.005-10.568,0.013c-0.822,0.002-1.048,0.978-0.357,1.506
	c7.92,6.063,14.004,15.631,14.887,20.498c0.116,0.64-0.888,1.649-1.358,1.634c-18.035-0.571-27.479-11.979-31.362-23.553
	c-1.238,0.01-2.478,0.021-3.717,0.032c-3.736,12.89-18.468,20.077-30.467,22.001c-0.546,0.087-1.383-0.749-1.237-1.258
	c1.776-6.222,6.318-14.396,12.313-19.49c0.421-0.358,0.117-1.007-0.467-0.997c-2.906,0.048-5.813,0.101-8.721,0.164
	c-2.034,9.557-15.207,17.178-24.287,16.893c-0.604-0.02-1.493-1.341-1.305-1.964c1.319-4.363,4.515-9.759,9.536-13.629
	c0.405-0.313,0.215-0.875-0.303-0.857c-2.366,0.077-4.732,0.163-7.098,0.25c-7.038,6.14-21.629,4.946-27.908-3.148
	c6.259-7.682,19.674-9.188,27.614-3.728c2.895-0.111,5.788-0.224,8.685-0.319c0.459-0.015,0.708-0.569,0.38-0.848
	c-3.915-3.327-7.218-8.168-7.823-12.849c-0.083-0.649,0.978-1.885,1.496-1.845c12.229,0.957,18.79,8.158,20.675,15.128
	c3.453-0.08,6.907-0.144,10.361-0.202c0.938-0.015,1.32-1.051,0.594-1.601c-8.021-6.077-14.191-15.781-15.046-20.661
	c-0.108-0.619,1.186-1.593,1.793-1.567c17.785,0.737,27.11,12.088,30.953,23.587c1.229-0.01,2.459-0.03,3.688-0.04
	c3.745-13.018,18.7-20.23,30.762-22.089c0.45-0.069,1.134,0.662,1.012,1.102c-1.68,6.047-6.021,14.021-11.795,19.196
	c-0.676,0.606-0.304,1.692,0.588,1.689c2.65-0.005,5.302-0.007,7.953-0.009c1.814-9.91,15.693-17.836,24.892-17.218
	c0.418,0.029,0.955,1.339,0.761,1.976c-1.358,4.46-4.669,9.984-9.881,13.858c-0.657,0.489-0.258,1.384,0.646,1.384
	c2.018,0.001,4.036,0.002,6.055,0.003C3990.133,2742.878,4005.968,2743.747,4012.584,2752.273z M4075.251,2565.727
	c-1.331,3.676-3.993,2.789-5.795,2.092c-1.802-0.707-6.293,2.336-7.806,4.328l-16.834,22.194c-0.416,0.542-0.442,2.127,0.326,3.061
	c1.214,1.412,2.328,2.96,3.36,4.626c1.9,3.061,3.558,6.493,5.007,10.133c2.88,7.281,4.936,15.394,6.185,22.855
	c0.824,4.98,1.295,9.662,1.395,13.655l0.317,8.204h0.009c0.108,2.182,2.499,9.091,4.301,10.15c1.803,1.068,2.137,3.894,1.051,5.37
	c-6.385-3.885-13.212-7.507-20.428-10.82v-0.01c0.117-1.621,1.43-3.83,3.721-2.761c2.255,1.05,3.902-4.293,3.902-5.587h0.009
	l-0.126-4.383c-0.118-5.333-1.041-12.532-2.726-19.813c-1.684-7.28-4.138-14.669-7.198-20.428c-1.15-2.173-2.382-4.102-3.65-5.714
	c-0.035-0.045-0.063-0.081-0.099-0.118c-0.67-0.715-1.576-0.19-1.983,0.308c-0.009,0.01-0.018,0.028-0.027,0.037l-0.852,1.123
	l-0.751,0.815c-1.693,1.982-3.423,3.649-5.171,5.025l-1.349,33.224c0,0.036,0,0.072,0,0.108c0,2.138,2.318,7.933,4.347,8.721
	c2.055,0.806,2.87,2.87,1.856,5.106c-6.973-2.798-14.263-5.324-21.833-7.561c0.472-2.734,2.237-3.585,4.111-3.015
	c1.865,0.561,4.301-4.338,4.365-5.75l0.987-24.178c0-0.036,0-0.081,0-0.117c0-1.566-1.231-2.001-1.938-1.837
	c-0.987,0.199-1.956,0.298-2.925,0.298c-1.422,0-2.816-0.218-4.111-0.67c-0.979-0.344-1.901-0.815-2.743-1.413l-0.01,0.009
	c-0.688-0.443-1.666-0.244-1.757,1.069c-0.009,0.009-0.009,0.028-0.009,0.045l-1.756,33.921c-0.101-0.028-0.2-0.055-0.3-0.082
	c-1.086-0.29-2.173-0.57-3.269-0.851c-1.178-0.309-2.363-0.599-3.559-0.888c-0.009,0-0.027-0.009-0.036-0.009l-17.784-64.798
	c-0.67-2.445-2.798-4.048-3.069-0.407c-0.009,0.154-0.019,0.316-0.019,0.488l-1.838,49.224c-0.082,2.137,1.901,7.153,4.147,7.542
	c2.235,0.381,2.309,2.735,1.91,4.464c-6.683-1.194-13.51-2.164-20.465-2.906c-6.963-0.725-14.769-1.304-21.968-1.558
	c-0.579-2.87,2.011-4.002,3.922-3.921c1.847,0.091,4.246-4.129,4.491-6.465c0.009-0.072,0.018-0.145,0.018-0.218l0.172-3.649
	c0.027-1.711,0.063-7.552,0.063-9.77c0-1.875-0.018-3.913-0.045-6.076c-0.163-0.879-0.806-1.241-1.793-0.843
	c-2.092,0.843-4.374,1.612-6.837,2.3c-6.04,1.684-13.211,2.871-21.741,3.369c-0.218,0.018-0.525,0.263-0.507,0.751
	c0.154,4.347,0.354,8.358,0.507,11.247l0.117,2.363c0,0.009,0,0.027,0,0.036c0.128,2.191,2.155,6.691,3.967,6.656
	c1.811-0.028,3.124,1.892,2.726,4.029c-6.267,0.073-12.45,0.326-18.554,0.76c-0.544,0.036-1.078,0.073-1.621,0.118
	c-6.619,0.498-13.139,1.205-19.532,2.11c0-1.468,0.01-4.111,2.291-4.419c2.283-0.308,3.224-5.197,3.115-7.027l-1.104-18.3h-0.019
	c-0.036-0.915-0.761-1.893-1.53-2.2c-3.241-1.25-6.293-2.735-9.2-4.393c-5.687-3.278-10.784-7.208-15.583-11.364l-0.01-0.009
	c-0.86-0.715-2.028,0.009-1.893,1.204l4.527,39.019c0.436,2.055,4.039,5.921,5.75,5.605c1.757-0.326,3.242,1.829,3.242,3.549
	c-7.054,1.259-13.936,2.753-20.628,4.474c-0.624-1.983,0.616-4.356,2.237-4.764c1.594-0.389,2.481-5.288,2.272-7.424
	c0-0.037-0.009-0.063-0.009-0.091l-5.94-51.107c-3.84-3.604-7.624-7.145-11.536-10.368c-6.384-5.27-13.039-9.698-20.745-12.414
	c-0.072-0.027-0.146-0.055-0.217-0.073c-1.657-0.606-2.481,1.023-2.4,2.092l6.493,82.166c0.126,1.657,2.59,6.266,4.409,5.605
	c1.829-0.661,3.324,0.833,3.468,3.079c-6.918,2.454-13.564,5.17-19.902,8.122c-0.788-2.58,0.933-4.899,2.961-5.804
	c1.983-0.879,2.02-6.43,2.02-8.141l-6.882-87.12c0-0.018,0-0.045-0.009-0.063c-0.164-1.703-1.313-2.373-1.975-2.427
	c-0.019-0.009-0.027-0.009-0.036-0.009c-0.589-0.036-1.168-0.044-1.729-0.044c-3.387,0-6.275,0.561-8.721,1.494
	c-2.436,0.933-4.419,2.236-6.012,3.749c-3.17,3.034-4.736,6.991-4.736,10.623c0.009,2.028,0.489,3.947,1.413,5.586
	c0.733,1.304,1.675,2.182,2.753,2.789c1.068,0.597,2.272,0.888,3.477,0.888c1.041,0,2.064-0.227,2.943-0.635
	c0.181-0.091,0.353-0.181,0.525-0.289c0.978-0.744,2.879-3.514,1.611-4.899c-1.277-1.395-1.558-5.56,3.034-5.705
	c4.554-0.136,9.091,6.565,2.127,14.28c-0.036,0.046-0.082,0.1-0.127,0.145c-0.679,0.761-1.448,1.422-2.272,1.983
	c-2.327,1.584-5.07,2.363-7.842,2.363c-2.381,0-4.808-0.579-7.009-1.802c-2.2-1.223-4.156-3.106-5.542-5.569
	c-1.575-2.807-2.336-5.958-2.336-9.136c0.009-4.257,1.349-8.576,3.957-12.325c2.6-3.749,6.475-6.909,11.455-8.811
	c3.313-1.267,7.108-1.974,11.301-1.974c4.871,0,10.277,0.941,16.208,3.033c9.916,3.496,18.029,9.363,25.454,15.774
	c0.489,0.426,0.96,0.842,1.439,1.268l0.01-0.009c0.361,0.326,1.512,0.153,1.376-1.104v-0.01l-1.386-11.934
	c-0.353-2.364-3.431-6.149-5.424-5.751c-2.028,0.407-5.188,0.444-5.668-2.997v-0.009c8.096-1.702,16.435-3.196,24.992-4.437
	c1.204,2.608-1.214,4.293-3.478,4.637c-2.272,0.353-3.486,5.406-3.25,7.407l2.698,23.299c3.351,3.142,6.7,6.238,10.142,9.118
	c4.817,4.03,9.824,7.642,15.32,10.45c0.798,0.407,1.612,0.796,2.437,1.176c0.009,0,0.018,0.009,0.027,0.009
	c0.39,0.154,1.358,0.027,1.285-1.068l-2.815-46.788c0-0.072-0.01-0.145-0.019-0.226c-0.253-2.409-2.327-6.375-4.156-6.185
	c-1.883,0.2-4.012-0.1-4.256-3.631c7.479-0.842,15.104-1.503,22.846-1.965c0.108,2.798-1.838,4.184-3.396,4.292
	c-1.521,0.1-3.794,5.116-3.794,6.963c0,0.045,0,0.091,0,0.127l2.997,49.866c0,0.018,0,0.037,0.009,0.054
	c0.055,0.697,0.48,1.694,1.449,2.011c0.073,0.019,0.136,0.036,0.208,0.055c3.604,0.823,7.471,1.313,11.663,1.385
	c0.01,0,0.027,0,0.036,0c0.254,0,0.489-0.082,0.517-0.39c0-0.018,0-0.036,0-0.063c-0.027-1.775-0.055-3.531-0.055-5.233
	c0-7.516,0.245-15.548,0.969-23.245c0.733-7.688,1.92-15.031,3.903-21.262c1.321-4.147,2.987-7.823,5.279-10.784
	c1.313-1.693,2.852-3.16,4.654-4.247c2.063-1.241,4.481-1.947,7.026-1.938c2.59-0.009,5.062,0.761,7.145,2.083
	c2.092,1.322,3.813,3.133,5.279,5.225c2.934,4.211,4.944,9.626,6.52,15.729c1.041,4.065,1.856,8.431,2.509,12.922
	c0.805,5.551,1.34,11.3,1.711,16.851v0.01c0.063,0.814,0.842,1.376,1.513,0.859c0.054-0.054,0.117-0.108,0.171-0.171
	c1.395-1.512,2.418-3.034,3.179-4.492c0.77-1.493,1.539-2.897,1.539-4.247c0-3.341,0.97-7.181,3.768-8.621
	c1.34-0.688,3.178-0.743,4.718,0.108c0.479,0.317,1.113-0.018,1.141-0.624v-0.01l1.195-32c1.213,0.108,2.418,0.235,3.622,0.362
	c1.195,0.127,2.399,0.253,3.595,0.399l17.866,64.744c0.036,0.136,0.072,0.272,0.108,0.398c1.186,4.057,3.314,2.246,3.477-0.851
	l2.59-49.875h-0.009c0.136-2.599-0.878-7.054-2.934-7.389c-2.064-0.335-5.324-1.386-4.537-4.845
	c7.182,1.086,14.198,2.354,21.045,3.776c0.435,0.09,0.859,0.181,1.285,0.271c7.172,1.522,14.153,3.215,20.918,5.071
	c-0.462,2.853-2.481,3.55-4.103,3.115c-1.603-0.435-4.301,3.469-4.428,5.796c-0.009,0.018-0.009,0.044-0.009,0.063l-1.069,26.114
	c0.815,0.163,1.63,0.39,2.445,0.652c0.552,0.181,1.096,0.38,1.64,0.606c0.054,0.027,0.108,0.045,0.162,0.063
	c0.688,0.199,1.775,0.054,2.409-0.733c0.009-0.009,0.027-0.027,0.036-0.046l15.521-20.464c1.53-2.019,2.59-6.311,0.986-6.828
	c-1.603-0.516-5.017-1.793-3.585-5.415C4060.012,2559.939,4067.835,2562.72,4075.251,2565.727z M3913.509,2627.78l-0.118-2.408
	c-0.162-2.952-0.361-7.054-0.524-11.5c-0.036-0.426-0.326-0.652-0.707-0.652v-0.009c-4.147-0.055-8.05-0.488-11.735-1.222
	c-0.598-0.118-1.022,0.226-1.022,1.059c0,0.064,0.009,0.118,0.009,0.181l0.924,15.394c0,0.036,0.009,0.081,0.009,0.118
	c0.208,1.404,2.444,6.456,4.7,6.284c1.113-0.09,4.146-0.308,5.043-0.371c1.82-0.127,3.423-4.972,3.423-6.864V2627.78z
	 M3950.599,2596.287c-0.072-1.558-0.172-3.142-0.281-4.736c-0.57-8.385-1.566-17.104-3.205-24.647
	c-1.096-5.035-2.481-9.544-4.138-13.021c-0.942-1.983-1.975-3.622-3.016-4.844c-1.205-1.404-2.382-2.237-3.541-2.653
	c-0.634-0.218-1.268-0.335-2.001-0.335c-0.716,0-1.341,0.1-1.938,0.29c-0.598,0.19-1.169,0.471-1.739,0.86
	c-1.141,0.778-2.3,2.056-3.377,3.849c-2.183,3.567-3.939,9.118-5.107,15.602c-0.797,4.328-1.358,9.064-1.738,13.954
	c-0.498,6.511-0.688,13.275-0.688,19.677c0,1.62,0.019,3.313,0.045,5.025h0.01c0,0.235,0.172,0.398,0.417,0.435c0,0,0.009,0,0.018,0
	c12.786-0.77,22.004-3.142,28.506-6.148c0.009,0,0.018-0.009,0.026-0.009C3949.738,2599.13,3950.671,2597.555,3950.599,2596.287z
	 M3973.019,2590.147c-0.126-0.814-0.905-1.068-1.321-0.498c-0.01,0-0.01,0.01-0.019,0.019c-0.697,0.996-1.494,2.037-2.408,3.133
	c-2.364,2.853-5.769,6.058-9.734,8.91c-0.924,0.661-1.331,2.563-1.341,3.885c0,0.054,0,0.108,0,0.153
	c0.073,3.062,0.091,5.914,0.091,8.477c0,2.218-0.026,8.122-0.055,9.843l-0.198,4.219c0,0.046,0,0.091,0,0.135
	c0,2.11,2.236,6.874,3.685,7.018c1.621,0.236,3.641,0.39,5.207,0.553c1.793,0.19,4.4-4.274,4.618-6.122
	c0-0.054,0.009-0.108,0.009-0.162l1.467-39.535C3973.019,2590.166,3973.019,2590.157,3973.019,2590.147z M4013.749,2592.674
	c3.188-2.019,7.09-3.259,11.246-3.568l1.113-27.4c0-0.037,0-0.073,0-0.118c0-1.82-1.611-7.227-3.685-7.679
	c-1.269-0.271-4.184-0.887-5.171-1.086c-1.946-0.407-3.794,3.641-4.002,5.913c-0.01,0.018-0.01,0.037,0,0.045l-1.748,33.667
	c0,0.019,0,0.046,0,0.064c0,0.606,0.381,1.43,1.295,0.805v0.01C4013.106,2593.1,4013.423,2592.882,4013.749,2592.674z
	 M4031.832,2596.938c-1.585-0.452-3.242-0.669-4.881-0.669c-1.983,0-3.948,0.316-5.705,0.869c-1.747,0.552-3.287,1.34-4.428,2.219
	c-0.761,0.58-1.341,1.195-1.729,1.775c-0.525,0.778-0.725,1.439-0.725,2.101c0,0.199,0.019,0.407,0.063,0.634v0.009
	c0.218,1.087,0.616,1.874,1.087,2.454c0.479,0.58,1.041,0.969,1.766,1.223c0.489,0.172,1.051,0.271,1.729,0.271
	c1.449,0.009,3.404-0.498,5.688-1.883c0.089-0.055,0.18-0.109,0.262-0.164c1.901-1.195,3.993-2.998,6.147-5.496
	c0.055-0.073,0.119-0.145,0.173-0.218l0.543-0.597l0.598-0.779c0.01-0.018,0.027-0.036,0.036-0.054
	C4032.982,2597.862,4032.402,2597.111,4031.832,2596.938z M4026.672,2701.07c-9.188,8.318-24.48,10.292-35.419,4.323
	c-5.364-2.927-9.152-7.29-11.658-12.377c-0.205-0.416-1.057-0.756-1.309-0.524c-1.732,1.598-4.026,2.48-7.069,2.19
	c-6.744-0.646-11.108-7.651-13.823-14.286c-0.137-0.333-1.018-0.51-1.339-0.279c-2.598,1.874-5.624,3.214-8.774,3.991
	c-0.357,0.088-0.984,0.894-0.951,1.219c0.131,1.265,0.142,2.516,0.022,3.718c-0.857,8.668-10.717,14.961-19.072,12.424
	c-6.905-2.097-10.582-9.314-9.226-16.26c0.354-1.812,1.009-3.402,1.888-4.794c0.286-0.453-0.056-1.199-0.547-1.142
	c-10.845,1.253-21.293,4.868-31.193,9.699c-0.755,3.905-1.881,7.753-3.34,11.497c-5.332,13.681-14.572,28.481-28.188,35.178
	c-6.02,2.961-13.348,3.144-18.153-2.159c-4.111-4.537-3.448-10.389-0.306-15.3c6.043-9.445,15.962-16.368,25.74-22.406
	c0.939-0.58,0.712-1.903-0.285-2.138c-6.977-1.644-12.071-7.817-12.203-16.112c-0.062-3.855,7.849-5.603,7.918-1.282
	c0.057,3.612,1.173,7.852,4.441,9.949c2.914,1.87,6.781,2.584,9.494-0.129c4.437-4.438,5.264-11.217,7.426-16.86
	c0.854-2.227,6.938-5.014,7.641-1.264c0.711,3.795,0.986,7.614,0.881,11.414c-0.021,0.822,1.745,1.635,2.685,1.239
	c10.708-4.52,21.992-7.566,33.547-8.081c0.383-0.017,1.289-0.919,1.396-1.377c0.577-2.44,3.688-3.175,5.77-2.836
	c5.005,0.813,8.921,4.503,11.277,9.069c0.147,0.285,1.352,0.681,1.815,0.564c4.087-1.023,7.987-3.312,9.202-6.174
	c0.98-2.313,6.564-4.956,7.641-1.265c1.658,5.695,4.335,14.176,9.894,17.38c0.38,0.219,1.345-0.579,1.49-0.977
	c1.507-4.157,1.646-8.572,1.647-12.952c0.039-3.846,7.92-5.6,7.917-1.282c-0.085,8.347,1.722,17.578,7.979,23.611
	c6.334,6.105,16.07,7.848,24.216,4.531c7.404-3.014,10.74-10.844,4.446-16.945c-2.223-2.155-5.078-4.149-8.162-4.796
	c-2.244-0.47-1.694,0.809-1.522,3.255c0.271,3.833-7.611,5.618-7.916,1.282c-0.808-11.462,11.217-12.996,19.156-8.105
	C4030.699,2681.015,4035.834,2692.775,4026.672,2701.07z M3877.041,2695.011c-0.624,0.369-1.245,0.741-1.864,1.117
	c-5.762,3.499-11.493,7.088-16.892,11.132c-4.943,3.703-10.525,7.972-13.543,13.5c-2.13,3.902-1.07,10.472,4.585,10.692
	c6.183,0.238,12.022-6.467,15.657-10.702c5.917-6.896,10.821-15.317,13.717-24.283
	C3879.014,2695.499,3877.879,2694.517,3877.041,2695.011z M3937.709,2684.716c-3.635-0.496-6.872-1.907-8.92-4.248
	c-1.787,1.109-2.996,2.922-3.094,5.558c-0.122,3.333,1.184,8.115,4.854,9.23C3937.358,2697.323,3939.225,2690.968,3937.709,2684.716
	z M3777.66,2574.266h-0.007v0.007h0.007V2574.266z M4080.053,2566.402h-0.007v0.007h0.007V2566.402z"/>
</svg>
