<?xml version="1.0" encoding="utf-8"?>
<!-- Generator: Adobe Illustrator 19.1.0, SVG Export Plug-In . SVG Version: 6.00 Build 0)  -->
<svg version="1.1" id="Layer_1" xmlns="http://www.w3.org/2000/svg" xmlns:xlink="http://www.w3.org/1999/xlink" x="0px" y="0px"
	 viewBox="-181 292.2 248.3 209.8" style="enable-background:new -181 292.2 248.3 209.8;" xml:space="preserve">
<style type="text/css">
	.st0{fill:none;stroke:#000000;stroke-width:0.2;stroke-miterlimit:10;}
	.st1{fill:none;stroke:#000000;stroke-width:0.35;stroke-miterlimit:10;stroke-dasharray:0.5,1;}
	.st2{fill:none;stroke:#000000;stroke-width:0.35;stroke-miterlimit:10;}
</style>
<g id="_x30_4">
	<rect x="-117.1" y="297.1" class="st0" width="23.6" height="4.8"/>
	<line class="st1" x1="-119.4" y1="497.5" x2="-119.4" y2="469.6"/>
	<line class="st2" x1="13" y1="330.3" x2="5.6" y2="330.3"/>
	<line class="st2" x1="13" y1="326.1" x2="5.6" y2="326.1"/>
	<line class="st2" x1="13" y1="323.9" x2="5.6" y2="323.9"/>
	<circle cx="-175.3" cy="413.7" r="1.1"/>
	<circle cx="-119.4" cy="413.7" r="0.4"/>
	<g>
		<circle cx="60.1" cy="378.5" r="0.4"/>
		<circle cx="60.1" cy="383.5" r="0.4"/>
		<circle cx="60.1" cy="388.6" r="0.4"/>
		<circle cx="55" cy="378.5" r="0.4"/>
		<circle cx="55" cy="383.5" r="0.4"/>
		<circle cx="55" cy="388.6" r="0.4"/>
		<circle cx="49.9" cy="378.5" r="0.4"/>
		<circle cx="49.9" cy="383.5" r="0.4"/>
		<circle cx="49.9" cy="388.6" r="0.4"/>
		<circle cx="44.9" cy="378.5" r="0.4"/>
		<circle cx="44.9" cy="383.5" r="0.4"/>
		<circle cx="44.9" cy="388.6" r="0.4"/>
		<circle cx="39.8" cy="378.5" r="0.4"/>
		<circle cx="39.8" cy="383.5" r="0.4"/>
		<circle cx="39.8" cy="388.6" r="0.4"/>
		<circle cx="34.7" cy="378.5" r="0.4"/>
		<circle cx="34.7" cy="383.5" r="0.4"/>
		<circle cx="34.7" cy="388.6" r="0.4"/>
		<circle cx="29.6" cy="378.5" r="0.4"/>
		<circle cx="29.6" cy="383.5" r="0.4"/>
		<circle cx="29.6" cy="388.6" r="0.4"/>
		<circle cx="24.5" cy="378.5" r="0.4"/>
		<circle cx="24.5" cy="383.5" r="0.4"/>
		<circle cx="24.5" cy="388.6" r="0.4"/>
		<circle cx="19.4" cy="378.5" r="0.4"/>
		<circle cx="19.4" cy="383.5" r="0.4"/>
		<circle cx="19.4" cy="388.6" r="0.4"/>
		<circle cx="14.3" cy="378.5" r="0.4"/>
		<circle cx="14.3" cy="383.5" r="0.4"/>
		<circle cx="14.3" cy="388.6" r="0.4"/>
		<circle cx="9.2" cy="378.5" r="0.4"/>
		<circle cx="9.2" cy="383.5" r="0.4"/>
		<circle cx="9.2" cy="388.6" r="0.4"/>
		<circle cx="4.1" cy="378.5" r="0.4"/>
		<circle cx="4.1" cy="383.5" r="0.4"/>
		<circle cx="4.1" cy="388.6" r="0.4"/>
		<circle cx="-1" cy="378.5" r="0.4"/>
		<circle cx="-1" cy="383.5" r="0.4"/>
		<circle cx="-1" cy="388.6" r="0.4"/>
		<circle cx="-6" cy="378.5" r="0.4"/>
		<circle cx="-6" cy="383.5" r="0.4"/>
		<circle cx="-6" cy="388.6" r="0.4"/>
		<circle cx="-11.1" cy="378.5" r="0.4"/>
		<circle cx="-11.1" cy="383.5" r="0.4"/>
		<circle cx="-11.1" cy="388.6" r="0.4"/>
		<circle cx="-16.2" cy="378.5" r="0.4"/>
		<circle cx="-16.2" cy="383.5" r="0.4"/>
		<circle cx="-16.2" cy="388.6" r="0.4"/>
		<circle cx="-21.3" cy="378.5" r="0.4"/>
		<circle cx="-21.3" cy="383.5" r="0.4"/>
		<circle cx="-21.3" cy="388.6" r="0.4"/>
		<circle cx="-26.4" cy="378.5" r="0.4"/>
		<circle cx="-26.4" cy="383.5" r="0.4"/>
		<circle cx="-26.4" cy="388.6" r="0.4"/>
		<circle cx="-31.5" cy="378.5" r="0.4"/>
		<circle cx="-31.5" cy="383.5" r="0.4"/>
		<circle cx="-31.5" cy="388.6" r="0.4"/>
		<circle cx="-36.6" cy="378.5" r="0.4"/>
		<circle cx="-36.6" cy="383.5" r="0.4"/>
		<circle cx="-36.6" cy="388.6" r="0.4"/>
		<circle cx="-41.7" cy="378.5" r="0.4"/>
		<circle cx="-41.7" cy="383.5" r="0.4"/>
		<circle cx="-41.7" cy="388.6" r="0.4"/>
		<circle cx="-46.8" cy="378.5" r="0.4"/>
		<circle cx="-46.8" cy="383.5" r="0.4"/>
		<circle cx="-46.8" cy="388.6" r="0.4"/>
		<circle cx="-51.9" cy="378.5" r="0.4"/>
		<circle cx="-51.9" cy="383.5" r="0.4"/>
		<circle cx="-51.9" cy="388.6" r="0.4"/>
		<circle cx="-56.9" cy="378.5" r="0.4"/>
		<circle cx="-56.9" cy="383.5" r="0.4"/>
		<circle cx="-56.9" cy="388.6" r="0.4"/>
		<circle cx="-62" cy="378.5" r="0.4"/>
		<circle cx="-62" cy="383.5" r="0.4"/>
		<circle cx="-62" cy="388.6" r="0.4"/>
		<circle cx="-67.1" cy="378.5" r="0.4"/>
		<circle cx="-67.1" cy="383.5" r="0.4"/>
		<circle cx="-67.1" cy="388.6" r="0.4"/>
		<circle cx="-72.2" cy="378.5" r="0.4"/>
		<circle cx="-72.2" cy="383.5" r="0.4"/>
		<circle cx="-72.2" cy="388.6" r="0.4"/>
		<circle cx="-77.3" cy="378.5" r="0.4"/>
		<circle cx="-77.3" cy="383.5" r="0.4"/>
		<circle cx="-77.3" cy="388.6" r="0.4"/>
		<circle cx="-82.4" cy="378.5" r="0.4"/>
		<circle cx="-82.4" cy="383.5" r="0.4"/>
		<circle cx="-82.4" cy="388.6" r="0.4"/>
		<circle cx="-87.5" cy="378.5" r="0.4"/>
		<circle cx="-87.5" cy="383.5" r="0.4"/>
		<circle cx="-87.5" cy="388.6" r="0.4"/>
		<circle cx="-92.6" cy="378.5" r="0.4"/>
		<circle cx="-92.6" cy="383.5" r="0.4"/>
		<circle cx="-92.6" cy="388.6" r="0.4"/>
		<circle cx="-97.7" cy="378.5" r="0.4"/>
		<circle cx="-97.7" cy="383.5" r="0.4"/>
		<circle cx="-97.7" cy="388.6" r="0.4"/>
		<circle cx="-102.8" cy="378.5" r="0.4"/>
		<circle cx="-102.8" cy="383.5" r="0.4"/>
		<circle cx="-102.8" cy="388.6" r="0.4"/>
		<circle cx="-107.8" cy="378.5" r="0.4"/>
		<circle cx="-107.8" cy="383.5" r="0.4"/>
		<circle cx="-107.8" cy="388.6" r="0.4"/>
		<circle cx="-112.9" cy="378.5" r="0.4"/>
		<circle cx="-112.9" cy="383.5" r="0.4"/>
		<circle cx="-112.9" cy="388.6" r="0.4"/>
		<circle cx="-118" cy="378.5" r="0.4"/>
		<circle cx="-118" cy="383.5" r="0.4"/>
		<circle cx="-118" cy="388.6" r="0.4"/>
		<circle cx="-123.1" cy="378.5" r="0.4"/>
		<circle cx="-123.1" cy="383.5" r="0.4"/>
		<circle cx="-123.1" cy="388.6" r="0.4"/>
		<circle cx="-128.2" cy="378.5" r="0.4"/>
		<circle cx="-128.2" cy="383.5" r="0.4"/>
		<circle cx="-128.2" cy="388.6" r="0.4"/>
		<circle cx="-133.3" cy="378.5" r="0.4"/>
		<circle cx="-133.3" cy="383.5" r="0.4"/>
		<circle cx="-133.3" cy="388.6" r="0.4"/>
		<circle cx="-138.4" cy="378.5" r="0.4"/>
		<circle cx="-138.4" cy="383.5" r="0.4"/>
		<circle cx="-138.4" cy="388.6" r="0.4"/>
		<circle cx="-143.5" cy="378.5" r="0.4"/>
		<circle cx="-143.5" cy="383.5" r="0.4"/>
		<circle cx="-143.5" cy="388.6" r="0.4"/>
		<circle cx="-148.6" cy="378.5" r="0.4"/>
		<circle cx="-148.6" cy="383.5" r="0.4"/>
		<circle cx="-148.6" cy="388.6" r="0.4"/>
		<circle cx="-153.7" cy="378.5" r="0.4"/>
		<circle cx="-153.7" cy="383.5" r="0.4"/>
		<circle cx="-153.7" cy="388.6" r="0.4"/>
		<circle cx="-158.7" cy="378.5" r="0.4"/>
		<circle cx="-158.7" cy="383.5" r="0.4"/>
		<circle cx="-158.7" cy="388.6" r="0.4"/>
	</g>
	<circle cx="-175.3" cy="413.7" r="1.1"/>
	<circle cx="-175.3" cy="357.8" r="0.5"/>
	<circle cx="-119.4" cy="357.8" r="0.5"/>
</g>
</svg>
